<svg width="118" height="40" viewBox="0 0 118 40" fill="none" xmlns="http://www.w3.org/2000/svg">
<g clip-path="url(#clip0_201_3538)">
<path d="M108.299 0H9.37577C9.01518 0 8.65892 2.32831e-10 8.29928 0.00213C7.99824 0.00413 7.69959 0.00994 7.39565 0.01483C6.73536 0.0227318 6.07661 0.0818063 5.42515 0.19154C4.7746 0.303663 4.14443 0.515046 3.55595 0.81854C2.96819 1.1246 2.43114 1.5223 1.96428 1.9972C1.49496 2.47077 1.10376 3.01815 0.805694 3.61829C0.50681 4.21724 0.299563 4.85907 0.191111 5.52161C0.0816274 6.18332 0.0227134 6.85265 0.0148975 7.52361C0.00577217 7.83021 0.0048085 8.13783 0 8.44447V31.5587C0.0048085 31.8692 0.00577217 32.17 0.0148975 32.4806C0.0227158 33.1516 0.0816298 33.8209 0.191111 34.4825C0.299264 35.1455 0.506523 35.7877 0.805694 36.3868C1.10362 36.985 1.49488 37.5302 1.96428 38.0011C2.42937 38.4781 2.96677 38.8761 3.55595 39.1798C4.14442 39.4841 4.77453 39.6968 5.42515 39.8106C6.07672 39.9195 6.7354 39.9786 7.39565 39.9874C7.69959 39.9942 7.99824 39.9981 8.29928 39.9981C8.65891 40.0001 9.0152 40.0001 9.37577 40.0001H108.299C108.653 40.0001 109.012 40.0001 109.365 39.9981C109.665 39.9981 109.972 39.9942 110.272 39.9874C110.931 39.9791 111.588 39.92 112.238 39.8106C112.891 39.696 113.523 39.4834 114.115 39.1798C114.703 38.8759 115.24 38.478 115.705 38.0011C116.173 37.5284 116.565 36.9836 116.867 36.3868C117.164 35.7872 117.369 35.1451 117.476 34.4825C117.585 33.8208 117.646 33.1516 117.658 32.4806C117.662 32.17 117.662 31.8692 117.662 31.5587C117.67 31.1954 117.67 30.8341 117.67 30.4649V9.53626C117.67 9.17005 117.67 8.80677 117.662 8.44447C117.662 8.13783 117.662 7.83021 117.658 7.52357C117.646 6.85255 117.585 6.18337 117.476 5.52157C117.369 4.85941 117.164 4.21763 116.867 3.61825C116.26 2.41533 115.297 1.43616 114.115 0.81845C113.523 0.515697 112.891 0.30437 112.238 0.19145C111.588 0.0812328 110.931 0.0221378 110.272 0.01469C109.972 0.00981 109.665 0.00395 109.365 0.002C109.012 0 108.653 0 108.299 0Z" fill="#A6A6A6"/>
<path d="M8.30402 39.125C8.00442 39.125 7.71205 39.1211 7.4148 39.1143C6.79902 39.1061 6.18468 39.0516 5.57682 38.9512C5.01001 38.8519 4.46093 38.6673 3.94769 38.4033C3.43915 38.1415 2.97532 37.7983 2.57397 37.3867C2.16681 36.98 1.82783 36.5082 1.57047 35.9902C1.31027 35.4688 1.13019 34.9099 1.03652 34.333C0.935358 33.7131 0.880626 33.0863 0.872794 32.458C0.86656 32.2471 0.858398 31.5449 0.858398 31.5449V8.44434C0.858398 8.44434 0.867091 7.75293 0.872844 7.5498C0.880342 6.92248 0.934756 6.29665 1.03561 5.67773C1.12946 5.09925 1.30968 4.53875 1.57002 4.01563C1.82644 3.49794 2.16353 3.02586 2.56824 2.61768C2.97249 2.20562 3.4378 1.8606 3.94721 1.59521C4.45927 1.33209 5.00731 1.14873 5.57297 1.05127C6.18283 0.949836 6.79931 0.894996 7.41722 0.88721L8.3045 0.875H109.36L110.258 0.8877C110.87 0.895099 111.481 0.94945 112.086 1.05029C112.657 1.14898 113.211 1.33362 113.729 1.59814C114.749 2.13299 115.58 2.97916 116.103 4.01807C116.36 4.53758 116.537 5.09351 116.63 5.66699C116.732 6.29099 116.789 6.92174 116.801 7.5542C116.803 7.8374 116.803 8.1416 116.803 8.44434C116.811 8.81934 116.811 9.17627 116.811 9.53613V30.4648C116.811 30.8281 116.811 31.1826 116.803 31.54C116.803 31.8652 116.803 32.1631 116.8 32.4697C116.788 33.0909 116.732 33.7104 116.632 34.3232C116.54 34.9043 116.361 35.4675 116.101 35.9932C115.841 36.5056 115.504 36.9733 115.102 37.3789C114.7 37.7927 114.235 38.1379 113.726 38.4014C113.209 38.6674 112.656 38.8527 112.086 38.9512C111.478 39.0522 110.863 39.1067 110.248 39.1143C109.959 39.1211 109.658 39.125 109.365 39.125L108.299 39.127L8.30402 39.125Z" fill="black"/>
<path d="M41.5973 27.1397H36.9428L35.825 30.4962H33.8535L38.2622 18.0782H40.3105L44.7192 30.4962H42.7141L41.5973 27.1397ZM37.4248 25.5909H41.1143L39.2955 20.1436H39.2446L37.4248 25.5909ZM54.2404 25.9698C54.2404 28.7833 52.7596 30.5909 50.525 30.5909C49.37 30.6523 48.282 30.0371 47.7239 29.0069H47.6816V33.4913H45.8542V21.4424H47.6231V22.9483H47.6567C48.2396 21.9245 49.3288 21.3096 50.4914 21.3477C52.7509 21.3477 54.2404 23.1641 54.2404 25.9698ZM52.3621 25.9698C52.3621 24.1368 51.4306 22.9317 50.0094 22.9317C48.6131 22.9317 47.674 24.1622 47.674 25.9698C47.674 27.794 48.6131 29.0157 50.0094 29.0157C51.4306 29.0157 52.3621 27.8194 52.3621 25.9698ZM64.0392 25.9698C64.0392 28.7833 62.5584 30.5909 60.3238 30.5909C59.1688 30.6523 58.0808 30.0371 57.5227 29.0069H57.4804V33.4913H55.6529V21.4424H57.4218V22.9483H57.4554C58.0383 21.9245 59.1275 21.3096 60.2902 21.3477C62.5497 21.3477 64.0392 23.1641 64.0392 25.9698ZM62.1608 25.9698C62.1608 24.1368 61.2293 22.9317 59.8081 22.9317C58.4119 22.9317 57.4727 24.1622 57.4727 25.9698C57.4727 27.794 58.4119 29.0157 59.8081 29.0157C61.2294 29.0157 62.1608 27.8194 62.1608 25.9698ZM70.5153 27.0362C70.6507 28.2676 71.8271 29.0762 73.4346 29.0762C74.9749 29.0762 76.0831 28.2676 76.0831 27.1572C76.0831 26.1934 75.4147 25.6162 73.8322 25.2207L72.2496 24.833C70.0073 24.2822 68.9664 23.2158 68.9664 21.4854C68.9664 19.3428 70.8025 17.8711 73.4096 17.8711C75.9899 17.8711 77.7588 19.3428 77.8183 21.4854H75.9736C75.8631 20.2461 74.8558 19.4981 73.3837 19.4981C71.9116 19.4981 70.9042 20.2549 70.9042 21.3565C70.9042 22.2344 71.5476 22.751 73.1215 23.1465L74.4669 23.4824C76.9723 24.0849 78.0132 25.1084 78.0132 26.9248C78.0132 29.248 76.1935 30.7031 73.2992 30.7031C70.5912 30.7031 68.7628 29.2822 68.6447 27.0361L70.5153 27.0362ZM81.9571 19.2999V21.4424H83.6501V22.9141H81.9571V27.9053C81.9571 28.6807 82.2961 29.042 83.0403 29.042C83.2413 29.0385 83.442 29.0241 83.6415 28.999V30.4619C83.3069 30.5255 82.9668 30.5543 82.6265 30.5479C80.824 30.5479 80.1211 29.8594 80.1211 28.1035V22.9141H78.8266V21.4424H80.1211V19.2999H81.9571ZM84.6306 25.9698C84.6306 23.1212 86.2804 21.3311 88.853 21.3311C91.4343 21.3311 93.0763 23.1211 93.0763 25.9698C93.0763 28.8262 91.4429 30.6085 88.853 30.6085C86.264 30.6085 84.6306 28.8262 84.6306 25.9698ZM91.2143 25.9698C91.2143 24.0157 90.3338 22.8624 88.853 22.8624C87.3722 22.8624 86.4926 24.0245 86.4926 25.9698C86.4926 27.9317 87.3722 29.0762 88.853 29.0762C90.3338 29.0762 91.2143 27.9317 91.2143 25.9698ZM94.583 21.4424H96.3259V22.9834H96.3682C96.6113 21.9914 97.5051 21.3087 98.5096 21.3477C98.7202 21.3469 98.9302 21.3702 99.1357 21.417V23.1553C98.8699 23.0727 98.5925 23.0348 98.3147 23.043C97.7774 23.0208 97.2575 23.2386 96.8914 23.6391C96.5253 24.0395 96.3496 24.5827 96.4104 25.126V30.4961H94.583V21.4424ZM107.561 27.837C107.315 29.4805 105.742 30.6084 103.728 30.6084C101.138 30.6084 99.5304 28.8438 99.5304 26.0127C99.5304 23.1729 101.147 21.3311 103.651 21.3311C106.114 21.3311 107.663 23.0518 107.663 25.7969V26.4336H101.375V26.5459C101.316 27.22 101.545 27.8872 102.003 28.3778C102.462 28.8685 103.105 29.1353 103.77 29.1104C104.657 29.1949 105.493 28.677 105.826 27.837L107.561 27.837ZM101.384 25.1348H105.835C105.868 24.5292 105.651 23.9369 105.237 23.5007C104.822 23.0645 104.247 22.8239 103.651 22.837C103.05 22.8333 102.472 23.074 102.047 23.5055C101.621 23.937 101.382 24.5236 101.384 25.1348Z" fill="white"/>
<path d="M37.1958 8.7315C37.9716 8.67488 38.7314 8.97505 39.2662 9.54937C39.801 10.1237 40.0544 10.9116 39.9566 11.6963C39.9566 13.6026 38.9435 14.6983 37.1958 14.6983H35.0764V8.7315H37.1958ZM35.9877 13.8545H37.094C37.6484 13.8882 38.1882 13.6661 38.5636 13.2498C38.939 12.8334 39.1099 12.2673 39.0289 11.7085C39.104 11.152 38.9306 10.5905 38.5562 10.1776C38.1818 9.76472 37.6454 9.54359 37.094 9.57471H35.9877V13.8545ZM40.986 12.4448C40.9101 11.6377 41.2907 10.8566 41.9681 10.4291C42.6456 10.0016 43.5028 10.0016 44.1802 10.4291C44.8577 10.8566 45.2382 11.6377 45.1623 12.4448C45.2397 13.2528 44.8595 14.0355 44.1814 14.4639C43.5033 14.8923 42.645 14.8923 41.9669 14.4639C41.2889 14.0355 40.9086 13.2528 40.986 12.4448ZM44.2635 12.4448C44.2635 11.4688 43.8323 10.898 43.0756 10.898C42.316 10.898 41.8887 11.4688 41.8887 12.4448C41.8887 13.4287 42.316 13.9951 43.0756 13.9951C43.8323 13.9951 44.2635 13.4248 44.2635 12.4448ZM50.7137 14.6982H49.8072L48.8921 11.3818H48.8229L47.9116 14.6982H47.0137L45.7932 10.1953H46.6796L47.4728 13.6313H47.5381L48.4484 10.1953H49.2867L50.1971 13.6313H50.2662L51.0556 10.1953H51.9294L50.7137 14.6982ZM52.956 10.1953H53.7972V10.9106H53.8625C54.0896 10.384 54.6202 10.0618 55.1839 10.1084C55.6203 10.075 56.0479 10.2453 56.3461 10.5711C56.6442 10.8969 56.7805 11.3429 56.7165 11.7832V14.6982H55.8426V12.0064C55.8426 11.2827 55.5334 10.9229 54.8871 10.9229C54.5911 10.9088 54.3038 11.027 54.1006 11.2463C53.8974 11.4657 53.7985 11.7643 53.8298 12.064V14.6982H52.956V10.1953ZM58.1089 8.4375H58.9827V14.6982H58.1089V8.4375ZM60.1975 12.4448C60.1216 11.6377 60.5023 10.8565 61.1798 10.429C61.8573 10.0015 62.7145 10.0015 63.392 10.429C64.0695 10.8565 64.4501 11.6377 64.3743 12.4448C64.4515 13.2529 64.0713 14.0355 63.3932 14.4639C62.7151 14.8923 61.8567 14.8923 61.1786 14.4639C60.5005 14.0355 60.1202 13.2529 60.1975 12.4448ZM63.475 12.4448C63.475 11.4688 63.0438 10.898 62.2871 10.898C61.5275 10.898 61.1002 11.4688 61.1002 12.4448C61.1002 13.4287 61.5275 13.9951 62.2871 13.9951C63.0438 13.9951 63.475 13.4248 63.475 12.4448ZM65.2942 13.4248C65.2942 12.6143 65.8877 12.147 66.9411 12.0806L68.1405 12.0103V11.6216C68.1405 11.146 67.8313 10.8775 67.234 10.8775C66.7462 10.8775 66.4082 11.0596 66.3112 11.3779H65.4652C65.5545 10.6045 66.2699 10.1084 67.2743 10.1084C68.3844 10.1084 69.0105 10.6704 69.0105 11.6216V14.6983H68.1693V14.0654H68.1002C67.8145 14.5276 67.3064 14.7977 66.7702 14.7724C66.3943 14.8122 66.0194 14.6884 65.7382 14.4317C65.457 14.1749 65.2957 13.8091 65.2942 13.4248ZM68.1405 13.04V12.6636L67.0592 12.7339C66.4495 12.7754 66.1729 12.9863 66.1729 13.3833C66.1729 13.7886 66.5186 14.0244 66.994 14.0244C67.2754 14.0534 67.5563 13.965 67.7724 13.7794C67.9886 13.5939 68.1214 13.327 68.1405 13.04ZM70.159 12.4448C70.159 11.022 70.8783 10.1206 71.997 10.1206C72.5619 10.0941 73.091 10.402 73.3549 10.9106H73.4202V8.4375H74.294V14.6982H73.4567V13.9868H73.3875C73.1037 14.4912 72.5681 14.7939 71.997 14.7724C70.8706 14.7725 70.159 13.8711 70.159 12.4448ZM71.0617 12.4448C71.0617 13.3999 71.5044 13.9746 72.2448 13.9746C72.9813 13.9746 73.4365 13.3916 73.4365 12.4487C73.4365 11.5103 72.9766 10.919 72.2448 10.919C71.5092 10.919 71.0617 11.4976 71.0617 12.4448ZM77.9095 12.4448C77.8336 11.6377 78.2142 10.8566 78.8916 10.4291C79.5691 10.0016 80.4263 10.0016 81.1037 10.4291C81.7812 10.8566 82.1617 11.6377 82.0858 12.4448C82.1632 13.2528 81.783 14.0355 81.1049 14.4639C80.4268 14.8923 79.5685 14.8923 78.8904 14.4639C78.2124 14.0355 77.8321 13.2528 77.9095 12.4448ZM81.187 12.4448C81.187 11.4688 80.7558 10.898 79.9991 10.898C79.2395 10.898 78.8122 11.4688 78.8122 12.4448C78.8122 13.4287 79.2395 13.9951 79.9991 13.9951C80.7558 13.9951 81.187 13.4248 81.187 12.4448ZM83.2583 10.1953H84.0995V10.9106H84.1648C84.3919 10.384 84.9225 10.0618 85.4862 10.1084C85.9226 10.075 86.3503 10.2453 86.6484 10.5711C86.9466 10.8969 87.0828 11.3429 87.0188 11.7832V14.6982H86.1449V12.0064C86.1449 11.2827 85.8357 10.9229 85.1894 10.9229C84.8934 10.9088 84.6061 11.027 84.4029 11.2463C84.1997 11.4657 84.1008 11.7643 84.1322 12.064V14.6982H83.2583V10.1953ZM91.9566 9.07423V10.2158H92.9159V10.9644H91.9566V13.2798C91.9566 13.7515 92.1477 13.958 92.5827 13.958C92.6941 13.9577 92.8053 13.9508 92.9159 13.9375V14.6777C92.759 14.7063 92.6 14.7215 92.4406 14.7231C91.4688 14.7231 91.0818 14.3755 91.0818 13.5073V10.9643H90.3788V10.2158H91.0818V9.07423H91.9566ZM94.1095 8.4375H94.9757V10.919H95.0449C95.2829 10.3877 95.8228 10.0651 96.395 10.1123C96.8289 10.0883 97.2508 10.2623 97.5457 10.5869C97.8406 10.9116 97.9778 11.353 97.9199 11.791V14.6982H97.0452V12.0103C97.0452 11.291 96.7158 10.9268 96.0983 10.9268C95.7943 10.9014 95.4948 11.0138 95.2798 11.2339C95.0649 11.454 94.9564 11.7594 94.9834 12.0683V14.6982H94.1096L94.1095 8.4375ZM103.015 13.4824C102.77 14.3318 101.962 14.8806 101.097 14.7852C100.506 14.801 99.9387 14.5521 99.5448 14.1046C99.151 13.657 98.9704 13.056 99.0512 12.4609C98.9726 11.8643 99.1524 11.2623 99.5441 10.8109C99.9358 10.3596 100.501 10.1033 101.093 10.1084C102.325 10.1084 103.068 10.9644 103.068 12.3784V12.6885H99.9414V12.7383C99.9137 13.0724 100.026 13.4029 100.25 13.6485C100.475 13.8941 100.791 14.032 101.121 14.0283C101.548 14.0805 101.964 13.8648 102.174 13.4824L103.015 13.4824ZM99.9413 12.0313H102.178C102.2 11.7257 102.094 11.4247 101.887 11.2026C101.679 10.9804 101.389 10.8577 101.088 10.8648C100.783 10.8609 100.489 10.9825 100.273 11.2021C100.057 11.4218 99.9374 11.7208 99.9413 12.0313Z" fill="white"/>
<path d="M24.3561 20.3011C24.3776 18.6046 25.2522 17.0376 26.6734 16.1491C25.7727 14.8409 24.3183 14.0413 22.7488 13.9914C21.0975 13.8151 19.4967 14.9962 18.6552 14.9962C17.7975 14.9962 16.502 14.0089 15.1069 14.0381C13.2713 14.0984 11.6015 15.134 10.7085 16.7659C8.80674 20.1144 10.2253 25.0354 12.047 27.742C12.9585 29.0674 14.0237 30.5478 15.4175 30.4953C16.7815 30.4378 17.2909 29.6108 18.9373 29.6108C20.5684 29.6108 21.0463 30.4953 22.4684 30.4619C23.932 30.4378 24.8541 29.1307 25.7336 27.7928C26.3885 26.8484 26.8924 25.8047 27.2267 24.7003C25.4884 23.9526 24.3581 22.2205 24.3561 20.3011ZM21.67 12.2113C22.468 11.2371 22.8612 9.98494 22.766 8.7207C21.5468 8.85092 20.4206 9.44348 19.6118 10.3803C18.8132 11.3046 18.4086 12.5139 18.4872 13.7417C19.7227 13.7546 20.8958 13.1906 21.67 12.2113Z" fill="white"/>
</g>
<defs>
<clipPath id="clip0_201_3538">
<rect width="118" height="40" fill="white"/>
</clipPath>
</defs>
</svg>
