<svg width="1425" height="279" viewBox="0 0 1425 279" fill="none" xmlns="http://www.w3.org/2000/svg">
<g clip-path="url(#clip0_233_4601)">
<g opacity="0.5">
<path d="M48.835 194.987V180.748C21.9289 180.734 0.0997301 202.446 0.0144043 229.264H14.3065C14.3919 210.317 29.8215 194.987 48.835 194.987Z" fill="#065BAA"/>
<path d="M97.6554 229.42L83.3633 229.435C83.3633 248.438 67.8909 263.854 48.8347 263.854V278.092C59.7849 278.107 69.8961 274.519 78.0447 268.435C78.6703 267.967 79.2818 267.484 79.8934 266.988C81.1022 265.995 82.254 264.946 83.3633 263.84C83.9179 263.287 84.4583 262.719 84.9845 262.152C85.5106 261.571 86.0226 260.989 86.5204 260.379C87.018 259.784 87.5015 259.16 87.9708 258.536C88.1984 258.224 88.4402 257.912 88.6677 257.586C89.1228 256.947 89.5636 256.295 89.976 255.643C90.1893 255.316 90.3884 254.976 90.6017 254.65C91.6256 252.976 92.5358 251.232 93.3606 249.445C96.1337 243.333 97.6696 236.554 97.6696 229.406" fill="#3080C3"/>
<path d="M97.6555 215.593V208.445H76.2102C77.9026 210.629 79.3247 213.026 80.4623 215.593H97.6697H97.6555Z" fill="#065BAA"/>
<path d="M69.3698 201.737H97.6554V194.59H48.8347V194.987C56.5283 194.987 63.6388 197.497 69.3698 201.737Z" fill="#065BAA"/>
<path d="M97.6554 180.748H48.8347V187.896H97.6554V180.748Z" fill="#065BAA"/>
<path d="M48.8206 270.945H0V278.093H48.8206V270.945Z" fill="#3080C3"/>
<path d="M28.2286 257.047H0V264.195H48.8206V263.854C41.0986 263.854 33.9597 261.33 28.2144 257.047" fill="#3080C3"/>
<path d="M0 243.148V250.296H21.3742C19.696 248.098 18.2739 245.715 17.1647 243.148H0Z" fill="#3080C3"/>
<path d="M14.3063 229.42H0V236.412H15.0031C14.5339 234.157 14.2921 231.817 14.2921 229.42" fill="#3080C3"/>
<path d="M62.8851 229.42C62.8851 229.42 62.8851 229.42 62.8851 229.434H83.3348L62.8708 229.42H62.8851Z" fill="#3080C3"/>
<mask id="mask0_233_4601" style="mask-type:luminance" maskUnits="userSpaceOnUse" x="14" y="195" width="67" height="35">
<g opacity="0.5">
<path d="M14.3062 229.263H35.1114C34.0733 227.845 33.4618 226.115 33.4618 224.243V224.172C33.4618 219.45 37.3157 215.606 42.0513 215.606H48.8346H80.4621C79.3387 213.053 77.9024 210.657 76.21 208.459H48.8346V201.75H69.3697C63.6244 197.51 56.5282 195 48.8346 195C29.8212 195 14.3915 210.331 14.3062 229.278" fill="white"/>
</g>
</mask>
<g mask="url(#mask0_233_4601)">
<path d="M53.0084 162.484L-2.63208 209.209L41.7484 261.768L97.389 215.043L53.0084 162.484Z" fill="url(#paint0_linear_233_4601)"/>
</g>
<mask id="mask1_233_4601" style="mask-type:luminance" maskUnits="userSpaceOnUse" x="40" y="222" width="44" height="8">
<g opacity="0.5">
<path d="M71.0337 222.287V222.358H42.0514C41.0559 222.358 40.2454 223.166 40.2454 224.159V224.23C40.2454 225.223 41.0559 226.031 42.0514 226.031H56.0732C58.8606 226.031 61.3208 227.364 62.8994 229.421H83.3633C83.3633 226.981 83.1073 224.599 82.6238 222.287H71.048H71.0337Z" fill="white"/>
</g>
</mask>
<g mask="url(#mask1_233_4601)">
<path d="M65.4723 201.111L36.7219 225.255L58.129 250.607L86.8793 226.463L65.4723 201.111Z" fill="url(#paint1_linear_233_4601)"/>
</g>
<path d="M62.8992 229.434C63.9942 230.866 64.6484 232.653 64.6484 234.596C64.6484 239.318 60.7945 243.162 56.0589 243.162H36.8464H17.1504C18.2739 245.714 19.6817 248.111 21.3598 250.309H48.8062V257.06H28.2001C33.9454 261.329 41.0843 263.867 48.8062 263.867C67.8766 263.867 83.3206 248.466 83.3348 229.448H62.8851L62.8992 229.434Z" fill="#065BAA"/>
<path d="M36.8607 236.397H56.0732C57.0688 236.397 57.8793 235.589 57.8793 234.596C57.8793 233.603 57.0688 232.795 56.0732 232.795H42.0514C39.2783 232.795 36.8039 231.462 35.2396 229.42C35.1969 229.363 35.1542 229.32 35.1258 229.264H14.3206C14.3206 229.264 14.3206 229.363 14.3206 229.42C14.3206 231.816 14.5623 234.142 15.0315 236.411H36.875L36.8607 236.397Z" fill="#065BAA"/>
<path d="M71.0337 222.287H48.8347V222.358H71.0337V222.287Z" fill="#3080C3"/>
<path d="M42.0515 222.357H48.8349V222.286H82.6239C82.1261 219.96 81.4009 217.72 80.4624 215.578H48.8349H42.0515C37.3159 215.578 33.462 219.421 33.462 224.144V224.215C33.462 226.101 34.0736 227.831 35.1116 229.235C35.1543 229.292 35.1827 229.335 35.2254 229.391C36.7897 231.433 39.2642 232.767 42.0372 232.767H56.0591C57.0546 232.767 57.8652 233.575 57.8652 234.568C57.8652 235.56 57.0546 236.369 56.0591 236.369H48.8207H36.8466H15.0032C15.4867 238.723 16.212 240.978 17.1506 243.119H48.8207H56.0591C60.7947 243.119 64.6486 239.276 64.6486 234.553C64.6486 232.611 63.9944 230.824 62.8994 229.391C62.8994 229.391 62.8994 229.391 62.8994 229.377C61.3351 227.321 58.8606 226.002 56.0734 226.002H42.0515C41.056 226.002 40.2454 225.193 40.2454 224.201V224.13C40.2454 223.137 41.056 222.329 42.0515 222.329" fill="#1D3666"/>
<path d="M77.4331 250.295H21.374C23.3365 252.848 25.6261 255.131 28.2143 257.046H77.4189V250.295H77.4331Z" fill="#3080C3"/>
<path d="M19.2551 208.444H76.2101C74.2477 205.906 71.9581 203.651 69.3699 201.736H19.2551V208.444Z" fill="#065BAA"/>
</g>
<g opacity="0.5">
<path d="M187.538 218.885C187.261 218.747 186.982 218.619 186.705 218.48C186.982 218.608 187.261 218.747 187.538 218.885Z" fill="#1D3666"/>
<path d="M190.408 220.494C190.153 220.332 189.898 220.182 189.632 220.031C189.887 220.182 190.153 220.332 190.408 220.494Z" fill="#1D3666"/>
<path d="M186.045 218.181C185.756 218.053 185.467 217.926 185.166 217.799C185.455 217.926 185.756 218.042 186.045 218.181Z" fill="#1D3666"/>
<path d="M194.435 223.317C194.203 223.132 193.971 222.947 193.74 222.773C193.971 222.958 194.203 223.132 194.435 223.317Z" fill="#1D3666"/>
<path d="M193.139 222.323C192.895 222.15 192.665 221.976 192.421 221.803C192.665 221.976 192.907 222.15 193.139 222.323Z" fill="#1D3666"/>
<path d="M181.382 216.422C180.849 216.26 180.306 216.109 179.762 215.971C180.306 216.109 180.838 216.26 181.382 216.422Z" fill="#1D3666"/>
<path d="M195.696 224.372C195.476 224.175 195.245 223.978 195.013 223.793C195.245 223.978 195.464 224.175 195.696 224.372Z" fill="#1D3666"/>
<path d="M191.796 221.386C191.553 221.224 191.298 221.062 191.055 220.9C191.31 221.062 191.553 221.224 191.796 221.386Z" fill="#1D3666"/>
<path d="M201.678 230.92C206.365 237.377 209.118 245.303 209.118 253.889H189.934C201.644 253.762 208.552 240.443 201.678 230.92Z" fill="#065BAA"/>
<path d="M150.533 192.469C150.533 199.713 154.467 206.042 160.322 209.433C157.442 211.099 154.097 212.048 150.533 212.048C146.97 212.048 143.625 211.087 140.744 209.433C134.889 206.042 130.955 199.713 130.955 192.469C130.955 185.226 134.889 178.896 140.744 175.506C143.625 173.839 146.97 172.891 150.533 172.891C154.097 172.891 157.442 173.839 160.322 175.506C154.479 178.896 150.533 185.226 150.533 192.469Z" fill="#065BAA"/>
<path d="M129.45 220.807C129.207 220.957 128.965 221.119 128.722 221.269C128.965 221.108 129.207 220.957 129.45 220.807Z" fill="#1D3666"/>
<path d="M138.476 216.584C138.129 216.7 137.782 216.804 137.435 216.931C137.782 216.815 138.129 216.7 138.476 216.584Z" fill="#1D3666"/>
<path d="M135.26 217.775C134.97 217.891 134.681 218.018 134.403 218.146C134.692 218.018 134.982 217.903 135.26 217.775Z" fill="#1D3666"/>
<path d="M140.594 215.971C140.062 216.109 139.529 216.26 138.997 216.422C139.529 216.26 140.05 216.109 140.594 215.971Z" fill="#1D3666"/>
<path d="M132.274 219.176C132.008 219.315 131.753 219.453 131.487 219.592C131.742 219.453 132.008 219.315 132.274 219.176Z" fill="#1D3666"/>
<path d="M130.851 219.963C130.596 220.113 130.341 220.252 130.099 220.403C130.354 220.252 130.596 220.102 130.851 219.963Z" fill="#1D3666"/>
<path d="M133.744 218.447C133.465 218.575 133.199 218.702 132.922 218.841C133.188 218.702 133.465 218.575 133.744 218.447Z" fill="#1D3666"/>
<path d="M136.821 217.162C136.509 217.278 136.208 217.382 135.896 217.509C136.196 217.394 136.509 217.278 136.821 217.162Z" fill="#1D3666"/>
<path d="M150.394 219.974C147.374 218.227 144.088 216.861 140.617 215.97C143.741 215.172 147.015 214.732 150.406 214.732C153.797 214.732 157.059 215.161 160.196 215.97C156.724 216.861 153.438 218.227 150.406 219.974" fill="#1D3666"/>
<path d="M130.816 253.89H111.238C111.238 245.13 114.118 237.042 118.99 230.516C111.909 240.189 118.748 253.89 130.816 253.89Z" fill="#065BAA"/>
<path d="M160.311 209.433C166.166 206.042 170.1 199.713 170.1 192.469C170.1 185.226 166.166 178.896 160.311 175.506C163.204 173.839 166.536 172.891 170.111 172.891C173.688 172.891 177.02 173.839 179.901 175.506C185.756 178.896 189.69 185.226 189.69 192.469C189.69 199.713 185.756 206.042 179.901 209.433C177.02 211.099 173.676 212.048 170.111 212.048C166.548 212.048 163.204 211.099 160.322 209.433H160.311Z" fill="#065BAA"/>
<path d="M170.111 192.469C170.111 199.713 166.177 206.042 160.322 209.433C154.479 206.042 150.533 199.713 150.533 192.469C150.533 185.226 154.467 178.896 160.322 175.506C166.177 178.896 170.111 185.226 170.111 192.469Z" fill="#3080C3"/>
<path d="M160.253 215.97C160.253 215.97 160.23 215.97 160.218 215.97C160.218 215.97 160.196 215.97 160.184 215.97C163.308 215.172 166.594 214.732 169.973 214.732C173.352 214.732 176.626 215.161 179.762 215.97C176.302 216.861 173.027 218.215 170.007 219.963C166.987 218.215 163.712 216.861 160.253 215.97Z" fill="#1D3666"/>
<mask id="mask2_233_4601" style="mask-type:luminance" maskUnits="userSpaceOnUse" x="191" y="221" width="2" height="1">
<g opacity="0.5">
<path d="M192.421 221.385H191.796V221.813H192.421V221.385Z" fill="white"/>
</g>
</mask>
<g mask="url(#mask2_233_4601)">
<path d="M192.41 221.801C192.201 221.662 192.004 221.512 191.796 221.373C192.004 221.512 192.212 221.651 192.41 221.801Z" fill="#3080C3"/>
</g>
<mask id="mask3_233_4601" style="mask-type:luminance" maskUnits="userSpaceOnUse" x="181" y="216" width="1" height="1">
<g opacity="0.5">
<path d="M181.914 216.422H181.382V216.595H181.914V216.422Z" fill="white"/>
</g>
</mask>
<g mask="url(#mask3_233_4601)">
<path d="M181.914 216.595C181.74 216.538 181.555 216.48 181.382 216.422C181.567 216.48 181.74 216.538 181.914 216.595Z" fill="#3080C3"/>
</g>
<mask id="mask4_233_4601" style="mask-type:luminance" maskUnits="userSpaceOnUse" x="188" y="219" width="2" height="2">
<g opacity="0.5">
<path d="M189.644 219.662H188.996V220.032H189.644V219.662Z" fill="white"/>
</g>
</mask>
<g mask="url(#mask4_233_4601)">
<path d="M189.644 220.032C189.424 219.905 189.216 219.778 188.996 219.662C189.216 219.789 189.424 219.905 189.644 220.032Z" fill="#3080C3"/>
</g>
<mask id="mask5_233_4601" style="mask-type:luminance" maskUnits="userSpaceOnUse" x="190" y="220" width="2" height="1">
<g opacity="0.5">
<path d="M191.044 220.494H190.407V220.899H191.044V220.494Z" fill="white"/>
</g>
</mask>
<g mask="url(#mask5_233_4601)">
<path d="M191.044 220.888C190.836 220.749 190.628 220.621 190.407 220.494C190.615 220.621 190.836 220.76 191.044 220.888Z" fill="#3080C3"/>
</g>
<mask id="mask6_233_4601" style="mask-type:luminance" maskUnits="userSpaceOnUse" x="193" y="222" width="1" height="1">
<g opacity="0.5">
<path d="M193.728 222.322H193.127V222.774H193.728V222.322Z" fill="white"/>
</g>
</mask>
<g mask="url(#mask6_233_4601)">
<path d="M193.728 222.774C193.532 222.623 193.335 222.473 193.127 222.322C193.324 222.473 193.532 222.623 193.728 222.774Z" fill="#3080C3"/>
</g>
<mask id="mask7_233_4601" style="mask-type:luminance" maskUnits="userSpaceOnUse" x="194" y="223" width="2" height="1">
<g opacity="0.5">
<path d="M195.013 223.318H194.434V223.793H195.013V223.318Z" fill="white"/>
</g>
</mask>
<g mask="url(#mask7_233_4601)">
<path d="M195.013 223.793C194.816 223.631 194.631 223.48 194.434 223.318C194.631 223.469 194.828 223.631 195.013 223.793Z" fill="#3080C3"/>
</g>
<path d="M189.945 253.889H189.586H189.551C189.551 239.414 181.695 226.767 170.007 219.997C170.007 219.997 170.03 219.986 170.043 219.974C170.03 219.974 170.019 219.963 170.007 219.951C173.027 218.204 176.302 216.862 179.762 215.959C180.306 216.098 180.838 216.248 181.382 216.41C181.567 216.468 181.74 216.526 181.914 216.584C182.261 216.7 182.62 216.804 182.967 216.931C183.176 217 183.384 217.081 183.592 217.162C183.905 217.278 184.217 217.394 184.53 217.521C184.749 217.614 184.958 217.706 185.177 217.799C185.466 217.926 185.768 218.042 186.057 218.181C186.277 218.285 186.496 218.389 186.716 218.493C186.994 218.62 187.272 218.759 187.55 218.898C187.769 219.014 187.989 219.13 188.209 219.245C188.475 219.384 188.741 219.523 189.007 219.673C189.228 219.789 189.435 219.916 189.656 220.044C189.909 220.194 190.176 220.345 190.43 220.507C190.639 220.634 190.859 220.773 191.067 220.9C191.31 221.062 191.565 221.224 191.808 221.386C192.016 221.525 192.225 221.664 192.433 221.814C192.676 221.988 192.918 222.161 193.15 222.335C193.346 222.485 193.555 222.636 193.752 222.786C193.983 222.971 194.214 223.145 194.446 223.33C194.643 223.48 194.839 223.642 195.024 223.804C195.256 224.001 195.476 224.186 195.707 224.383C195.892 224.545 196.077 224.707 196.263 224.869C196.483 225.066 196.702 225.274 196.922 225.482C197.095 225.656 197.281 225.818 197.454 225.991C197.674 226.211 197.882 226.419 198.091 226.639C198.252 226.813 198.426 226.986 198.588 227.16C198.797 227.391 199.005 227.623 199.213 227.854C199.364 228.028 199.526 228.201 199.676 228.375C199.884 228.618 200.092 228.873 200.289 229.116C200.428 229.289 200.579 229.463 200.717 229.636C200.938 229.914 201.146 230.192 201.353 230.469C201.47 230.62 201.585 230.77 201.701 230.932C208.586 240.455 201.678 253.774 189.956 253.889" fill="#1D3666"/>
<path d="M189.945 253.889H189.586H189.551C189.551 239.414 181.695 226.767 170.007 219.997C170.007 219.997 170.03 219.986 170.043 219.974C170.03 219.974 170.019 219.963 170.007 219.951C173.027 218.204 176.302 216.862 179.762 215.959C180.306 216.098 180.838 216.248 181.382 216.41C181.567 216.468 181.74 216.526 181.914 216.584C182.261 216.7 182.62 216.804 182.967 216.931C183.176 217 183.384 217.081 183.592 217.162C183.905 217.278 184.217 217.394 184.53 217.521C184.749 217.614 184.958 217.706 185.177 217.799C185.466 217.926 185.768 218.042 186.057 218.181C186.277 218.285 186.496 218.389 186.716 218.493C186.994 218.62 187.272 218.759 187.55 218.898C187.769 219.014 187.989 219.13 188.209 219.245C188.475 219.384 188.741 219.523 189.007 219.673C189.228 219.789 189.435 219.916 189.656 220.044C189.909 220.194 190.176 220.345 190.43 220.507C190.639 220.634 190.859 220.773 191.067 220.9C191.31 221.062 191.565 221.224 191.808 221.386C192.016 221.525 192.225 221.664 192.433 221.814C192.676 221.988 192.918 222.161 193.15 222.335C193.346 222.485 193.555 222.636 193.752 222.786C193.983 222.971 194.214 223.145 194.446 223.33C194.643 223.48 194.839 223.642 195.024 223.804C195.256 224.001 195.476 224.186 195.707 224.383C195.892 224.545 196.077 224.707 196.263 224.869C196.483 225.066 196.702 225.274 196.922 225.482C197.095 225.656 197.281 225.818 197.454 225.991C197.674 226.211 197.882 226.419 198.091 226.639C198.252 226.813 198.426 226.986 198.588 227.16C198.797 227.391 199.005 227.623 199.213 227.854C199.364 228.028 199.526 228.201 199.676 228.375C199.884 228.618 200.092 228.873 200.289 229.116C200.428 229.289 200.579 229.463 200.717 229.636C200.938 229.914 201.146 230.192 201.353 230.469C201.47 230.62 201.585 230.77 201.701 230.932C208.586 240.455 201.678 253.774 189.956 253.889" fill="#3080C3"/>
<path d="M160.183 215.971C160.183 215.971 160.207 215.971 160.219 215.971C156.759 216.873 153.484 218.227 150.452 219.974C154.132 222.092 157.418 224.8 160.207 227.959C160.195 227.97 160.183 227.982 160.172 227.993C157.372 224.823 154.074 222.103 150.383 219.974C153.414 218.227 156.7 216.862 160.172 215.971H160.183Z" fill="#1D3666"/>
<mask id="mask8_233_4601" style="mask-type:luminance" maskUnits="userSpaceOnUse" x="150" y="215" width="11" height="13">
<g opacity="0.5">
<path d="M160.219 215.971H150.394V227.993H160.219V215.971Z" fill="white"/>
</g>
</mask>
<g mask="url(#mask8_233_4601)">
<path d="M160.183 215.971C160.183 215.971 160.207 215.971 160.219 215.971C156.759 216.873 153.484 218.227 150.452 219.974C154.132 222.092 157.418 224.8 160.207 227.959C160.195 227.97 160.183 227.982 160.172 227.993C157.372 224.823 154.074 222.103 150.383 219.974C153.414 218.227 156.7 216.862 160.172 215.971H160.183Z" fill="#3080C3"/>
</g>
<path d="M160.253 227.994C163.042 224.823 166.34 222.116 170.007 219.998C181.695 226.767 189.551 239.414 189.551 253.89H170.043C170.043 243.962 166.34 234.902 160.253 227.994C160.241 228.005 160.23 228.017 160.218 228.029C160.218 228.017 160.196 228.005 160.184 227.994C160.196 227.982 160.207 227.971 160.218 227.959C160.23 227.971 160.241 227.982 160.253 227.994Z" fill="#1D3666"/>
<path d="M160.253 227.994C163.042 224.823 166.34 222.116 170.007 219.998C181.695 226.767 189.551 239.414 189.551 253.89H170.043C170.043 243.962 166.34 234.902 160.253 227.994C160.241 228.005 160.23 228.017 160.218 228.029C160.218 228.017 160.196 228.005 160.184 227.994C160.196 227.982 160.207 227.971 160.218 227.959C160.23 227.971 160.241 227.982 160.253 227.994Z" fill="#065BAA"/>
<mask id="mask9_233_4601" style="mask-type:luminance" maskUnits="userSpaceOnUse" x="129" y="220" width="2" height="1">
<g opacity="0.5">
<path d="M130.087 220.402H129.45V220.807H130.087V220.402Z" fill="white"/>
</g>
</mask>
<g mask="url(#mask9_233_4601)">
<path d="M130.087 220.402C129.879 220.53 129.659 220.668 129.45 220.807C129.659 220.668 129.867 220.541 130.087 220.402Z" fill="#3080C3"/>
</g>
<mask id="mask10_233_4601" style="mask-type:luminance" maskUnits="userSpaceOnUse" x="135" y="217" width="1" height="1">
<g opacity="0.5">
<path d="M135.907 217.498H135.26V217.764H135.907V217.498Z" fill="white"/>
</g>
</mask>
<g mask="url(#mask10_233_4601)">
<path d="M135.907 217.498C135.688 217.591 135.479 217.683 135.26 217.764C135.468 217.672 135.688 217.579 135.907 217.498Z" fill="#3080C3"/>
</g>
<mask id="mask11_233_4601" style="mask-type:luminance" maskUnits="userSpaceOnUse" x="133" y="218" width="2" height="1">
<g opacity="0.5">
<path d="M134.392 218.135H133.743V218.447H134.392V218.135Z" fill="white"/>
</g>
</mask>
<g mask="url(#mask11_233_4601)">
<path d="M134.403 218.146C134.183 218.251 133.963 218.355 133.754 218.459C133.975 218.355 134.183 218.251 134.403 218.146Z" fill="#3080C3"/>
</g>
<mask id="mask12_233_4601" style="mask-type:luminance" maskUnits="userSpaceOnUse" x="132" y="218" width="1" height="2">
<g opacity="0.5">
<path d="M132.934 218.84H132.274V219.175H132.934V218.84Z" fill="white"/>
</g>
</mask>
<g mask="url(#mask12_233_4601)">
<path d="M132.933 218.84C132.714 218.956 132.493 219.071 132.285 219.175C132.506 219.06 132.714 218.944 132.933 218.84Z" fill="#3080C3"/>
</g>
<path d="M118.99 230.516C119.106 230.354 119.233 230.192 119.349 230.041C119.522 229.821 119.696 229.602 119.869 229.382C120.032 229.185 120.194 228.988 120.356 228.792C120.541 228.572 120.715 228.363 120.9 228.155C121.062 227.958 121.235 227.773 121.409 227.577C121.594 227.368 121.791 227.16 121.987 226.963C122.161 226.778 122.334 226.593 122.519 226.408C122.716 226.211 122.913 226.014 123.121 225.818C123.306 225.644 123.491 225.459 123.676 225.285C123.885 225.089 124.093 224.904 124.301 224.718C124.486 224.545 124.684 224.383 124.869 224.209C125.088 224.024 125.296 223.839 125.516 223.666C125.713 223.504 125.909 223.342 126.107 223.191C126.326 223.018 126.558 222.844 126.789 222.67C126.985 222.52 127.194 222.37 127.391 222.219C127.623 222.057 127.854 221.884 128.097 221.722C128.305 221.583 128.514 221.432 128.722 221.293C128.965 221.131 129.207 220.981 129.45 220.831C129.659 220.692 129.867 220.564 130.087 220.426C130.341 220.275 130.585 220.125 130.839 219.986C131.059 219.859 131.268 219.731 131.487 219.616C131.742 219.477 132.008 219.338 132.274 219.199C132.494 219.083 132.702 218.968 132.922 218.864C133.188 218.725 133.465 218.597 133.744 218.47C133.963 218.366 134.184 218.262 134.403 218.158C134.692 218.03 134.97 217.915 135.26 217.787C135.468 217.695 135.688 217.602 135.907 217.521C136.208 217.405 136.521 217.29 136.833 217.174C137.042 217.105 137.238 217.024 137.446 216.943C137.793 216.815 138.14 216.711 138.488 216.596C138.661 216.538 138.835 216.48 139.008 216.422C139.541 216.26 140.062 216.109 140.605 215.971H140.617C144.088 216.862 147.374 218.227 150.394 219.974C138.696 226.744 130.816 239.402 130.816 253.89C118.759 253.89 111.909 240.189 118.99 230.516Z" fill="#1D3666"/>
<path d="M118.99 230.516C119.106 230.354 119.233 230.192 119.349 230.041C119.522 229.821 119.696 229.602 119.869 229.382C120.032 229.185 120.194 228.988 120.356 228.792C120.541 228.572 120.715 228.363 120.9 228.155C121.062 227.958 121.235 227.773 121.409 227.577C121.594 227.368 121.791 227.16 121.987 226.963C122.161 226.778 122.334 226.593 122.519 226.408C122.716 226.211 122.913 226.014 123.121 225.818C123.306 225.644 123.491 225.459 123.676 225.285C123.885 225.089 124.093 224.904 124.301 224.718C124.486 224.545 124.684 224.383 124.869 224.209C125.088 224.024 125.296 223.839 125.516 223.666C125.713 223.504 125.909 223.342 126.107 223.191C126.326 223.018 126.558 222.844 126.789 222.67C126.985 222.52 127.194 222.37 127.391 222.219C127.623 222.057 127.854 221.884 128.097 221.722C128.305 221.583 128.514 221.432 128.722 221.293C128.965 221.131 129.207 220.981 129.45 220.831C129.659 220.692 129.867 220.564 130.087 220.426C130.341 220.275 130.585 220.125 130.839 219.986C131.059 219.859 131.268 219.731 131.487 219.616C131.742 219.477 132.008 219.338 132.274 219.199C132.494 219.083 132.702 218.968 132.922 218.864C133.188 218.725 133.465 218.597 133.744 218.47C133.963 218.366 134.184 218.262 134.403 218.158C134.692 218.03 134.97 217.915 135.26 217.787C135.468 217.695 135.688 217.602 135.907 217.521C136.208 217.405 136.521 217.29 136.833 217.174C137.042 217.105 137.238 217.024 137.446 216.943C137.793 216.815 138.14 216.711 138.488 216.596C138.661 216.538 138.835 216.48 139.008 216.422C139.541 216.26 140.062 216.109 140.605 215.971H140.617C144.088 216.862 147.374 218.227 150.394 219.974C138.696 226.744 130.816 239.402 130.816 253.89C118.759 253.89 111.909 240.189 118.99 230.516Z" fill="#3080C3"/>
<path d="M150.394 219.975C154.086 222.104 157.383 224.823 160.184 227.993C154.097 234.89 150.394 243.962 150.394 253.89H130.816C130.816 239.403 138.684 226.744 150.394 219.975Z" fill="#1D3666"/>
<path d="M150.394 219.975C154.086 222.104 157.383 224.823 160.184 227.993C154.097 234.89 150.394 243.962 150.394 253.89H130.816C130.816 239.403 138.684 226.744 150.394 219.975Z" fill="#065BAA"/>
<path d="M150.464 253.889H150.394C150.394 243.972 154.086 234.9 160.183 227.992C160.196 228.004 160.207 228.015 160.219 228.027C154.143 234.923 150.464 243.972 150.464 253.877" fill="#1D3666"/>
<path d="M150.464 253.889H150.394C150.394 243.972 154.086 234.9 160.183 227.992C160.196 228.004 160.207 228.015 160.219 228.027C154.143 234.923 150.464 243.972 150.464 253.877" fill="#1D3666"/>
<mask id="mask13_233_4601" style="mask-type:luminance" maskUnits="userSpaceOnUse" x="150" y="227" width="11" height="27">
<g opacity="0.5">
<path d="M160.207 227.992H150.394V253.889H160.207V227.992Z" fill="white"/>
</g>
</mask>
<g mask="url(#mask13_233_4601)">
<path d="M150.464 253.889H150.394C150.394 243.972 154.086 234.9 160.183 227.992C160.196 228.004 160.207 228.015 160.219 228.027C154.143 234.923 150.464 243.972 150.464 253.877" fill="#3080C3"/>
<path d="M150.464 253.889H150.394C150.394 243.972 154.086 234.9 160.183 227.992C160.196 228.004 160.207 228.015 160.219 228.027C154.143 234.923 150.464 243.972 150.464 253.877" fill="#3080C3"/>
</g>
<path d="M189.575 253.889V258.563C189.575 269.359 198.322 278.107 209.118 278.107H194.249C180.873 278.107 170.031 267.265 170.031 253.889H189.575Z" fill="#065BAA"/>
<path d="M130.817 258.575V253.9H150.36C150.36 267.277 139.518 278.119 126.141 278.119H111.272C122.068 278.119 130.817 269.371 130.817 258.575Z" fill="#065BAA"/>
<mask id="mask14_233_4601" style="mask-type:luminance" maskUnits="userSpaceOnUse" x="150" y="253" width="21" height="1">
<g opacity="0.5">
<path d="M150.464 253.9H170.03V253.889L150.464 253.9Z" fill="white"/>
</g>
</mask>
<g mask="url(#mask14_233_4601)">
<path d="M150.652 251.947L150.458 253.893L169.835 255.831L170.029 253.885L150.652 251.947Z" fill="url(#paint2_linear_233_4601)"/>
</g>
<mask id="mask15_233_4601" style="mask-type:luminance" maskUnits="userSpaceOnUse" x="150" y="253" width="21" height="26">
<g opacity="0.5">
<path d="M150.464 253.9C150.464 263.181 154.156 271.662 160.253 278.119C166.34 271.662 170.043 263.192 170.043 253.9H170.03H150.464Z" fill="white"/>
</g>
</mask>
<g mask="url(#mask15_233_4601)">
<path d="M150.459 253.607L150.086 278.113L170.022 278.415L170.394 253.91L150.459 253.607Z" fill="url(#paint3_linear_233_4601)"/>
</g>
<path d="M160.241 227.992C166.328 234.889 170.03 243.961 170.03 253.889H169.962C169.962 243.984 166.27 234.935 160.207 228.039C160.207 228.027 160.23 228.015 160.241 228.004" fill="#1D3666"/>
<path d="M160.241 227.992C166.328 234.889 170.03 243.961 170.03 253.889H169.962C169.962 243.984 166.27 234.935 160.207 228.039C160.207 228.027 160.23 228.015 160.241 228.004" fill="#1D3666"/>
<mask id="mask16_233_4601" style="mask-type:luminance" maskUnits="userSpaceOnUse" x="160" y="227" width="11" height="27">
<g opacity="0.5">
<path d="M170.043 227.992H160.219V253.889H170.043V227.992Z" fill="white"/>
</g>
</mask>
<g mask="url(#mask16_233_4601)">
<path d="M160.242 227.992C166.328 234.889 170.031 243.961 170.031 253.889H169.962C169.962 243.984 166.271 234.935 160.207 228.039C160.207 228.027 160.23 228.015 160.242 228.004" fill="#3080C3"/>
</g>
<mask id="mask17_233_4601" style="mask-type:luminance" maskUnits="userSpaceOnUse" x="160" y="227" width="11" height="27">
<g opacity="0.5">
<path d="M160.218 228.027C166.293 234.923 169.973 243.972 169.973 253.877H170.03C170.03 243.949 166.328 234.888 160.241 227.98C160.241 227.992 160.218 228.004 160.207 228.015" fill="white"/>
</g>
</mask>
<g mask="url(#mask17_233_4601)">
<path d="M166.56 223.297L147.834 237.149L163.688 258.582L182.414 244.73L166.56 223.297Z" fill="url(#paint4_linear_233_4601)"/>
</g>
<path d="M169.973 253.889H150.464C150.464 243.984 154.143 234.936 160.218 228.039C166.293 234.936 169.973 243.984 169.973 253.889Z" fill="#1D3666"/>
<path d="M169.973 253.889H150.464C150.464 243.984 154.143 234.936 160.218 228.039C166.293 234.936 169.973 243.984 169.973 253.889Z" fill="#1D3666"/>
<mask id="mask18_233_4601" style="mask-type:luminance" maskUnits="userSpaceOnUse" x="150" y="228" width="20" height="26">
<g opacity="0.5">
<path d="M169.973 228.027H150.464V253.877H169.973V228.027Z" fill="white"/>
</g>
</mask>
<g mask="url(#mask18_233_4601)">
<path d="M169.973 253.889H150.464C150.464 243.984 154.144 234.936 160.218 228.039C166.293 234.936 169.973 243.984 169.973 253.889Z" fill="#3080C3"/>
<path d="M169.973 253.889H150.464C150.464 243.984 154.144 234.936 160.218 228.039C166.293 234.936 169.973 243.984 169.973 253.889Z" fill="#3080C3"/>
</g>
<mask id="mask19_233_4601" style="mask-type:luminance" maskUnits="userSpaceOnUse" x="150" y="228" width="20" height="26">
<g opacity="0.5">
<path d="M150.464 253.889H169.973C169.973 243.984 166.281 234.936 160.218 228.039C154.143 234.936 150.464 243.984 150.464 253.889Z" fill="white"/>
</g>
</mask>
<g mask="url(#mask19_233_4601)">
<path d="M150.462 227.725L150.065 253.873L169.966 254.175L170.362 228.027L150.462 227.725Z" fill="url(#paint5_linear_233_4601)"/>
</g>
<mask id="mask20_233_4601" style="mask-type:luminance" maskUnits="userSpaceOnUse" x="160" y="215" width="11" height="5">
<g opacity="0.5">
<path d="M170.007 215.971H160.219V219.974H170.007V215.971Z" fill="white"/>
</g>
</mask>
<g mask="url(#mask20_233_4601)">
<path d="M160.219 215.971C160.219 215.971 160.241 215.971 160.253 215.971C163.713 216.862 166.987 218.216 170.007 219.963C170.007 219.963 169.985 219.974 169.973 219.986C166.953 218.239 163.678 216.885 160.219 215.982" fill="#3080C3"/>
</g>
<mask id="mask21_233_4601" style="mask-type:luminance" maskUnits="userSpaceOnUse" x="160" y="215" width="11" height="5">
<g opacity="0.5">
<path d="M160.253 215.971C160.253 215.971 160.23 215.971 160.219 215.971C163.678 216.873 166.953 218.227 169.973 219.974C169.985 219.974 169.996 219.963 170.007 219.951C166.987 218.204 163.713 216.862 160.253 215.959V215.971Z" fill="white"/>
</g>
</mask>
<g mask="url(#mask21_233_4601)">
<path d="M170.007 215.971H160.219V219.974H170.007V215.971Z" fill="url(#paint6_linear_233_4601)"/>
</g>
<path d="M170.007 219.951C170.007 219.951 170.03 219.963 170.042 219.974C170.03 219.974 170.019 219.985 170.007 219.997C169.996 219.997 169.985 219.985 169.973 219.974C169.985 219.974 169.996 219.963 170.007 219.951Z" fill="#1D3666"/>
<mask id="mask22_233_4601" style="mask-type:luminance" maskUnits="userSpaceOnUse" x="169" y="219" width="2" height="1">
<g opacity="0.5">
<path d="M170.042 219.951H169.973V219.985H170.042V219.951Z" fill="white"/>
</g>
</mask>
<g mask="url(#mask22_233_4601)">
<path d="M170.007 219.951C170.007 219.951 170.03 219.963 170.042 219.974C170.03 219.974 170.019 219.985 170.007 219.997C169.996 219.997 169.985 219.985 169.973 219.974C169.985 219.974 169.996 219.963 170.007 219.951Z" fill="#3080C3"/>
</g>
<mask id="mask23_233_4601" style="mask-type:luminance" maskUnits="userSpaceOnUse" x="169" y="219" width="2" height="1">
<g opacity="0.5">
<path d="M169.973 219.974C169.973 219.974 169.996 219.985 170.007 219.997C170.007 219.997 170.03 219.985 170.042 219.974C170.03 219.974 170.019 219.963 170.007 219.951C169.996 219.951 169.985 219.963 169.973 219.974Z" fill="white"/>
</g>
</mask>
<g mask="url(#mask23_233_4601)">
<path d="M170.042 219.951H169.973V219.985H170.042V219.951Z" fill="url(#paint7_linear_233_4601)"/>
</g>
<path d="M160.218 227.959C157.429 224.8 154.132 222.104 150.464 219.974C153.484 218.227 156.759 216.873 160.218 215.982C163.678 216.873 166.953 218.227 169.973 219.974C166.293 222.104 163.007 224.8 160.218 227.959Z" fill="#1D3666"/>
<mask id="mask24_233_4601" style="mask-type:luminance" maskUnits="userSpaceOnUse" x="150" y="215" width="20" height="13">
<g opacity="0.5">
<path d="M169.962 215.971H150.452V227.959H169.962V215.971Z" fill="white"/>
</g>
</mask>
<g mask="url(#mask24_233_4601)">
<path d="M160.218 227.959C157.429 224.8 154.132 222.104 150.464 219.974C153.484 218.227 156.759 216.873 160.218 215.982C163.678 216.873 166.953 218.227 169.973 219.974C166.293 222.104 163.007 224.8 160.218 227.959Z" fill="#3080C3"/>
</g>
<mask id="mask25_233_4601" style="mask-type:luminance" maskUnits="userSpaceOnUse" x="150" y="215" width="20" height="13">
<g opacity="0.5">
<path d="M150.452 219.974C154.131 222.092 157.418 224.8 160.207 227.959C162.995 224.8 166.293 222.103 169.962 219.974C166.942 218.227 163.667 216.873 160.207 215.971C156.747 216.873 153.472 218.227 150.441 219.974" fill="white"/>
</g>
</mask>
<g mask="url(#mask25_233_4601)">
<path d="M169.973 215.971H150.452V227.959H169.973V215.971Z" fill="url(#paint8_linear_233_4601)"/>
</g>
<path d="M160.253 227.993C160.253 227.993 160.23 227.97 160.219 227.959C163.007 224.8 166.305 222.104 169.973 219.975C169.985 219.975 169.996 219.986 170.007 219.998C166.328 222.127 163.042 224.834 160.253 227.993Z" fill="#1D3666"/>
<path d="M160.253 227.993C160.253 227.993 160.23 227.97 160.219 227.959C163.007 224.8 166.305 222.104 169.973 219.975C169.985 219.975 169.996 219.986 170.007 219.998C166.328 222.127 163.042 224.834 160.253 227.993Z" fill="#1D3666"/>
<mask id="mask26_233_4601" style="mask-type:luminance" maskUnits="userSpaceOnUse" x="160" y="219" width="11" height="9">
<g opacity="0.5">
<path d="M170.007 219.975H160.219V227.993H170.007V219.975Z" fill="white"/>
</g>
</mask>
<g mask="url(#mask26_233_4601)">
<path d="M160.253 227.993C160.253 227.993 160.23 227.97 160.219 227.959C163.007 224.8 166.305 222.104 169.973 219.975C169.985 219.975 169.996 219.986 170.007 219.998C166.328 222.127 163.042 224.834 160.253 227.993Z" fill="#3080C3"/>
</g>
<mask id="mask27_233_4601" style="mask-type:luminance" maskUnits="userSpaceOnUse" x="160" y="219" width="11" height="9">
<g opacity="0.5">
<path d="M160.219 227.959C160.219 227.959 160.241 227.982 160.253 227.993C163.042 224.823 166.34 222.127 170.007 219.998C169.996 219.998 169.985 219.986 169.973 219.975C166.293 222.092 163.007 224.8 160.219 227.959Z" fill="white"/>
</g>
</mask>
<g mask="url(#mask27_233_4601)">
<path d="M170.007 219.975H160.219V227.993H170.007V219.975Z" fill="url(#paint9_linear_233_4601)"/>
</g>
<path d="M130.817 253.889H111.272V278.107C122.068 278.107 130.817 269.359 130.817 258.563V253.889Z" fill="#3080C3"/>
<path d="M209.13 278.119V253.9H189.586V258.575C189.586 269.371 198.333 278.119 209.13 278.119Z" fill="#3080C3"/>
</g>
</g>
<g clip-path="url(#clip1_233_4601)">
<g opacity="0.5">
<path d="M1323.94 22.0801C1330.2 22.0801 1335.28 27.1821 1335.28 33.4749C1335.28 39.7678 1330.2 44.8698 1323.94 44.8698C1317.67 44.8698 1312.59 39.7678 1312.59 33.4749C1312.59 27.1821 1317.67 22.0801 1323.94 22.0801Z" fill="#065BAA"/>
<path d="M1226.34 21.9805C1232.61 21.9805 1237.69 27.0825 1237.69 33.3753C1237.69 39.6682 1232.61 44.7702 1226.34 44.7702C1220.08 44.7702 1215 39.6791 1215 33.3753C1215 27.0715 1220.08 21.9805 1226.34 21.9805Z" fill="#065BAA"/>
<path d="M1230.65 66.7628H1252.77C1252.77 66.7628 1252.62 64.2173 1253.65 60.6119C1256.31 51.3256 1264.81 44.5303 1274.9 44.5085C1263.68 44.4975 1253.46 40.2913 1245.66 33.3867C1236.46 41.5477 1230.64 53.467 1230.64 66.7736" fill="#3080C3"/>
<path d="M1275.86 22.2325C1275.56 22.2325 1275.25 22.2109 1274.95 22.2109V22.2541C1275.25 22.2541 1275.56 22.2541 1275.86 22.2325Z" fill="#1D3666"/>
<path d="M1304.26 33.3652C1296.66 40.106 1286.74 44.2685 1275.86 44.487C1285.61 44.8803 1293.73 51.5991 1296.28 60.6669C1297.28 64.2066 1297.19 66.7194 1297.19 66.7194H1319.26C1319.26 53.4346 1313.45 41.5153 1304.27 33.3652" fill="#3080C3"/>
<path d="M1253.65 6.15079C1252.62 2.54553 1252.77 0 1252.77 0H1230.65C1230.65 13.2958 1236.47 25.2259 1245.67 33.3869C1253.47 26.4823 1263.69 22.2761 1274.91 22.2653C1264.82 22.2434 1256.32 15.448 1253.67 6.16172" fill="#3080C3"/>
<mask id="mask28_233_4601" style="mask-type:luminance" maskUnits="userSpaceOnUse" x="1245" y="22" width="30" height="23">
<g opacity="0.5">
<path d="M1245.66 33.3767C1253.46 40.2923 1263.68 44.4875 1274.9 44.4985H1274.95V22.2441C1274.95 22.2441 1274.92 22.2441 1274.9 22.2441C1263.68 22.2551 1253.46 26.4613 1245.66 33.3658" fill="white"/>
</g>
</mask>
<g mask="url(#mask28_233_4601)">
<path d="M1271.35 12.5977L1238.39 24.9903L1249.26 54.1613L1282.22 41.7686L1271.35 12.5977Z" fill="url(#paint10_linear_233_4601)"/>
</g>
<path d="M1319.25 0H1297.55C1297.55 0 1297.26 2.50183 1296.27 6.05247C1293.72 15.1203 1285.6 21.8391 1275.85 22.2324C1286.74 22.4509 1296.65 26.6134 1304.25 33.3542C1313.45 25.2041 1319.25 13.2848 1319.25 0Z" fill="#3080C3"/>
<path d="M1274.95 44.508C1275.25 44.508 1275.56 44.4972 1275.86 44.4864C1275.56 44.4756 1275.25 44.4648 1274.95 44.4648V44.508Z" fill="#1D3666"/>
<path d="M1275.86 22.2324C1275.56 22.2434 1275.25 22.2543 1274.95 22.2543V44.4649C1275.25 44.4649 1275.56 44.4649 1275.86 44.4868C1286.75 44.2683 1296.66 40.1058 1304.26 33.365C1296.66 26.6243 1286.74 22.4619 1275.86 22.2434" fill="#1D3766"/>
<path d="M1274.95 50.2324C1265.86 50.2324 1258.49 57.6286 1258.49 66.762H1291.41C1291.41 57.6286 1284.04 50.2324 1274.95 50.2324Z" fill="#065BAA"/>
<path d="M1274.95 16.7034C1284.04 16.7034 1291.41 9.30716 1291.41 0.173828H1258.49C1258.49 9.30716 1265.86 16.7034 1274.95 16.7034Z" fill="#065BAA"/>
<path d="M1274.95 82.7131C1284.04 82.7131 1291.41 75.3169 1291.41 66.1836H1258.49C1258.49 75.3169 1265.86 82.7131 1274.95 82.7131Z" fill="#065BAA"/>
</g>
<mask id="mask29_233_4601" style="mask-type:luminance" maskUnits="userSpaceOnUse" x="1346" y="61" width="36" height="20">
<path d="M1346.37 61.0137C1347.2 71.9354 1356.35 80.5665 1367.51 80.5665C1372.96 80.5665 1377.93 78.5088 1381.69 75.129C1379.31 72.4195 1377.53 69.1701 1376.57 65.5946C1374.59 68.481 1371.26 70.3711 1367.51 70.3711C1362 70.3711 1357.42 66.293 1356.64 61.0137H1346.37Z" fill="white"/>
</mask>
<g mask="url(#mask29_233_4601)">
<path d="M1349.44 51.0762L1340.84 78.8685L1378.62 90.5079L1387.22 62.7155L1349.44 51.0762Z" fill="url(#paint11_linear_233_4601)"/>
</g>
<mask id="mask30_233_4601" style="mask-type:luminance" maskUnits="userSpaceOnUse" x="1346" y="3" width="75" height="78">
<path d="M1351.39 3.24023C1348.57 3.24023 1346.28 5.5214 1346.28 8.3426V40.5303H1356.63C1357.41 35.251 1361.98 31.1915 1367.46 31.1822C1373.53 31.1635 1378.48 36.2939 1378.48 42.3459V59.0589C1378.48 70.7627 1387.87 80.4925 1399.59 80.5392C1405.48 80.5671 1410.82 78.1928 1414.68 74.3287C1418.52 70.502 1420.9 65.2134 1420.9 59.3755V41.5638C1420.9 40.4558 1420.8 39.3571 1420.59 38.2677V38.2491C1418.69 28.5007 1410.09 21.1078 1399.76 21.1078C1394.31 21.1078 1389.33 23.1655 1385.57 26.5453C1387.95 29.2455 1389.74 32.495 1390.7 36.0797C1392.68 33.1933 1396 31.3033 1399.76 31.3033C1404.36 31.3033 1408.32 34.1337 1409.98 38.1374C1410.46 39.3106 1410.68 40.5768 1410.68 41.8525V59.1892C1410.68 65.2507 1405.83 70.3158 1399.76 70.353C1398.85 70.353 1397.98 70.2599 1397.14 70.055C1396.31 69.8595 1395.53 69.5709 1394.8 69.2078C1393.41 68.5188 1392.19 67.5504 1391.21 66.368C1389.64 64.4685 1388.7 62.0385 1388.7 59.3941V42.1597C1388.7 38.4074 1387.72 34.8786 1385.99 31.806C1385.97 31.7687 1385.95 31.7222 1385.92 31.6849C1382.26 25.307 1375.38 20.9961 1367.5 20.9961C1363.48 20.9961 1359.72 22.1227 1356.52 24.0594V13.4543H1380.86V3.25886H1351.4L1351.39 3.24023Z" fill="white"/>
</mask>
<g mask="url(#mask30_233_4601)">
<path d="M1352.78 -17.7383L1324.44 73.8412L1414.41 101.562L1442.75 9.98266L1352.78 -17.7383Z" fill="url(#paint12_linear_233_4601)"/>
</g>
<path d="M1399.76 62.858L1396.37 60.912V59.9902L1400.64 62.4483H1402.87V63.2676H1400.64L1396.37 65.7257V64.804L1399.76 62.858Z" fill="#CEBA8C"/>
<path d="M1396.37 54.3555H1397.17V58.1822H1399.17V54.6534H1399.95V58.1822H1402.08V54.3555H1402.87V59.0016H1396.37V54.3555Z" fill="#CEBA8C"/>
<path d="M1396.37 51.292V50.3051L1402.87 47.875V48.7595L1401.11 49.4019V52.1766L1402.87 52.8191V53.7036L1396.37 51.3014V51.292ZM1400.33 49.6813L1397.34 50.7799L1400.33 51.8879V49.6905V49.6813Z" fill="#CEBA8C"/>
<path d="M1396.37 46.851V44.1136C1396.37 43.3595 1396.54 42.7915 1396.87 42.4097C1397.21 42.0279 1397.68 41.8418 1398.27 41.8418C1398.64 41.8418 1398.96 41.9535 1399.24 42.1863C1399.52 42.4097 1399.72 42.7357 1399.86 43.1453C1399.96 42.7636 1400.09 42.4749 1400.27 42.298C1400.45 42.1211 1400.69 42.0279 1401 42.0279H1402.12C1402.52 42.0279 1402.77 42.0094 1402.88 41.9721V42.7822C1402.74 42.8287 1402.49 42.8474 1402.12 42.8474H1400.95C1400.7 42.8474 1400.5 42.9498 1400.37 43.1453C1400.24 43.3408 1400.18 43.6667 1400.18 44.1136V46.0317H1402.88V46.851H1396.38H1396.37ZM1398.27 42.689C1397.54 42.689 1397.16 43.164 1397.16 44.1136V46.0317H1399.38V44.1136C1399.38 43.164 1399 42.689 1398.26 42.689H1398.27Z" fill="#CEBA8C"/>
<path d="M1399.9 36.3108C1400.21 35.9943 1400.6 35.8359 1401.06 35.8359C1401.66 35.8359 1402.14 36.0501 1402.46 36.4877C1402.8 36.9253 1402.97 37.5491 1402.97 38.3686C1402.97 39.1879 1402.75 39.7652 1402.33 40.2214C1401.91 40.6776 1401.33 40.9103 1400.59 40.9103V40.0631C1401.08 40.0631 1401.48 39.9048 1401.76 39.5975C1402.04 39.2903 1402.17 38.862 1402.17 38.3127C1402.17 37.8005 1402.07 37.4095 1401.88 37.1208C1401.68 36.8322 1401.4 36.6925 1401.04 36.6925C1400.78 36.6925 1400.57 36.795 1400.39 36.9999C1400.22 37.2046 1400.11 37.4933 1400.07 37.8657L1399.92 39.011C1399.84 39.5696 1399.66 40.0072 1399.37 40.3238C1399.07 40.6404 1398.68 40.7894 1398.21 40.7894C1397.59 40.7894 1397.12 40.5845 1396.78 40.1841C1396.44 39.7838 1396.27 39.2158 1396.27 38.4895C1396.27 37.6888 1396.47 37.0557 1396.89 36.5995C1397.3 36.1432 1397.88 35.9105 1398.62 35.9105V36.7577C1398.12 36.7577 1397.74 36.9067 1397.47 37.1954C1397.2 37.484 1397.06 37.875 1397.06 38.3778C1397.06 38.8806 1397.16 39.2717 1397.36 39.5416C1397.56 39.821 1397.84 39.9607 1398.19 39.9607C1398.7 39.9607 1399.01 39.5975 1399.12 38.862L1399.31 37.6329C1399.39 37.0743 1399.59 36.646 1399.91 36.3201L1399.9 36.3108Z" fill="#CEBA8C"/>
</g>
<defs>
<linearGradient id="paint0_linear_233_4601" x1="-20.1259" y1="133.787" x2="57.0363" y2="225.673" gradientUnits="userSpaceOnUse">
<stop stop-color="#79653F"/>
<stop offset="0.41" stop-color="#79653F"/>
<stop offset="0.51" stop-color="#87734C"/>
<stop offset="0.71" stop-color="#AD996E"/>
<stop offset="0.98" stop-color="#EAD5A6"/>
<stop offset="1" stop-color="#F0DBAB"/>
</linearGradient>
<linearGradient id="paint1_linear_233_4601" x1="-18.2627" y1="132.184" x2="58.8995" y2="224.07" gradientUnits="userSpaceOnUse">
<stop stop-color="#79653F"/>
<stop offset="0.41" stop-color="#79653F"/>
<stop offset="0.51" stop-color="#87734C"/>
<stop offset="0.71" stop-color="#AD996E"/>
<stop offset="0.98" stop-color="#EAD5A6"/>
<stop offset="1" stop-color="#F0DBAB"/>
</linearGradient>
<linearGradient id="paint2_linear_233_4601" x1="166.515" y1="233.621" x2="162.722" y2="271.567" gradientUnits="userSpaceOnUse">
<stop stop-color="#7D6438"/>
<stop offset="0.21" stop-color="#7D6438"/>
<stop offset="0.35" stop-color="#8B7244"/>
<stop offset="0.6" stop-color="#B19766"/>
<stop offset="0.95" stop-color="#EED29D"/>
<stop offset="1" stop-color="#F7DBA5"/>
</linearGradient>
<linearGradient id="paint3_linear_233_4601" x1="161.362" y1="191.744" x2="160.013" y2="280.641" gradientUnits="userSpaceOnUse">
<stop stop-color="#7D6438"/>
<stop offset="0.21" stop-color="#7D6438"/>
<stop offset="0.35" stop-color="#8B7244"/>
<stop offset="0.6" stop-color="#B19766"/>
<stop offset="0.95" stop-color="#EED29D"/>
<stop offset="1" stop-color="#F7DBA5"/>
</linearGradient>
<linearGradient id="paint4_linear_233_4601" x1="168.799" y1="235.163" x2="147.379" y2="251.007" gradientUnits="userSpaceOnUse">
<stop stop-color="#7D6438"/>
<stop offset="0.21" stop-color="#7D6438"/>
<stop offset="0.35" stop-color="#8B7244"/>
<stop offset="0.6" stop-color="#B19766"/>
<stop offset="0.95" stop-color="#EED29D"/>
<stop offset="1" stop-color="#F7DBA5"/>
</linearGradient>
<linearGradient id="paint5_linear_233_4601" x1="160.535" y1="191.609" x2="159.185" y2="280.506" gradientUnits="userSpaceOnUse">
<stop stop-color="#7D6438"/>
<stop offset="0.21" stop-color="#7D6438"/>
<stop offset="0.35" stop-color="#8B7244"/>
<stop offset="0.6" stop-color="#B19766"/>
<stop offset="0.95" stop-color="#EED29D"/>
<stop offset="1" stop-color="#F7DBA5"/>
</linearGradient>
<linearGradient id="paint6_linear_233_4601" x1="165.291" y1="210.975" x2="165.291" y2="226.891" gradientUnits="userSpaceOnUse">
<stop stop-color="#7D6438"/>
<stop offset="0.24" stop-color="#7D6438"/>
<stop offset="0.34" stop-color="#8B7244"/>
<stop offset="0.55" stop-color="#B19766"/>
<stop offset="0.84" stop-color="#EED29D"/>
<stop offset="0.88" stop-color="#F7DBA5"/>
<stop offset="1" stop-color="#F7DBA5"/>
</linearGradient>
<linearGradient id="paint7_linear_233_4601" x1="170.144" y1="211.104" x2="170.144" y2="226.791" gradientUnits="userSpaceOnUse">
<stop stop-color="#7D6438"/>
<stop offset="0.24" stop-color="#7D6438"/>
<stop offset="0.34" stop-color="#8B7244"/>
<stop offset="0.55" stop-color="#B19766"/>
<stop offset="0.84" stop-color="#EED29D"/>
<stop offset="0.88" stop-color="#F7DBA5"/>
<stop offset="1" stop-color="#F7DBA5"/>
</linearGradient>
<linearGradient id="paint8_linear_233_4601" x1="160.435" y1="210.975" x2="160.435" y2="226.891" gradientUnits="userSpaceOnUse">
<stop stop-color="#7D6438"/>
<stop offset="0.24" stop-color="#7D6438"/>
<stop offset="0.34" stop-color="#8B7244"/>
<stop offset="0.55" stop-color="#B19766"/>
<stop offset="0.84" stop-color="#EED29D"/>
<stop offset="0.88" stop-color="#F7DBA5"/>
<stop offset="1" stop-color="#F7DBA5"/>
</linearGradient>
<linearGradient id="paint9_linear_233_4601" x1="165.291" y1="210.976" x2="165.291" y2="226.891" gradientUnits="userSpaceOnUse">
<stop stop-color="#7D6438"/>
<stop offset="0.24" stop-color="#7D6438"/>
<stop offset="0.34" stop-color="#8B7244"/>
<stop offset="0.55" stop-color="#B19766"/>
<stop offset="0.84" stop-color="#EED29D"/>
<stop offset="0.88" stop-color="#F7DBA5"/>
<stop offset="1" stop-color="#F7DBA5"/>
</linearGradient>
<linearGradient id="paint10_linear_233_4601" x1="1235.79" y1="44.7763" x2="1285.5" y2="26.2547" gradientUnits="userSpaceOnUse">
<stop stop-color="#79653F"/>
<stop offset="0.4" stop-color="#A69167"/>
<stop offset="1" stop-color="#F2DCAB"/>
</linearGradient>
<linearGradient id="paint11_linear_233_4601" x1="1261.93" y1="40.4802" x2="1392.69" y2="80.9455" gradientUnits="userSpaceOnUse">
<stop stop-color="#79653F"/>
<stop offset="0.21" stop-color="#79653F"/>
<stop offset="0.34" stop-color="#85714A"/>
<stop offset="0.58" stop-color="#A79268"/>
<stop offset="0.89" stop-color="#DEC899"/>
<stop offset="1" stop-color="#F2DCAB"/>
</linearGradient>
<linearGradient id="paint12_linear_233_4601" x1="1272.16" y1="7.40643" x2="1402.92" y2="47.8717" gradientUnits="userSpaceOnUse">
<stop stop-color="#79653F"/>
<stop offset="0.21" stop-color="#79653F"/>
<stop offset="0.34" stop-color="#85714A"/>
<stop offset="0.58" stop-color="#A79268"/>
<stop offset="0.89" stop-color="#DEC899"/>
<stop offset="1" stop-color="#F2DCAB"/>
</linearGradient>
<clipPath id="clip0_233_4601">
<rect width="210" height="106.04" fill="white" transform="translate(0 172.891)"/>
</clipPath>
<clipPath id="clip1_233_4601">
<rect width="210" height="82.82" fill="white" transform="translate(1215)"/>
</clipPath>
</defs>
</svg>
