<svg width="1425" height="321" viewBox="0 0 1425 321" fill="none" xmlns="http://www.w3.org/2000/svg">
<g clip-path="url(#clip0_201_3255)">
<g clip-path="url(#clip1_201_3255)">
<g opacity="0.5">
<path d="M48.835 236.987V222.748C21.9289 222.734 0.0997301 244.446 0.0144043 271.264H14.3065C14.3919 252.317 29.8215 236.987 48.835 236.987Z" fill="#065BAA"/>
<path d="M97.6554 271.42L83.3633 271.435C83.3633 290.438 67.8909 305.854 48.8347 305.854V320.092C59.7849 320.107 69.8961 316.519 78.0447 310.435C78.6703 309.967 79.2818 309.484 79.8934 308.988C81.1022 307.995 82.254 306.946 83.3633 305.84C83.9179 305.287 84.4583 304.719 84.9845 304.152C85.5106 303.571 86.0226 302.989 86.5204 302.379C87.018 301.784 87.5015 301.16 87.9708 300.536C88.1984 300.224 88.4402 299.912 88.6677 299.586C89.1228 298.947 89.5636 298.295 89.976 297.643C90.1893 297.316 90.3884 296.976 90.6017 296.65C91.6256 294.976 92.5358 293.232 93.3606 291.445C96.1337 285.333 97.6696 278.554 97.6696 271.406" fill="#3080C3"/>
<path d="M97.6555 257.593V250.445H76.2102C77.9026 252.629 79.3247 255.026 80.4623 257.593H97.6697H97.6555Z" fill="#065BAA"/>
<path d="M69.3698 243.737H97.6554V236.59H48.8347V236.987C56.5283 236.987 63.6388 239.497 69.3698 243.737Z" fill="#065BAA"/>
<path d="M97.6554 222.748H48.8347V229.896H97.6554V222.748Z" fill="#065BAA"/>
<path d="M48.8206 312.945H0V320.093H48.8206V312.945Z" fill="#3080C3"/>
<path d="M28.2286 299.047H0V306.195H48.8206V305.854C41.0986 305.854 33.9597 303.33 28.2144 299.047" fill="#3080C3"/>
<path d="M0 285.148V292.296H21.3742C19.696 290.098 18.2739 287.715 17.1647 285.148H0Z" fill="#3080C3"/>
<path d="M14.3063 271.42H0V278.412H15.0031C14.5339 276.157 14.2921 273.817 14.2921 271.42" fill="#3080C3"/>
<path d="M62.8851 271.42C62.8851 271.42 62.8851 271.42 62.8851 271.434H83.3348L62.8708 271.42H62.8851Z" fill="#3080C3"/>
<mask id="mask0_201_3255" style="mask-type:luminance" maskUnits="userSpaceOnUse" x="14" y="237" width="67" height="35">
<g opacity="0.5">
<path d="M14.3062 271.263H35.1114C34.0733 269.845 33.4618 268.115 33.4618 266.243V266.172C33.4618 261.45 37.3157 257.606 42.0513 257.606H48.8346H80.4621C79.3387 255.053 77.9024 252.657 76.21 250.459H48.8346V243.75H69.3697C63.6244 239.51 56.5282 237 48.8346 237C29.8212 237 14.3915 252.331 14.3062 271.278" fill="white"/>
</g>
</mask>
<g mask="url(#mask0_201_3255)">
<path d="M53.0084 204.484L-2.63208 251.209L41.7484 303.768L97.389 257.043L53.0084 204.484Z" fill="url(#paint0_linear_201_3255)"/>
</g>
<mask id="mask1_201_3255" style="mask-type:luminance" maskUnits="userSpaceOnUse" x="40" y="264" width="44" height="8">
<g opacity="0.5">
<path d="M71.0337 264.287V264.358H42.0514C41.0559 264.358 40.2454 265.166 40.2454 266.159V266.23C40.2454 267.223 41.0559 268.031 42.0514 268.031H56.0732C58.8606 268.031 61.3208 269.364 62.8994 271.421H83.3633C83.3633 268.981 83.1073 266.599 82.6238 264.287H71.048H71.0337Z" fill="white"/>
</g>
</mask>
<g mask="url(#mask1_201_3255)">
<path d="M65.4723 243.111L36.7219 267.255L58.129 292.607L86.8793 268.463L65.4723 243.111Z" fill="url(#paint1_linear_201_3255)"/>
</g>
<path d="M62.8992 271.434C63.9942 272.866 64.6484 274.653 64.6484 276.596C64.6484 281.318 60.7945 285.162 56.0589 285.162H36.8464H17.1504C18.2739 287.714 19.6817 290.111 21.3598 292.309H48.8062V299.06H28.2001C33.9454 303.329 41.0843 305.867 48.8062 305.867C67.8766 305.867 83.3206 290.466 83.3348 271.448H62.8851L62.8992 271.434Z" fill="#065BAA"/>
<path d="M36.8607 278.397H56.0732C57.0688 278.397 57.8793 277.589 57.8793 276.596C57.8793 275.603 57.0688 274.795 56.0732 274.795H42.0514C39.2783 274.795 36.8039 273.462 35.2396 271.42C35.1969 271.363 35.1542 271.32 35.1258 271.264H14.3206C14.3206 271.264 14.3206 271.363 14.3206 271.42C14.3206 273.816 14.5623 276.142 15.0315 278.411H36.875L36.8607 278.397Z" fill="#065BAA"/>
<path d="M71.0337 264.287H48.8347V264.358H71.0337V264.287Z" fill="#3080C3"/>
<path d="M42.0515 264.357H48.8349V264.286H82.6239C82.1261 261.96 81.4009 259.72 80.4624 257.578H48.8349H42.0515C37.3159 257.578 33.462 261.421 33.462 266.144V266.215C33.462 268.101 34.0736 269.831 35.1116 271.235C35.1543 271.292 35.1827 271.335 35.2254 271.391C36.7897 273.433 39.2642 274.767 42.0372 274.767H56.0591C57.0546 274.767 57.8652 275.575 57.8652 276.568C57.8652 277.56 57.0546 278.369 56.0591 278.369H48.8207H36.8466H15.0032C15.4867 280.723 16.212 282.978 17.1506 285.119H48.8207H56.0591C60.7947 285.119 64.6486 281.276 64.6486 276.553C64.6486 274.611 63.9944 272.824 62.8994 271.391C62.8994 271.391 62.8994 271.391 62.8994 271.377C61.3351 269.321 58.8606 268.002 56.0734 268.002H42.0515C41.056 268.002 40.2454 267.193 40.2454 266.201V266.13C40.2454 265.137 41.056 264.329 42.0515 264.329" fill="#1D3666"/>
<path d="M77.4331 292.295H21.374C23.3365 294.848 25.6261 297.131 28.2143 299.046H77.4189V292.295H77.4331Z" fill="#3080C3"/>
<path d="M19.2551 250.444H76.2101C74.2477 247.906 71.9581 245.651 69.3699 243.736H19.2551V250.444Z" fill="#065BAA"/>
</g>
<g opacity="0.5">
<path d="M187.538 260.885C187.261 260.747 186.982 260.619 186.705 260.48C186.982 260.608 187.261 260.747 187.538 260.885Z" fill="#1D3666"/>
<path d="M190.408 262.494C190.153 262.332 189.898 262.182 189.632 262.031C189.887 262.182 190.153 262.332 190.408 262.494Z" fill="#1D3666"/>
<path d="M186.045 260.181C185.756 260.053 185.467 259.926 185.166 259.799C185.455 259.926 185.756 260.042 186.045 260.181Z" fill="#1D3666"/>
<path d="M194.435 265.317C194.203 265.132 193.971 264.947 193.74 264.773C193.971 264.958 194.203 265.132 194.435 265.317Z" fill="#1D3666"/>
<path d="M193.139 264.323C192.895 264.15 192.665 263.976 192.421 263.803C192.665 263.976 192.907 264.15 193.139 264.323Z" fill="#1D3666"/>
<path d="M181.382 258.422C180.849 258.26 180.306 258.109 179.762 257.971C180.306 258.109 180.838 258.26 181.382 258.422Z" fill="#1D3666"/>
<path d="M195.696 266.372C195.476 266.175 195.245 265.978 195.013 265.793C195.245 265.978 195.464 266.175 195.696 266.372Z" fill="#1D3666"/>
<path d="M191.796 263.386C191.553 263.224 191.298 263.062 191.055 262.9C191.31 263.062 191.553 263.224 191.796 263.386Z" fill="#1D3666"/>
<path d="M201.678 272.92C206.365 279.377 209.118 287.303 209.118 295.889H189.934C201.644 295.762 208.552 282.443 201.678 272.92Z" fill="#065BAA"/>
<path d="M150.533 234.469C150.533 241.713 154.467 248.042 160.322 251.433C157.442 253.099 154.097 254.048 150.533 254.048C146.97 254.048 143.625 253.087 140.744 251.433C134.889 248.042 130.955 241.713 130.955 234.469C130.955 227.226 134.889 220.896 140.744 217.506C143.625 215.839 146.97 214.891 150.533 214.891C154.097 214.891 157.442 215.839 160.322 217.506C154.479 220.896 150.533 227.226 150.533 234.469Z" fill="#065BAA"/>
<path d="M129.45 262.807C129.207 262.957 128.965 263.119 128.722 263.269C128.965 263.108 129.207 262.957 129.45 262.807Z" fill="#1D3666"/>
<path d="M138.476 258.584C138.129 258.7 137.782 258.804 137.435 258.931C137.782 258.815 138.129 258.7 138.476 258.584Z" fill="#1D3666"/>
<path d="M135.26 259.775C134.97 259.891 134.681 260.018 134.403 260.146C134.692 260.018 134.982 259.903 135.26 259.775Z" fill="#1D3666"/>
<path d="M140.594 257.971C140.062 258.109 139.529 258.26 138.997 258.422C139.529 258.26 140.05 258.109 140.594 257.971Z" fill="#1D3666"/>
<path d="M132.274 261.176C132.008 261.315 131.753 261.453 131.487 261.592C131.742 261.453 132.008 261.315 132.274 261.176Z" fill="#1D3666"/>
<path d="M130.851 261.963C130.596 262.113 130.341 262.252 130.099 262.403C130.354 262.252 130.596 262.102 130.851 261.963Z" fill="#1D3666"/>
<path d="M133.744 260.447C133.465 260.575 133.199 260.702 132.922 260.841C133.188 260.702 133.465 260.575 133.744 260.447Z" fill="#1D3666"/>
<path d="M136.821 259.162C136.509 259.278 136.208 259.382 135.896 259.509C136.196 259.394 136.509 259.278 136.821 259.162Z" fill="#1D3666"/>
<path d="M150.394 261.974C147.374 260.227 144.088 258.861 140.617 257.97C143.741 257.172 147.015 256.732 150.406 256.732C153.797 256.732 157.059 257.161 160.196 257.97C156.724 258.861 153.438 260.227 150.406 261.974" fill="#1D3666"/>
<path d="M130.816 295.89H111.238C111.238 287.13 114.118 279.042 118.99 272.516C111.909 282.189 118.748 295.89 130.816 295.89Z" fill="#065BAA"/>
<path d="M160.311 251.433C166.166 248.042 170.1 241.713 170.1 234.469C170.1 227.226 166.166 220.896 160.311 217.506C163.204 215.839 166.536 214.891 170.111 214.891C173.688 214.891 177.02 215.839 179.901 217.506C185.756 220.896 189.69 227.226 189.69 234.469C189.69 241.713 185.756 248.042 179.901 251.433C177.02 253.099 173.676 254.048 170.111 254.048C166.548 254.048 163.204 253.099 160.322 251.433H160.311Z" fill="#065BAA"/>
<path d="M170.111 234.469C170.111 241.713 166.177 248.042 160.322 251.433C154.479 248.042 150.533 241.713 150.533 234.469C150.533 227.226 154.467 220.896 160.322 217.506C166.177 220.896 170.111 227.226 170.111 234.469Z" fill="#3080C3"/>
<path d="M160.253 257.97C160.253 257.97 160.23 257.97 160.218 257.97C160.218 257.97 160.196 257.97 160.184 257.97C163.308 257.172 166.594 256.732 169.973 256.732C173.352 256.732 176.626 257.161 179.762 257.97C176.302 258.861 173.027 260.215 170.007 261.963C166.987 260.215 163.712 258.861 160.253 257.97Z" fill="#1D3666"/>
<mask id="mask2_201_3255" style="mask-type:luminance" maskUnits="userSpaceOnUse" x="191" y="263" width="2" height="1">
<g opacity="0.5">
<path d="M192.421 263.385H191.796V263.813H192.421V263.385Z" fill="white"/>
</g>
</mask>
<g mask="url(#mask2_201_3255)">
<path d="M192.41 263.801C192.201 263.662 192.004 263.512 191.796 263.373C192.004 263.512 192.212 263.651 192.41 263.801Z" fill="#3080C3"/>
</g>
<mask id="mask3_201_3255" style="mask-type:luminance" maskUnits="userSpaceOnUse" x="181" y="258" width="1" height="1">
<g opacity="0.5">
<path d="M181.914 258.422H181.382V258.595H181.914V258.422Z" fill="white"/>
</g>
</mask>
<g mask="url(#mask3_201_3255)">
<path d="M181.914 258.595C181.74 258.538 181.555 258.48 181.382 258.422C181.567 258.48 181.74 258.538 181.914 258.595Z" fill="#3080C3"/>
</g>
<mask id="mask4_201_3255" style="mask-type:luminance" maskUnits="userSpaceOnUse" x="188" y="261" width="2" height="2">
<g opacity="0.5">
<path d="M189.644 261.662H188.996V262.032H189.644V261.662Z" fill="white"/>
</g>
</mask>
<g mask="url(#mask4_201_3255)">
<path d="M189.644 262.032C189.424 261.905 189.216 261.778 188.996 261.662C189.216 261.789 189.424 261.905 189.644 262.032Z" fill="#3080C3"/>
</g>
<mask id="mask5_201_3255" style="mask-type:luminance" maskUnits="userSpaceOnUse" x="190" y="262" width="2" height="1">
<g opacity="0.5">
<path d="M191.044 262.494H190.407V262.899H191.044V262.494Z" fill="white"/>
</g>
</mask>
<g mask="url(#mask5_201_3255)">
<path d="M191.044 262.888C190.836 262.749 190.628 262.621 190.407 262.494C190.615 262.621 190.836 262.76 191.044 262.888Z" fill="#3080C3"/>
</g>
<mask id="mask6_201_3255" style="mask-type:luminance" maskUnits="userSpaceOnUse" x="193" y="264" width="1" height="1">
<g opacity="0.5">
<path d="M193.728 264.322H193.127V264.774H193.728V264.322Z" fill="white"/>
</g>
</mask>
<g mask="url(#mask6_201_3255)">
<path d="M193.728 264.774C193.532 264.623 193.335 264.473 193.127 264.322C193.324 264.473 193.532 264.623 193.728 264.774Z" fill="#3080C3"/>
</g>
<mask id="mask7_201_3255" style="mask-type:luminance" maskUnits="userSpaceOnUse" x="194" y="265" width="2" height="1">
<g opacity="0.5">
<path d="M195.013 265.318H194.434V265.793H195.013V265.318Z" fill="white"/>
</g>
</mask>
<g mask="url(#mask7_201_3255)">
<path d="M195.013 265.793C194.816 265.631 194.631 265.48 194.434 265.318C194.631 265.469 194.828 265.631 195.013 265.793Z" fill="#3080C3"/>
</g>
<path d="M189.945 295.889H189.586H189.551C189.551 281.414 181.695 268.767 170.007 261.997C170.007 261.997 170.03 261.986 170.043 261.974C170.03 261.974 170.019 261.963 170.007 261.951C173.027 260.204 176.302 258.862 179.762 257.959C180.306 258.098 180.838 258.248 181.382 258.41C181.567 258.468 181.74 258.526 181.914 258.584C182.261 258.7 182.62 258.804 182.967 258.931C183.176 259 183.384 259.081 183.592 259.162C183.905 259.278 184.217 259.394 184.53 259.521C184.749 259.614 184.958 259.706 185.177 259.799C185.466 259.926 185.768 260.042 186.057 260.181C186.277 260.285 186.496 260.389 186.716 260.493C186.994 260.62 187.272 260.759 187.55 260.898C187.769 261.014 187.989 261.13 188.209 261.245C188.475 261.384 188.741 261.523 189.007 261.673C189.228 261.789 189.435 261.916 189.656 262.044C189.909 262.194 190.176 262.345 190.43 262.507C190.639 262.634 190.859 262.773 191.067 262.9C191.31 263.062 191.565 263.224 191.808 263.386C192.016 263.525 192.225 263.664 192.433 263.814C192.676 263.988 192.918 264.161 193.15 264.335C193.346 264.485 193.555 264.636 193.752 264.786C193.983 264.971 194.214 265.145 194.446 265.33C194.643 265.48 194.839 265.642 195.024 265.804C195.256 266.001 195.476 266.186 195.707 266.383C195.892 266.545 196.077 266.707 196.263 266.869C196.483 267.066 196.702 267.274 196.922 267.482C197.095 267.656 197.281 267.818 197.454 267.991C197.674 268.211 197.882 268.419 198.091 268.639C198.252 268.813 198.426 268.986 198.588 269.16C198.797 269.391 199.005 269.623 199.213 269.854C199.364 270.028 199.526 270.201 199.676 270.375C199.884 270.618 200.092 270.873 200.289 271.116C200.428 271.289 200.579 271.463 200.717 271.636C200.938 271.914 201.146 272.192 201.353 272.469C201.47 272.62 201.585 272.77 201.701 272.932C208.586 282.455 201.678 295.774 189.956 295.889" fill="#1D3666"/>
<path d="M189.945 295.889H189.586H189.551C189.551 281.414 181.695 268.767 170.007 261.997C170.007 261.997 170.03 261.986 170.043 261.974C170.03 261.974 170.019 261.963 170.007 261.951C173.027 260.204 176.302 258.862 179.762 257.959C180.306 258.098 180.838 258.248 181.382 258.41C181.567 258.468 181.74 258.526 181.914 258.584C182.261 258.7 182.62 258.804 182.967 258.931C183.176 259 183.384 259.081 183.592 259.162C183.905 259.278 184.217 259.394 184.53 259.521C184.749 259.614 184.958 259.706 185.177 259.799C185.466 259.926 185.768 260.042 186.057 260.181C186.277 260.285 186.496 260.389 186.716 260.493C186.994 260.62 187.272 260.759 187.55 260.898C187.769 261.014 187.989 261.13 188.209 261.245C188.475 261.384 188.741 261.523 189.007 261.673C189.228 261.789 189.435 261.916 189.656 262.044C189.909 262.194 190.176 262.345 190.43 262.507C190.639 262.634 190.859 262.773 191.067 262.9C191.31 263.062 191.565 263.224 191.808 263.386C192.016 263.525 192.225 263.664 192.433 263.814C192.676 263.988 192.918 264.161 193.15 264.335C193.346 264.485 193.555 264.636 193.752 264.786C193.983 264.971 194.214 265.145 194.446 265.33C194.643 265.48 194.839 265.642 195.024 265.804C195.256 266.001 195.476 266.186 195.707 266.383C195.892 266.545 196.077 266.707 196.263 266.869C196.483 267.066 196.702 267.274 196.922 267.482C197.095 267.656 197.281 267.818 197.454 267.991C197.674 268.211 197.882 268.419 198.091 268.639C198.252 268.813 198.426 268.986 198.588 269.16C198.797 269.391 199.005 269.623 199.213 269.854C199.364 270.028 199.526 270.201 199.676 270.375C199.884 270.618 200.092 270.873 200.289 271.116C200.428 271.289 200.579 271.463 200.717 271.636C200.938 271.914 201.146 272.192 201.353 272.469C201.47 272.62 201.585 272.77 201.701 272.932C208.586 282.455 201.678 295.774 189.956 295.889" fill="#3080C3"/>
<path d="M160.183 257.971C160.183 257.971 160.207 257.971 160.219 257.971C156.759 258.873 153.484 260.227 150.452 261.974C154.132 264.092 157.418 266.8 160.207 269.959C160.195 269.97 160.183 269.982 160.172 269.993C157.372 266.823 154.074 264.103 150.383 261.974C153.414 260.227 156.7 258.862 160.172 257.971H160.183Z" fill="#1D3666"/>
<mask id="mask8_201_3255" style="mask-type:luminance" maskUnits="userSpaceOnUse" x="150" y="257" width="11" height="13">
<g opacity="0.5">
<path d="M160.219 257.971H150.394V269.993H160.219V257.971Z" fill="white"/>
</g>
</mask>
<g mask="url(#mask8_201_3255)">
<path d="M160.183 257.971C160.183 257.971 160.207 257.971 160.219 257.971C156.759 258.873 153.484 260.227 150.452 261.974C154.132 264.092 157.418 266.8 160.207 269.959C160.195 269.97 160.183 269.982 160.172 269.993C157.372 266.823 154.074 264.103 150.383 261.974C153.414 260.227 156.7 258.862 160.172 257.971H160.183Z" fill="#3080C3"/>
</g>
<path d="M160.253 269.994C163.042 266.823 166.34 264.116 170.007 261.998C181.695 268.767 189.551 281.414 189.551 295.89H170.043C170.043 285.962 166.34 276.902 160.253 269.994C160.241 270.005 160.23 270.017 160.218 270.029C160.218 270.017 160.196 270.005 160.184 269.994C160.196 269.982 160.207 269.971 160.218 269.959C160.23 269.971 160.241 269.982 160.253 269.994Z" fill="#1D3666"/>
<path d="M160.253 269.994C163.042 266.823 166.34 264.116 170.007 261.998C181.695 268.767 189.551 281.414 189.551 295.89H170.043C170.043 285.962 166.34 276.902 160.253 269.994C160.241 270.005 160.23 270.017 160.218 270.029C160.218 270.017 160.196 270.005 160.184 269.994C160.196 269.982 160.207 269.971 160.218 269.959C160.23 269.971 160.241 269.982 160.253 269.994Z" fill="#065BAA"/>
<mask id="mask9_201_3255" style="mask-type:luminance" maskUnits="userSpaceOnUse" x="129" y="262" width="2" height="1">
<g opacity="0.5">
<path d="M130.087 262.402H129.45V262.807H130.087V262.402Z" fill="white"/>
</g>
</mask>
<g mask="url(#mask9_201_3255)">
<path d="M130.087 262.402C129.879 262.53 129.659 262.668 129.45 262.807C129.659 262.668 129.867 262.541 130.087 262.402Z" fill="#3080C3"/>
</g>
<mask id="mask10_201_3255" style="mask-type:luminance" maskUnits="userSpaceOnUse" x="135" y="259" width="1" height="1">
<g opacity="0.5">
<path d="M135.907 259.498H135.26V259.764H135.907V259.498Z" fill="white"/>
</g>
</mask>
<g mask="url(#mask10_201_3255)">
<path d="M135.907 259.498C135.688 259.591 135.479 259.683 135.26 259.764C135.468 259.672 135.688 259.579 135.907 259.498Z" fill="#3080C3"/>
</g>
<mask id="mask11_201_3255" style="mask-type:luminance" maskUnits="userSpaceOnUse" x="133" y="260" width="2" height="1">
<g opacity="0.5">
<path d="M134.392 260.135H133.743V260.447H134.392V260.135Z" fill="white"/>
</g>
</mask>
<g mask="url(#mask11_201_3255)">
<path d="M134.403 260.146C134.183 260.251 133.963 260.355 133.754 260.459C133.975 260.355 134.183 260.251 134.403 260.146Z" fill="#3080C3"/>
</g>
<mask id="mask12_201_3255" style="mask-type:luminance" maskUnits="userSpaceOnUse" x="132" y="260" width="1" height="2">
<g opacity="0.5">
<path d="M132.934 260.84H132.274V261.175H132.934V260.84Z" fill="white"/>
</g>
</mask>
<g mask="url(#mask12_201_3255)">
<path d="M132.933 260.84C132.714 260.956 132.493 261.071 132.285 261.175C132.506 261.06 132.714 260.944 132.933 260.84Z" fill="#3080C3"/>
</g>
<path d="M118.99 272.516C119.106 272.354 119.233 272.192 119.349 272.041C119.522 271.821 119.696 271.602 119.869 271.382C120.032 271.185 120.194 270.988 120.356 270.792C120.541 270.572 120.715 270.363 120.9 270.155C121.062 269.958 121.235 269.773 121.409 269.577C121.594 269.368 121.791 269.16 121.987 268.963C122.161 268.778 122.334 268.593 122.519 268.408C122.716 268.211 122.913 268.014 123.121 267.818C123.306 267.644 123.491 267.459 123.676 267.285C123.885 267.089 124.093 266.904 124.301 266.718C124.486 266.545 124.684 266.383 124.869 266.209C125.088 266.024 125.296 265.839 125.516 265.666C125.713 265.504 125.909 265.342 126.107 265.191C126.326 265.018 126.558 264.844 126.789 264.67C126.985 264.52 127.194 264.37 127.391 264.219C127.623 264.057 127.854 263.884 128.097 263.722C128.305 263.583 128.514 263.432 128.722 263.293C128.965 263.131 129.207 262.981 129.45 262.831C129.659 262.692 129.867 262.564 130.087 262.426C130.341 262.275 130.585 262.125 130.839 261.986C131.059 261.859 131.268 261.731 131.487 261.616C131.742 261.477 132.008 261.338 132.274 261.199C132.494 261.083 132.702 260.968 132.922 260.864C133.188 260.725 133.465 260.597 133.744 260.47C133.963 260.366 134.184 260.262 134.403 260.158C134.692 260.03 134.97 259.915 135.26 259.787C135.468 259.695 135.688 259.602 135.907 259.521C136.208 259.405 136.521 259.29 136.833 259.174C137.042 259.105 137.238 259.024 137.446 258.943C137.793 258.815 138.14 258.711 138.488 258.596C138.661 258.538 138.835 258.48 139.008 258.422C139.541 258.26 140.062 258.109 140.605 257.971H140.617C144.088 258.862 147.374 260.227 150.394 261.974C138.696 268.744 130.816 281.402 130.816 295.89C118.759 295.89 111.909 282.189 118.99 272.516Z" fill="#1D3666"/>
<path d="M118.99 272.516C119.106 272.354 119.233 272.192 119.349 272.041C119.522 271.821 119.696 271.602 119.869 271.382C120.032 271.185 120.194 270.988 120.356 270.792C120.541 270.572 120.715 270.363 120.9 270.155C121.062 269.958 121.235 269.773 121.409 269.577C121.594 269.368 121.791 269.16 121.987 268.963C122.161 268.778 122.334 268.593 122.519 268.408C122.716 268.211 122.913 268.014 123.121 267.818C123.306 267.644 123.491 267.459 123.676 267.285C123.885 267.089 124.093 266.904 124.301 266.718C124.486 266.545 124.684 266.383 124.869 266.209C125.088 266.024 125.296 265.839 125.516 265.666C125.713 265.504 125.909 265.342 126.107 265.191C126.326 265.018 126.558 264.844 126.789 264.67C126.985 264.52 127.194 264.37 127.391 264.219C127.623 264.057 127.854 263.884 128.097 263.722C128.305 263.583 128.514 263.432 128.722 263.293C128.965 263.131 129.207 262.981 129.45 262.831C129.659 262.692 129.867 262.564 130.087 262.426C130.341 262.275 130.585 262.125 130.839 261.986C131.059 261.859 131.268 261.731 131.487 261.616C131.742 261.477 132.008 261.338 132.274 261.199C132.494 261.083 132.702 260.968 132.922 260.864C133.188 260.725 133.465 260.597 133.744 260.47C133.963 260.366 134.184 260.262 134.403 260.158C134.692 260.03 134.97 259.915 135.26 259.787C135.468 259.695 135.688 259.602 135.907 259.521C136.208 259.405 136.521 259.29 136.833 259.174C137.042 259.105 137.238 259.024 137.446 258.943C137.793 258.815 138.14 258.711 138.488 258.596C138.661 258.538 138.835 258.48 139.008 258.422C139.541 258.26 140.062 258.109 140.605 257.971H140.617C144.088 258.862 147.374 260.227 150.394 261.974C138.696 268.744 130.816 281.402 130.816 295.89C118.759 295.89 111.909 282.189 118.99 272.516Z" fill="#3080C3"/>
<path d="M150.394 261.975C154.086 264.104 157.383 266.823 160.184 269.993C154.097 276.89 150.394 285.962 150.394 295.89H130.816C130.816 281.403 138.684 268.744 150.394 261.975Z" fill="#1D3666"/>
<path d="M150.394 261.975C154.086 264.104 157.383 266.823 160.184 269.993C154.097 276.89 150.394 285.962 150.394 295.89H130.816C130.816 281.403 138.684 268.744 150.394 261.975Z" fill="#065BAA"/>
<path d="M150.464 295.889H150.394C150.394 285.972 154.086 276.9 160.183 269.992C160.196 270.004 160.207 270.015 160.219 270.027C154.143 276.923 150.464 285.972 150.464 295.877" fill="#1D3666"/>
<path d="M150.464 295.889H150.394C150.394 285.972 154.086 276.9 160.183 269.992C160.196 270.004 160.207 270.015 160.219 270.027C154.143 276.923 150.464 285.972 150.464 295.877" fill="#1D3666"/>
<mask id="mask13_201_3255" style="mask-type:luminance" maskUnits="userSpaceOnUse" x="150" y="269" width="11" height="27">
<g opacity="0.5">
<path d="M160.207 269.992H150.394V295.889H160.207V269.992Z" fill="white"/>
</g>
</mask>
<g mask="url(#mask13_201_3255)">
<path d="M150.464 295.889H150.394C150.394 285.972 154.086 276.9 160.183 269.992C160.196 270.004 160.207 270.015 160.219 270.027C154.143 276.923 150.464 285.972 150.464 295.877" fill="#3080C3"/>
<path d="M150.464 295.889H150.394C150.394 285.972 154.086 276.9 160.183 269.992C160.196 270.004 160.207 270.015 160.219 270.027C154.143 276.923 150.464 285.972 150.464 295.877" fill="#3080C3"/>
</g>
<path d="M189.575 295.889V300.563C189.575 311.359 198.322 320.107 209.118 320.107H194.249C180.873 320.107 170.031 309.265 170.031 295.889H189.575Z" fill="#065BAA"/>
<path d="M130.817 300.575V295.9H150.36C150.36 309.277 139.518 320.119 126.141 320.119H111.272C122.068 320.119 130.817 311.371 130.817 300.575Z" fill="#065BAA"/>
<mask id="mask14_201_3255" style="mask-type:luminance" maskUnits="userSpaceOnUse" x="150" y="295" width="21" height="1">
<g opacity="0.5">
<path d="M150.464 295.9H170.03V295.889L150.464 295.9Z" fill="white"/>
</g>
</mask>
<g mask="url(#mask14_201_3255)">
<path d="M150.652 293.947L150.458 295.893L169.835 297.831L170.029 295.885L150.652 293.947Z" fill="url(#paint2_linear_201_3255)"/>
</g>
<mask id="mask15_201_3255" style="mask-type:luminance" maskUnits="userSpaceOnUse" x="150" y="295" width="21" height="26">
<g opacity="0.5">
<path d="M150.464 295.9C150.464 305.181 154.156 313.662 160.253 320.119C166.34 313.662 170.043 305.192 170.043 295.9H170.03H150.464Z" fill="white"/>
</g>
</mask>
<g mask="url(#mask15_201_3255)">
<path d="M150.459 295.607L150.086 320.113L170.022 320.415L170.394 295.91L150.459 295.607Z" fill="url(#paint3_linear_201_3255)"/>
</g>
<path d="M160.241 269.992C166.328 276.889 170.03 285.961 170.03 295.889H169.962C169.962 285.984 166.27 276.935 160.207 270.039C160.207 270.027 160.23 270.015 160.241 270.004" fill="#1D3666"/>
<path d="M160.241 269.992C166.328 276.889 170.03 285.961 170.03 295.889H169.962C169.962 285.984 166.27 276.935 160.207 270.039C160.207 270.027 160.23 270.015 160.241 270.004" fill="#1D3666"/>
<mask id="mask16_201_3255" style="mask-type:luminance" maskUnits="userSpaceOnUse" x="160" y="269" width="11" height="27">
<g opacity="0.5">
<path d="M170.043 269.992H160.219V295.889H170.043V269.992Z" fill="white"/>
</g>
</mask>
<g mask="url(#mask16_201_3255)">
<path d="M160.242 269.992C166.328 276.889 170.031 285.961 170.031 295.889H169.962C169.962 285.984 166.271 276.935 160.207 270.039C160.207 270.027 160.23 270.015 160.242 270.004" fill="#3080C3"/>
</g>
<mask id="mask17_201_3255" style="mask-type:luminance" maskUnits="userSpaceOnUse" x="160" y="269" width="11" height="27">
<g opacity="0.5">
<path d="M160.218 270.027C166.293 276.923 169.973 285.972 169.973 295.877H170.03C170.03 285.949 166.328 276.888 160.241 269.98C160.241 269.992 160.218 270.004 160.207 270.015" fill="white"/>
</g>
</mask>
<g mask="url(#mask17_201_3255)">
<path d="M166.56 265.297L147.834 279.149L163.688 300.582L182.414 286.73L166.56 265.297Z" fill="url(#paint4_linear_201_3255)"/>
</g>
<path d="M169.973 295.889H150.464C150.464 285.984 154.143 276.936 160.218 270.039C166.293 276.936 169.973 285.984 169.973 295.889Z" fill="#1D3666"/>
<path d="M169.973 295.889H150.464C150.464 285.984 154.143 276.936 160.218 270.039C166.293 276.936 169.973 285.984 169.973 295.889Z" fill="#1D3666"/>
<mask id="mask18_201_3255" style="mask-type:luminance" maskUnits="userSpaceOnUse" x="150" y="270" width="20" height="26">
<g opacity="0.5">
<path d="M169.973 270.027H150.464V295.877H169.973V270.027Z" fill="white"/>
</g>
</mask>
<g mask="url(#mask18_201_3255)">
<path d="M169.973 295.889H150.464C150.464 285.984 154.144 276.936 160.218 270.039C166.293 276.936 169.973 285.984 169.973 295.889Z" fill="#3080C3"/>
<path d="M169.973 295.889H150.464C150.464 285.984 154.144 276.936 160.218 270.039C166.293 276.936 169.973 285.984 169.973 295.889Z" fill="#3080C3"/>
</g>
<mask id="mask19_201_3255" style="mask-type:luminance" maskUnits="userSpaceOnUse" x="150" y="270" width="20" height="26">
<g opacity="0.5">
<path d="M150.464 295.889H169.973C169.973 285.984 166.281 276.936 160.218 270.039C154.143 276.936 150.464 285.984 150.464 295.889Z" fill="white"/>
</g>
</mask>
<g mask="url(#mask19_201_3255)">
<path d="M150.462 269.725L150.065 295.873L169.966 296.175L170.362 270.027L150.462 269.725Z" fill="url(#paint5_linear_201_3255)"/>
</g>
<mask id="mask20_201_3255" style="mask-type:luminance" maskUnits="userSpaceOnUse" x="160" y="257" width="11" height="5">
<g opacity="0.5">
<path d="M170.007 257.971H160.219V261.974H170.007V257.971Z" fill="white"/>
</g>
</mask>
<g mask="url(#mask20_201_3255)">
<path d="M160.219 257.971C160.219 257.971 160.241 257.971 160.253 257.971C163.713 258.862 166.987 260.216 170.007 261.963C170.007 261.963 169.985 261.974 169.973 261.986C166.953 260.239 163.678 258.885 160.219 257.982" fill="#3080C3"/>
</g>
<mask id="mask21_201_3255" style="mask-type:luminance" maskUnits="userSpaceOnUse" x="160" y="257" width="11" height="5">
<g opacity="0.5">
<path d="M160.253 257.971C160.253 257.971 160.23 257.971 160.219 257.971C163.678 258.873 166.953 260.227 169.973 261.974C169.985 261.974 169.996 261.963 170.007 261.951C166.987 260.204 163.713 258.862 160.253 257.959V257.971Z" fill="white"/>
</g>
</mask>
<g mask="url(#mask21_201_3255)">
<path d="M170.007 257.971H160.219V261.974H170.007V257.971Z" fill="url(#paint6_linear_201_3255)"/>
</g>
<path d="M170.007 261.951C170.007 261.951 170.03 261.963 170.042 261.974C170.03 261.974 170.019 261.985 170.007 261.997C169.996 261.997 169.985 261.985 169.973 261.974C169.985 261.974 169.996 261.963 170.007 261.951Z" fill="#1D3666"/>
<mask id="mask22_201_3255" style="mask-type:luminance" maskUnits="userSpaceOnUse" x="169" y="261" width="2" height="1">
<g opacity="0.5">
<path d="M170.042 261.951H169.973V261.985H170.042V261.951Z" fill="white"/>
</g>
</mask>
<g mask="url(#mask22_201_3255)">
<path d="M170.007 261.951C170.007 261.951 170.03 261.963 170.042 261.974C170.03 261.974 170.019 261.985 170.007 261.997C169.996 261.997 169.985 261.985 169.973 261.974C169.985 261.974 169.996 261.963 170.007 261.951Z" fill="#3080C3"/>
</g>
<mask id="mask23_201_3255" style="mask-type:luminance" maskUnits="userSpaceOnUse" x="169" y="261" width="2" height="1">
<g opacity="0.5">
<path d="M169.973 261.974C169.973 261.974 169.996 261.985 170.007 261.997C170.007 261.997 170.03 261.985 170.042 261.974C170.03 261.974 170.019 261.963 170.007 261.951C169.996 261.951 169.985 261.963 169.973 261.974Z" fill="white"/>
</g>
</mask>
<g mask="url(#mask23_201_3255)">
<path d="M170.042 261.951H169.973V261.985H170.042V261.951Z" fill="url(#paint7_linear_201_3255)"/>
</g>
<path d="M160.218 269.959C157.429 266.8 154.132 264.104 150.464 261.974C153.484 260.227 156.759 258.873 160.218 257.982C163.678 258.873 166.953 260.227 169.973 261.974C166.293 264.104 163.007 266.8 160.218 269.959Z" fill="#1D3666"/>
<mask id="mask24_201_3255" style="mask-type:luminance" maskUnits="userSpaceOnUse" x="150" y="257" width="20" height="13">
<g opacity="0.5">
<path d="M169.962 257.971H150.452V269.959H169.962V257.971Z" fill="white"/>
</g>
</mask>
<g mask="url(#mask24_201_3255)">
<path d="M160.218 269.959C157.429 266.8 154.132 264.104 150.464 261.974C153.484 260.227 156.759 258.873 160.218 257.982C163.678 258.873 166.953 260.227 169.973 261.974C166.293 264.104 163.007 266.8 160.218 269.959Z" fill="#3080C3"/>
</g>
<mask id="mask25_201_3255" style="mask-type:luminance" maskUnits="userSpaceOnUse" x="150" y="257" width="20" height="13">
<g opacity="0.5">
<path d="M150.452 261.974C154.131 264.092 157.418 266.8 160.207 269.959C162.995 266.8 166.293 264.103 169.962 261.974C166.942 260.227 163.667 258.873 160.207 257.971C156.747 258.873 153.472 260.227 150.441 261.974" fill="white"/>
</g>
</mask>
<g mask="url(#mask25_201_3255)">
<path d="M169.973 257.971H150.452V269.959H169.973V257.971Z" fill="url(#paint8_linear_201_3255)"/>
</g>
<path d="M160.253 269.993C160.253 269.993 160.23 269.97 160.219 269.959C163.007 266.8 166.305 264.104 169.973 261.975C169.985 261.975 169.996 261.986 170.007 261.998C166.328 264.127 163.042 266.834 160.253 269.993Z" fill="#1D3666"/>
<path d="M160.253 269.993C160.253 269.993 160.23 269.97 160.219 269.959C163.007 266.8 166.305 264.104 169.973 261.975C169.985 261.975 169.996 261.986 170.007 261.998C166.328 264.127 163.042 266.834 160.253 269.993Z" fill="#1D3666"/>
<mask id="mask26_201_3255" style="mask-type:luminance" maskUnits="userSpaceOnUse" x="160" y="261" width="11" height="9">
<g opacity="0.5">
<path d="M170.007 261.975H160.219V269.993H170.007V261.975Z" fill="white"/>
</g>
</mask>
<g mask="url(#mask26_201_3255)">
<path d="M160.253 269.993C160.253 269.993 160.23 269.97 160.219 269.959C163.007 266.8 166.305 264.104 169.973 261.975C169.985 261.975 169.996 261.986 170.007 261.998C166.328 264.127 163.042 266.834 160.253 269.993Z" fill="#3080C3"/>
</g>
<mask id="mask27_201_3255" style="mask-type:luminance" maskUnits="userSpaceOnUse" x="160" y="261" width="11" height="9">
<g opacity="0.5">
<path d="M160.219 269.959C160.219 269.959 160.241 269.982 160.253 269.993C163.042 266.823 166.34 264.127 170.007 261.998C169.996 261.998 169.985 261.986 169.973 261.975C166.293 264.092 163.007 266.8 160.219 269.959Z" fill="white"/>
</g>
</mask>
<g mask="url(#mask27_201_3255)">
<path d="M170.007 261.975H160.219V269.993H170.007V261.975Z" fill="url(#paint9_linear_201_3255)"/>
</g>
<path d="M130.817 295.889H111.272V320.107C122.068 320.107 130.817 311.359 130.817 300.563V295.889Z" fill="#3080C3"/>
<path d="M209.13 320.119V295.9H189.586V300.575C189.586 311.371 198.333 320.119 209.13 320.119Z" fill="#3080C3"/>
</g>
</g>
<g clip-path="url(#clip2_201_3255)">
<g opacity="0.5">
<path d="M1323.94 22.0801C1330.2 22.0801 1335.28 27.1821 1335.28 33.4749C1335.28 39.7678 1330.2 44.8698 1323.94 44.8698C1317.67 44.8698 1312.59 39.7678 1312.59 33.4749C1312.59 27.1821 1317.67 22.0801 1323.94 22.0801Z" fill="#065BAA"/>
<path d="M1226.34 21.9805C1232.61 21.9805 1237.69 27.0825 1237.69 33.3753C1237.69 39.6682 1232.61 44.7702 1226.34 44.7702C1220.08 44.7702 1215 39.6791 1215 33.3753C1215 27.0715 1220.08 21.9805 1226.34 21.9805Z" fill="#065BAA"/>
<path d="M1230.65 66.7628H1252.77C1252.77 66.7628 1252.62 64.2173 1253.65 60.6119C1256.31 51.3256 1264.81 44.5303 1274.9 44.5085C1263.68 44.4975 1253.46 40.2913 1245.66 33.3867C1236.46 41.5477 1230.64 53.467 1230.64 66.7736" fill="#3080C3"/>
<path d="M1275.86 22.2325C1275.56 22.2325 1275.25 22.2109 1274.95 22.2109V22.2541C1275.25 22.2541 1275.56 22.2541 1275.86 22.2325Z" fill="#1D3666"/>
<path d="M1304.26 33.3652C1296.66 40.106 1286.74 44.2685 1275.86 44.487C1285.61 44.8803 1293.73 51.5991 1296.28 60.6669C1297.28 64.2066 1297.19 66.7194 1297.19 66.7194H1319.26C1319.26 53.4346 1313.45 41.5153 1304.27 33.3652" fill="#3080C3"/>
<path d="M1253.65 6.15079C1252.62 2.54553 1252.77 0 1252.77 0H1230.65C1230.65 13.2958 1236.47 25.2259 1245.67 33.3869C1253.47 26.4823 1263.69 22.2761 1274.91 22.2653C1264.82 22.2434 1256.32 15.448 1253.67 6.16172" fill="#3080C3"/>
<mask id="mask28_201_3255" style="mask-type:luminance" maskUnits="userSpaceOnUse" x="1245" y="22" width="30" height="23">
<g opacity="0.5">
<path d="M1245.66 33.3767C1253.46 40.2923 1263.68 44.4875 1274.9 44.4985H1274.95V22.2441C1274.95 22.2441 1274.92 22.2441 1274.9 22.2441C1263.68 22.2551 1253.46 26.4613 1245.66 33.3658" fill="white"/>
</g>
</mask>
<g mask="url(#mask28_201_3255)">
<path d="M1271.35 12.5977L1238.39 24.9903L1249.26 54.1613L1282.22 41.7686L1271.35 12.5977Z" fill="url(#paint10_linear_201_3255)"/>
</g>
<path d="M1319.25 0H1297.55C1297.55 0 1297.26 2.50183 1296.27 6.05247C1293.72 15.1203 1285.6 21.8391 1275.85 22.2324C1286.74 22.4509 1296.65 26.6134 1304.25 33.3542C1313.45 25.2041 1319.25 13.2848 1319.25 0Z" fill="#3080C3"/>
<path d="M1274.95 44.508C1275.25 44.508 1275.56 44.4972 1275.86 44.4864C1275.56 44.4756 1275.25 44.4648 1274.95 44.4648V44.508Z" fill="#1D3666"/>
<path d="M1275.86 22.2324C1275.56 22.2434 1275.25 22.2543 1274.95 22.2543V44.4649C1275.25 44.4649 1275.56 44.4649 1275.86 44.4868C1286.75 44.2683 1296.66 40.1058 1304.26 33.365C1296.66 26.6243 1286.74 22.4619 1275.86 22.2434" fill="#1D3766"/>
<path d="M1274.95 50.2324C1265.86 50.2324 1258.49 57.6286 1258.49 66.762H1291.41C1291.41 57.6286 1284.04 50.2324 1274.95 50.2324Z" fill="#065BAA"/>
<path d="M1274.95 16.7034C1284.04 16.7034 1291.41 9.30716 1291.41 0.173828H1258.49C1258.49 9.30716 1265.86 16.7034 1274.95 16.7034Z" fill="#065BAA"/>
<path d="M1274.95 82.7131C1284.04 82.7131 1291.41 75.3169 1291.41 66.1836H1258.49C1258.49 75.3169 1265.86 82.7131 1274.95 82.7131Z" fill="#065BAA"/>
</g>
<mask id="mask29_201_3255" style="mask-type:luminance" maskUnits="userSpaceOnUse" x="1346" y="61" width="36" height="20">
<path d="M1346.37 61.0137C1347.2 71.9354 1356.35 80.5665 1367.51 80.5665C1372.96 80.5665 1377.93 78.5088 1381.69 75.129C1379.31 72.4195 1377.53 69.1701 1376.57 65.5946C1374.59 68.481 1371.26 70.3711 1367.51 70.3711C1361.99 70.3711 1357.42 66.293 1356.64 61.0137H1346.37Z" fill="white"/>
</mask>
<g mask="url(#mask29_201_3255)">
<path d="M1349.44 51.0762L1340.84 78.8685L1378.62 90.5079L1387.22 62.7155L1349.44 51.0762Z" fill="url(#paint11_linear_201_3255)"/>
</g>
<mask id="mask30_201_3255" style="mask-type:luminance" maskUnits="userSpaceOnUse" x="1346" y="3" width="75" height="78">
<path d="M1351.39 3.24023C1348.57 3.24023 1346.28 5.5214 1346.28 8.3426V40.5303H1356.63C1357.41 35.251 1361.98 31.1915 1367.46 31.1822C1373.53 31.1635 1378.48 36.2939 1378.48 42.3459V59.0589C1378.48 70.7627 1387.87 80.4925 1399.59 80.5392C1405.48 80.5671 1410.82 78.1928 1414.68 74.3287C1418.52 70.502 1420.9 65.2134 1420.9 59.3755V41.5638C1420.9 40.4558 1420.8 39.3571 1420.59 38.2677V38.2491C1418.69 28.5007 1410.09 21.1078 1399.76 21.1078C1394.31 21.1078 1389.33 23.1655 1385.57 26.5453C1387.95 29.2455 1389.74 32.495 1390.7 36.0797C1392.68 33.1933 1396 31.3033 1399.76 31.3033C1404.36 31.3033 1408.32 34.1337 1409.98 38.1374C1410.46 39.3106 1410.68 40.5768 1410.68 41.8525V59.1892C1410.68 65.2507 1405.83 70.3158 1399.76 70.353C1398.85 70.353 1397.98 70.2599 1397.14 70.055C1396.31 69.8595 1395.53 69.5709 1394.8 69.2078C1393.41 68.5188 1392.19 67.5504 1391.21 66.368C1389.64 64.4685 1388.7 62.0385 1388.7 59.3941V42.1597C1388.7 38.4074 1387.72 34.8786 1385.99 31.806C1385.97 31.7687 1385.95 31.7222 1385.92 31.6849C1382.26 25.307 1375.38 20.9961 1367.5 20.9961C1363.48 20.9961 1359.72 22.1227 1356.52 24.0594V13.4543H1380.86V3.25886H1351.4L1351.39 3.24023Z" fill="white"/>
</mask>
<g mask="url(#mask30_201_3255)">
<path d="M1352.78 -17.7383L1324.44 73.8412L1414.41 101.562L1442.75 9.98266L1352.78 -17.7383Z" fill="url(#paint12_linear_201_3255)"/>
</g>
<path d="M1399.76 62.858L1396.37 60.912V59.9902L1400.64 62.4483H1402.87V63.2676H1400.64L1396.37 65.7257V64.804L1399.76 62.858Z" fill="#CEBA8C"/>
<path d="M1396.37 54.3555H1397.17V58.1822H1399.17V54.6534H1399.95V58.1822H1402.08V54.3555H1402.87V59.0016H1396.37V54.3555Z" fill="#CEBA8C"/>
<path d="M1396.37 51.292V50.3051L1402.87 47.875V48.7595L1401.11 49.4019V52.1766L1402.87 52.8191V53.7036L1396.37 51.3014V51.292ZM1400.33 49.6813L1397.34 50.7799L1400.33 51.8879V49.6905V49.6813Z" fill="#CEBA8C"/>
<path d="M1396.37 46.851V44.1136C1396.37 43.3595 1396.54 42.7915 1396.87 42.4097C1397.21 42.0279 1397.68 41.8418 1398.27 41.8418C1398.64 41.8418 1398.97 41.9535 1399.24 42.1863C1399.52 42.4097 1399.72 42.7357 1399.86 43.1453C1399.96 42.7636 1400.09 42.4749 1400.27 42.298C1400.45 42.1211 1400.69 42.0279 1401 42.0279H1402.12C1402.52 42.0279 1402.77 42.0094 1402.88 41.9721V42.7822C1402.74 42.8287 1402.49 42.8474 1402.12 42.8474H1400.95C1400.7 42.8474 1400.5 42.9498 1400.37 43.1453C1400.24 43.3408 1400.18 43.6667 1400.18 44.1136V46.0317H1402.88V46.851H1396.38H1396.37ZM1398.27 42.689C1397.54 42.689 1397.16 43.164 1397.16 44.1136V46.0317H1399.38V44.1136C1399.38 43.164 1399 42.689 1398.27 42.689H1398.27Z" fill="#CEBA8C"/>
<path d="M1399.9 36.3108C1400.21 35.9943 1400.6 35.8359 1401.06 35.8359C1401.66 35.8359 1402.14 36.0501 1402.46 36.4877C1402.8 36.9253 1402.97 37.5491 1402.97 38.3686C1402.97 39.1879 1402.75 39.7652 1402.33 40.2214C1401.91 40.6776 1401.33 40.9103 1400.59 40.9103V40.0631C1401.08 40.0631 1401.48 39.9048 1401.76 39.5975C1402.04 39.2903 1402.17 38.862 1402.17 38.3127C1402.17 37.8005 1402.07 37.4095 1401.88 37.1208C1401.68 36.8322 1401.4 36.6925 1401.04 36.6925C1400.78 36.6925 1400.57 36.795 1400.39 36.9999C1400.22 37.2046 1400.11 37.4933 1400.07 37.8657L1399.92 39.011C1399.84 39.5696 1399.67 40.0072 1399.37 40.3238C1399.07 40.6404 1398.69 40.7894 1398.21 40.7894C1397.59 40.7894 1397.12 40.5845 1396.78 40.1841C1396.45 39.7838 1396.27 39.2158 1396.27 38.4895C1396.27 37.6888 1396.47 37.0557 1396.89 36.5995C1397.3 36.1432 1397.88 35.9105 1398.62 35.9105V36.7577C1398.13 36.7577 1397.74 36.9067 1397.47 37.1954C1397.2 37.484 1397.06 37.875 1397.06 38.3778C1397.06 38.8806 1397.16 39.2717 1397.36 39.5416C1397.56 39.821 1397.84 39.9607 1398.19 39.9607C1398.7 39.9607 1399.01 39.5975 1399.12 38.862L1399.31 37.6329C1399.39 37.0743 1399.59 36.646 1399.91 36.3201L1399.9 36.3108Z" fill="#CEBA8C"/>
</g>
</g>
<defs>
<linearGradient id="paint0_linear_201_3255" x1="-20.1259" y1="175.787" x2="57.0363" y2="267.673" gradientUnits="userSpaceOnUse">
<stop stop-color="#79653F"/>
<stop offset="0.41" stop-color="#79653F"/>
<stop offset="0.51" stop-color="#87734C"/>
<stop offset="0.71" stop-color="#AD996E"/>
<stop offset="0.98" stop-color="#EAD5A6"/>
<stop offset="1" stop-color="#F0DBAB"/>
</linearGradient>
<linearGradient id="paint1_linear_201_3255" x1="-18.2627" y1="174.184" x2="58.8995" y2="266.07" gradientUnits="userSpaceOnUse">
<stop stop-color="#79653F"/>
<stop offset="0.41" stop-color="#79653F"/>
<stop offset="0.51" stop-color="#87734C"/>
<stop offset="0.71" stop-color="#AD996E"/>
<stop offset="0.98" stop-color="#EAD5A6"/>
<stop offset="1" stop-color="#F0DBAB"/>
</linearGradient>
<linearGradient id="paint2_linear_201_3255" x1="166.515" y1="275.621" x2="162.722" y2="313.567" gradientUnits="userSpaceOnUse">
<stop stop-color="#7D6438"/>
<stop offset="0.21" stop-color="#7D6438"/>
<stop offset="0.35" stop-color="#8B7244"/>
<stop offset="0.6" stop-color="#B19766"/>
<stop offset="0.95" stop-color="#EED29D"/>
<stop offset="1" stop-color="#F7DBA5"/>
</linearGradient>
<linearGradient id="paint3_linear_201_3255" x1="161.362" y1="233.744" x2="160.013" y2="322.641" gradientUnits="userSpaceOnUse">
<stop stop-color="#7D6438"/>
<stop offset="0.21" stop-color="#7D6438"/>
<stop offset="0.35" stop-color="#8B7244"/>
<stop offset="0.6" stop-color="#B19766"/>
<stop offset="0.95" stop-color="#EED29D"/>
<stop offset="1" stop-color="#F7DBA5"/>
</linearGradient>
<linearGradient id="paint4_linear_201_3255" x1="168.799" y1="277.163" x2="147.379" y2="293.007" gradientUnits="userSpaceOnUse">
<stop stop-color="#7D6438"/>
<stop offset="0.21" stop-color="#7D6438"/>
<stop offset="0.35" stop-color="#8B7244"/>
<stop offset="0.6" stop-color="#B19766"/>
<stop offset="0.95" stop-color="#EED29D"/>
<stop offset="1" stop-color="#F7DBA5"/>
</linearGradient>
<linearGradient id="paint5_linear_201_3255" x1="160.535" y1="233.609" x2="159.185" y2="322.506" gradientUnits="userSpaceOnUse">
<stop stop-color="#7D6438"/>
<stop offset="0.21" stop-color="#7D6438"/>
<stop offset="0.35" stop-color="#8B7244"/>
<stop offset="0.6" stop-color="#B19766"/>
<stop offset="0.95" stop-color="#EED29D"/>
<stop offset="1" stop-color="#F7DBA5"/>
</linearGradient>
<linearGradient id="paint6_linear_201_3255" x1="165.291" y1="252.975" x2="165.291" y2="268.891" gradientUnits="userSpaceOnUse">
<stop stop-color="#7D6438"/>
<stop offset="0.24" stop-color="#7D6438"/>
<stop offset="0.34" stop-color="#8B7244"/>
<stop offset="0.55" stop-color="#B19766"/>
<stop offset="0.84" stop-color="#EED29D"/>
<stop offset="0.88" stop-color="#F7DBA5"/>
<stop offset="1" stop-color="#F7DBA5"/>
</linearGradient>
<linearGradient id="paint7_linear_201_3255" x1="170.144" y1="253.104" x2="170.144" y2="268.791" gradientUnits="userSpaceOnUse">
<stop stop-color="#7D6438"/>
<stop offset="0.24" stop-color="#7D6438"/>
<stop offset="0.34" stop-color="#8B7244"/>
<stop offset="0.55" stop-color="#B19766"/>
<stop offset="0.84" stop-color="#EED29D"/>
<stop offset="0.88" stop-color="#F7DBA5"/>
<stop offset="1" stop-color="#F7DBA5"/>
</linearGradient>
<linearGradient id="paint8_linear_201_3255" x1="160.435" y1="252.975" x2="160.435" y2="268.891" gradientUnits="userSpaceOnUse">
<stop stop-color="#7D6438"/>
<stop offset="0.24" stop-color="#7D6438"/>
<stop offset="0.34" stop-color="#8B7244"/>
<stop offset="0.55" stop-color="#B19766"/>
<stop offset="0.84" stop-color="#EED29D"/>
<stop offset="0.88" stop-color="#F7DBA5"/>
<stop offset="1" stop-color="#F7DBA5"/>
</linearGradient>
<linearGradient id="paint9_linear_201_3255" x1="165.291" y1="252.976" x2="165.291" y2="268.891" gradientUnits="userSpaceOnUse">
<stop stop-color="#7D6438"/>
<stop offset="0.24" stop-color="#7D6438"/>
<stop offset="0.34" stop-color="#8B7244"/>
<stop offset="0.55" stop-color="#B19766"/>
<stop offset="0.84" stop-color="#EED29D"/>
<stop offset="0.88" stop-color="#F7DBA5"/>
<stop offset="1" stop-color="#F7DBA5"/>
</linearGradient>
<linearGradient id="paint10_linear_201_3255" x1="1235.79" y1="44.7763" x2="1285.5" y2="26.2547" gradientUnits="userSpaceOnUse">
<stop stop-color="#79653F"/>
<stop offset="0.4" stop-color="#A69167"/>
<stop offset="1" stop-color="#F2DCAB"/>
</linearGradient>
<linearGradient id="paint11_linear_201_3255" x1="1261.93" y1="40.4802" x2="1392.69" y2="80.9455" gradientUnits="userSpaceOnUse">
<stop stop-color="#79653F"/>
<stop offset="0.21" stop-color="#79653F"/>
<stop offset="0.34" stop-color="#85714A"/>
<stop offset="0.58" stop-color="#A79268"/>
<stop offset="0.89" stop-color="#DEC899"/>
<stop offset="1" stop-color="#F2DCAB"/>
</linearGradient>
<linearGradient id="paint12_linear_201_3255" x1="1272.16" y1="7.40643" x2="1402.92" y2="47.8717" gradientUnits="userSpaceOnUse">
<stop stop-color="#79653F"/>
<stop offset="0.21" stop-color="#79653F"/>
<stop offset="0.34" stop-color="#85714A"/>
<stop offset="0.58" stop-color="#A79268"/>
<stop offset="0.89" stop-color="#DEC899"/>
<stop offset="1" stop-color="#F2DCAB"/>
</linearGradient>
<clipPath id="clip0_201_3255">
<rect width="1425" height="320.94" fill="white"/>
</clipPath>
<clipPath id="clip1_201_3255">
<rect width="210" height="106.04" fill="white" transform="translate(0 214.891)"/>
</clipPath>
<clipPath id="clip2_201_3255">
<rect width="210" height="82.82" fill="white" transform="translate(1215)"/>
</clipPath>
</defs>
</svg>
