<svg width="134" height="40" viewBox="0 0 134 40" fill="none" xmlns="http://www.w3.org/2000/svg">
<g clip-path="url(#clip0_201_3550)">
<path d="M129 0H5C2.23858 0 0 2.23858 0 5V35C0 37.7614 2.23858 40 5 40H129C131.761 40 134 37.7614 134 35V5C134 2.23858 131.761 0 129 0Z" fill="black"/>
<path d="M129.037 0.8C131.339 0.8 133.206 2.6804 133.206 5V35C133.206 37.3196 131.339 39.2 129.037 39.2H4.96296C2.66055 39.2 0.794074 37.3196 0.794074 35V5C0.794074 2.6804 2.66055 0.8 4.96296 0.8H129.037ZM129.037 0H4.96296C2.22199 0 0 2.23858 0 5V35C0 37.7614 2.22199 40 4.96296 40H129.037C131.778 40 134 37.7614 134 35V5C134 2.23858 131.778 0 129.037 0Z" fill="#A6A6A6"/>
<path d="M67.6351 21.7492C65.3079 21.7602 63.4292 23.6678 63.4365 26.0124C63.4438 28.357 65.3343 30.2528 67.6616 30.2491C69.9888 30.2454 71.8735 28.3438 71.8735 25.9992C71.8899 24.8635 71.4479 23.7699 70.6489 22.9687C69.8499 22.1675 68.7623 21.7274 67.6351 21.7492ZM67.6351 28.5792C66.5862 28.6531 65.599 28.0735 65.1457 27.1176C64.6925 26.1617 64.8652 25.0238 65.5814 24.2482C66.2976 23.4726 67.4116 23.2168 68.3907 23.6032C69.3697 23.9897 70.0148 24.9398 70.0174 25.9992C70.0497 26.6618 69.8149 27.3096 69.3664 27.7953C68.9178 28.2811 68.2935 28.5638 67.6351 28.5792ZM58.3941 21.7492C56.0656 21.7547 54.1819 23.6599 54.1855 26.0058C54.1892 28.3517 56.0788 30.251 58.4073 30.2491C60.7359 30.2473 62.6225 28.3451 62.6225 25.9992C62.6389 24.8635 62.197 23.7699 61.3979 22.9687C60.5989 22.1675 59.5113 21.7274 58.3842 21.7492H58.3941ZM58.3941 28.5792C57.3446 28.6572 56.3545 28.0805 55.8981 27.1253C55.4416 26.17 55.6117 25.0306 56.3268 24.2529C57.042 23.4751 58.1566 23.2173 59.1369 23.6029C60.1172 23.9884 60.7635 24.939 60.7664 25.9992C60.7987 26.6618 60.5639 27.3096 60.1154 27.7953C59.6669 28.2811 59.0426 28.5638 58.3842 28.5792H58.3941ZM47.3862 23.0592V24.8592H51.6743C51.607 25.707 51.2572 26.507 50.6817 27.1292C49.8142 28.0194 48.6136 28.4988 47.3763 28.4492C44.745 28.4492 42.6119 26.3001 42.6119 23.6492C42.6119 20.9982 44.745 18.8492 47.3763 18.8492C48.5851 18.8293 49.7524 19.2932 50.6221 20.1392L51.8827 18.8692C50.6965 17.659 49.0744 16.9844 47.3862 16.9992C44.9831 16.9049 42.7215 18.1428 41.4921 20.2252C40.2627 22.3076 40.2627 24.9007 41.4921 26.9831C42.7215 29.0655 44.9831 30.3034 47.3862 30.2092C49.1052 30.2874 50.7737 29.6128 51.9621 28.3592C53.002 27.2081 53.5572 25.6949 53.5105 24.1392C53.5138 23.7601 53.4805 23.3817 53.4113 23.0092L47.3862 23.0592ZM92.3606 24.4592C91.8307 22.8884 90.3932 21.8102 88.7476 21.7492C87.6501 21.747 86.6008 22.2026 85.8486 23.0077C85.0964 23.8128 84.7086 24.8957 84.7772 25.9992C84.7528 27.1285 85.1853 28.2192 85.9753 29.0207C86.7653 29.8223 87.8449 30.2657 88.966 30.2492C90.3763 30.2568 91.6962 29.5506 92.4797 28.3692L91.0405 27.3692C90.6035 28.1031 89.8155 28.5513 88.966 28.5492C88.0861 28.5829 87.2752 28.0714 86.9212 27.2592L92.5691 24.9092L92.3606 24.4592ZM86.6036 25.8792C86.5629 25.2543 86.7736 24.6393 87.1882 24.1728C87.6027 23.7062 88.1862 23.4274 88.8071 23.3992C89.4616 23.3557 90.0787 23.7098 90.3754 24.2992L86.6036 25.8792ZM82.0178 29.9992H83.874V17.4992H82.0178V29.9992ZM78.9805 22.6992H78.911C78.3452 22.0618 77.5363 21.698 76.6876 21.6992C74.4345 21.8092 72.664 23.6816 72.664 25.9542C72.664 28.2267 74.4345 30.0991 76.6876 30.2092C77.5391 30.2236 78.3532 29.8574 78.911 29.2092H78.9705V29.8192C78.9705 31.4492 78.107 32.3192 76.7174 32.3192C75.7707 32.2968 74.9314 31.7002 74.5932 30.8092L72.9753 31.4892C73.5983 33.016 75.0788 34.009 76.7174 33.9992C78.8911 33.9992 80.6877 32.7092 80.6877 29.5692V21.9992H78.9805V22.6992ZM76.8563 28.5792C75.5291 28.4613 74.5112 27.3415 74.5112 25.9992C74.5112 24.6569 75.5291 23.537 76.8563 23.4192C77.4977 23.4523 78.0985 23.7449 78.5227 24.2307C78.9469 24.7164 79.1585 25.3541 79.1095 25.9992C79.1642 26.6472 78.9533 27.2896 78.5258 27.7769C78.0983 28.2643 77.4915 28.5542 76.8464 28.5792H76.8563ZM101.056 17.4992H96.6188V29.9992H98.475V25.2592H101.066C102.508 25.3635 103.887 24.6477 104.639 23.4041C105.392 22.1606 105.392 20.5977 104.639 19.3542C103.887 18.1107 102.508 17.3948 101.066 17.4992H101.056ZM101.056 23.4992H98.4651V19.2392H101.095C102.271 19.2392 103.225 20.1995 103.225 21.3842C103.225 22.5688 102.271 23.5292 101.095 23.5292L101.056 23.4992ZM112.5 21.6992C111.119 21.616 109.821 22.3662 109.195 23.6092L110.843 24.2992C111.175 23.6828 111.836 23.322 112.53 23.3792C113.006 23.3232 113.484 23.4621 113.858 23.7649C114.231 24.0676 114.468 24.5087 114.515 24.9892V25.1192C113.919 24.8012 113.254 24.6363 112.58 24.6392C110.803 24.6392 109.006 25.6392 109.006 27.4492C109.042 28.2289 109.389 28.961 109.968 29.479C110.548 29.9969 111.311 30.2567 112.083 30.1992C113.036 30.268 113.949 29.8079 114.466 28.9992H114.525V29.9992H116.312V25.1892C116.312 22.9992 114.664 21.7292 112.55 21.7292L112.5 21.6992ZM112.272 28.5492C111.667 28.5492 110.823 28.2392 110.823 27.4892C110.823 26.4892 111.875 26.1592 112.808 26.1592C113.398 26.1445 113.98 26.2895 114.495 26.5792C114.367 27.6986 113.44 28.5517 112.322 28.5792L112.272 28.5492ZM122.823 21.9992L120.699 27.4192H120.64L118.436 21.9992H116.451L119.756 29.5792L117.87 33.7892H119.806L124.888 21.9992H122.823ZM106.138 29.9992H107.994V17.4992H106.138V29.9992Z" fill="white"/>
<path d="M47.0688 10.2395C47.1029 10.9807 46.8338 11.7036 46.3243 12.2395C45.755 12.8353 44.961 13.1589 44.1406 13.1295C42.8823 13.1196 41.7526 12.3507 41.2737 11.1784C40.7948 10.0061 41.0601 8.65881 41.947 7.75948C42.5232 7.16681 43.3173 6.841 44.1406 6.85948C44.5602 6.85807 44.9757 6.94315 45.3615 7.10948C45.7207 7.25544 46.0404 7.48504 46.2945 7.77948L45.7685 8.30948C45.3668 7.82816 44.7638 7.56517 44.1406 7.59948C43.5141 7.59639 42.9135 7.85057 42.4771 8.30342C42.0407 8.75627 41.8063 9.3687 41.8279 9.99948C41.8146 10.9527 42.3718 11.8203 43.2403 12.1987C44.1087 12.5772 45.1179 12.392 45.7982 11.7295C46.1037 11.396 46.2798 10.963 46.2945 10.5095H44.1406V9.78948H47.0291C47.0555 9.938 47.0688 10.0886 47.0688 10.2395ZM51.6148 7.73948H48.9348V9.63948H51.3766V10.3595H48.9348V12.2595H51.6148V12.9995H48.1408V6.99948H51.6148V7.73948ZM54.8705 12.9995H54.1062V7.73948H52.4387V6.99948H56.5778V7.73948H54.8705V12.9995ZM59.496 12.9995V6.99948H60.2603V12.9995H59.496ZM63.655 12.9995H62.8907V7.73948H61.2231V6.99948H65.3126V7.73948H63.655V12.9995ZM73.0648 12.2195C71.8568 13.4297 69.9054 13.4297 68.6974 12.2195C67.5264 10.9707 67.5264 9.01825 68.6974 7.76948C69.275 7.18323 70.0611 6.85352 70.8811 6.85352C71.701 6.85352 72.4871 7.18323 73.0648 7.76948C74.2408 9.01624 74.2408 10.9727 73.0648 12.2195ZM69.2631 11.7195C70.1578 12.617 71.6043 12.617 72.499 11.7195C73.3776 10.7437 73.3776 9.25531 72.499 8.27948C71.6043 7.38192 70.1578 7.38192 69.2631 8.27948C68.3845 9.25531 68.3845 10.7437 69.2631 11.7195ZM75.0202 12.9995V6.99948H75.9532L78.8516 11.6695V6.99948H79.6159V12.9995H78.8218L75.7944 8.10948V12.9995H75.0202Z" fill="white" stroke="white" stroke-width="0.2"/>
<path d="M10.3627 7.5407C10.0392 7.93181 9.87592 8.4325 9.90614 8.9407V31.0607C9.87592 31.5689 10.0392 32.0696 10.3627 32.4607L10.4322 32.5307L22.7304 20.1507V19.8607L10.4322 7.4707L10.3627 7.5407Z" fill="url(#paint0_linear_201_3550)"/>
<path d="M26.8001 24.2807L22.7305 20.1507V19.8607L26.8001 15.7207L26.8894 15.7707L31.7631 18.5607C33.1527 19.3507 33.1527 20.6507 31.7631 21.4507L26.9093 24.2307L26.8001 24.2807Z" fill="url(#paint1_linear_201_3550)"/>
<path d="M26.9192 24.22L22.7305 20L10.3628 32.46C10.9471 32.9775 11.8144 33.0027 12.4274 32.52L26.9292 24.22" fill="url(#paint2_linear_201_3550)"/>
<path d="M26.9192 15.7805L12.4174 7.48054C11.8044 6.99781 10.9371 7.02302 10.3528 7.54054L22.7304 20.0005L26.9192 15.7805Z" fill="url(#paint3_linear_201_3550)"/>
<path opacity="0.2" d="M26.8001 24.1309L12.4175 32.3809C11.8289 32.8242 11.0208 32.8242 10.4323 32.3809L10.3628 32.4509L10.4323 32.5209C11.0197 32.9675 11.83 32.9675 12.4175 32.5209L26.9192 24.2209L26.8001 24.1309Z" fill="black"/>
<path opacity="0.12" d="M10.3627 32.32C10.0392 31.9289 9.87592 31.4282 9.90614 30.92V31.07C9.87592 31.5782 10.0392 32.0789 10.3627 32.47L10.4322 32.4L10.3627 32.32ZM31.763 21.3L26.8001 24.13L26.8894 24.22L31.763 21.44C32.3259 21.1736 32.7045 20.6244 32.7556 20C32.6425 20.5648 32.2759 21.045 31.763 21.3Z" fill="black"/>
<path opacity="0.25" d="M12.4174 7.62043L31.7631 18.7004C32.2759 18.9555 32.6425 19.4356 32.7556 20.0004C32.7045 19.376 32.3259 18.8268 31.7631 18.5604L12.4174 7.48043C11.0278 6.69043 9.89624 7.35043 9.89624 8.95043V9.10043C9.92602 7.49043 11.0377 6.83043 12.4174 7.62043Z" fill="white"/>
</g>
<defs>
<linearGradient id="paint0_linear_201_3550" x1="790.748" y1="131.471" x2="-264.819" y2="1194.91" gradientUnits="userSpaceOnUse">
<stop stop-color="#00A0FF"/>
<stop offset="0.01" stop-color="#00A1FF"/>
<stop offset="0.26" stop-color="#00BEFF"/>
<stop offset="0.51" stop-color="#00D2FF"/>
<stop offset="0.76" stop-color="#00DFFF"/>
<stop offset="1" stop-color="#00E3FF"/>
</linearGradient>
<linearGradient id="paint1_linear_201_3550" x1="1107.63" y1="443.721" x2="-1293.45" y2="443.721" gradientUnits="userSpaceOnUse">
<stop stop-color="#FFE000"/>
<stop offset="0.41" stop-color="#FFBD00"/>
<stop offset="0.78" stop-color="#FFA500"/>
<stop offset="1" stop-color="#FF9C00"/>
</linearGradient>
<linearGradient id="paint2_linear_201_3550" x1="1438.7" y1="414.018" x2="-369.018" y2="2234.43" gradientUnits="userSpaceOnUse">
<stop stop-color="#FF3A44"/>
<stop offset="1" stop-color="#C31162"/>
</linearGradient>
<linearGradient id="paint3_linear_201_3550" x1="-300.329" y1="-157.005" x2="506.545" y2="655.891" gradientUnits="userSpaceOnUse">
<stop stop-color="#32A071"/>
<stop offset="0.07" stop-color="#2DA771"/>
<stop offset="0.48" stop-color="#15CF74"/>
<stop offset="0.8" stop-color="#06E775"/>
<stop offset="1" stop-color="#00F076"/>
</linearGradient>
<clipPath id="clip0_201_3550">
<rect width="134" height="40" fill="white"/>
</clipPath>
</defs>
</svg>
