<svg width="46" height="54" viewBox="0 0 46 54" fill="none" xmlns="http://www.w3.org/2000/svg">
<g clip-path="url(#clip0_201_3210)">
<path d="M30.1556 25.2966C30.1556 24.6151 29.7296 24.104 29.1333 23.9336C29.0482 23.9336 29.0482 23.9336 28.963 23.9336C28.963 23.9336 28.963 23.9336 28.8778 23.9336C28.5371 23.9336 28.2815 24.1891 28.2815 24.5299V25.4669V25.8077V26.2336V26.6595V27.4262V27.8521V28.0225V28.6188V28.704V28.8743V29.4706V29.5558C28.2815 29.5558 28.2815 29.641 28.3667 29.641L28.4519 29.7262C28.5371 29.7262 28.537 29.8114 28.6222 29.8114H28.7926C29.4741 29.7262 30.0704 29.1299 30.0704 28.4484C30.0704 27.6817 29.5593 27.0854 28.7926 27.0854V26.404C29.5593 26.5743 30.1556 25.978 30.1556 25.2966Z" fill="#0061AE"/>
<path d="M25.7259 23.8477C25.3852 23.8477 25.1296 24.1032 25.1296 24.444V29.4699C25.1296 29.8106 25.3852 30.0662 25.7259 30.0662C26.0667 30.0662 26.3222 29.8106 26.3222 29.4699V24.444C26.3222 24.1884 26.0667 23.8477 25.7259 23.8477Z" fill="#0061AE"/>
<g opacity="0.1">
<path d="M23 50C16.8667 50 11.0741 47.6148 6.72963 43.2704C2.47037 38.9259 0 33.1333 0 27C0 20.8667 2.38519 15.0741 6.72963 10.7296C11.0741 6.47037 16.8667 4 23 4C29.1333 4 34.9259 6.38519 39.2704 10.7296C48.2148 19.6741 48.2148 34.2407 39.2704 43.1852C34.9259 47.5296 29.1333 50 23 50ZM23 9.28148C18.2296 9.28148 13.8 11.1556 10.4778 14.4778C7.07037 17.8 5.1963 22.2296 5.1963 27C5.1963 31.7704 7.07037 36.2 10.3926 39.5222C13.7148 42.8444 18.2296 44.7185 22.9148 44.7185C27.6852 44.7185 32.1148 42.8444 35.437 39.5222C42.337 32.6222 42.337 21.2926 35.437 14.3926C32.2 11.0704 27.7704 9.28148 23 9.28148Z" fill="#0061AE"/>
</g>
<path d="M17.7185 26.7429H19.5074V26.317C18.9963 26.2318 18.4852 26.0614 18.1444 25.7207C17.8889 26.0614 17.8037 26.4022 17.7185 26.7429Z" fill="#0061AE"/>
<path d="M19.5076 29.0433V28.1914C19.0816 28.2766 18.7409 28.3618 18.4854 28.6173C18.7409 28.7877 19.0816 28.9581 19.5076 29.0433Z" fill="#0061AE"/>
<path d="M18.1444 28.2761C18.4852 27.9354 18.9963 27.765 19.5074 27.6798V27.2539H17.7185C17.8037 27.5946 17.8889 27.9354 18.1444 28.2761Z" fill="#0061AE"/>
<path d="M20.0186 24.9551V25.8069C20.4445 25.7217 20.7852 25.6366 21.0408 25.381C20.7 25.2106 20.3593 25.0403 20.0186 24.9551Z" fill="#0061AE"/>
<path d="M19.5076 25.8069V24.9551C19.0816 24.9551 18.7409 25.1254 18.4854 25.381C18.7409 25.6366 19.0816 25.8069 19.5076 25.8069Z" fill="#0061AE"/>
<path d="M28.7075 15.8398H17.2927C14.3112 15.8398 11.8408 18.3102 11.8408 21.2917V32.7065C11.8408 35.688 14.3112 38.1584 17.2927 38.1584H28.7075C31.689 38.1584 34.1593 35.688 34.1593 32.7065V21.2917C34.1593 18.3102 31.689 15.8398 28.7075 15.8398ZM21.9779 30.7473H15.3334C14.8223 30.7473 14.3964 30.3213 14.3964 29.8102V24.188C14.3964 23.6769 14.8223 23.251 15.3334 23.251H21.8927V23.8473H16.8667C16.526 23.8473 16.2705 24.1028 16.2705 24.4435V29.4695C16.2705 29.8102 16.526 30.0658 16.8667 30.0658H21.8927L21.9779 30.7473ZM19.763 29.4695C18.4001 29.4695 17.2927 28.3621 17.2927 26.9991C17.2927 25.6361 18.4001 24.5287 19.763 24.5287C21.126 24.5287 22.3186 25.6361 22.3186 26.9991C22.2334 28.3621 21.126 29.4695 19.763 29.4695ZM29.9853 30.7473H28.8779H27.8556H27.6001H25.726H22.5742V30.151C22.9149 30.151 23.1705 29.8954 23.1705 29.5547V24.5287C23.1705 24.188 22.9149 23.9324 22.5742 23.9324V23.3361H25.726H28.2816H28.5371H28.963H29.8149C30.2408 23.3361 30.6667 23.5065 31.0075 23.7621C31.4334 24.1028 31.689 24.5287 31.689 25.2102C31.689 25.2954 31.689 25.3806 31.689 25.551C31.6038 26.1473 31.1779 26.6584 30.6667 26.9139C31.4334 27.1695 32.0297 27.9361 32.0297 28.8732C32.0297 29.8102 31.0927 30.7473 29.9853 30.7473Z" fill="#0061AE"/>
<path d="M20.0186 29.0433C20.4445 28.9581 20.7852 28.8729 21.0408 28.6173C20.7852 28.3618 20.3593 28.1914 20.0186 28.1914V29.0433Z" fill="#0061AE"/>
<path d="M20.0186 26.317V26.7429H21.8074C21.7223 26.4022 21.6371 25.9763 21.3815 25.7207C20.9556 26.0614 20.5297 26.2318 20.0186 26.317Z" fill="#0061AE"/>
<path d="M20.0186 27.6798C20.5297 27.765 21.0408 27.9354 21.3815 28.2761C21.6371 28.0206 21.7223 27.6798 21.8074 27.2539H20.0186V27.6798Z" fill="#0061AE"/>
</g>
<defs>
<clipPath id="clip0_201_3210">
<rect width="46" height="54" fill="white"/>
</clipPath>
</defs>
</svg>
