<svg width="46" height="54" viewBox="0 0 46 54" fill="none" xmlns="http://www.w3.org/2000/svg">
<g clip-path="url(#clip0_201_3231)">
<path d="M23 49.9156C10.3074 49.9156 0.0852051 39.6933 0.0852051 27.0008C0.0852051 14.3082 10.3074 4.08594 23 4.08594C35.6926 4.08594 46 14.3082 46 27.0008C46 39.6933 35.6926 49.9156 23 49.9156ZM23 9.19705C13.2037 9.19705 5.19632 17.2045 5.19632 27.0008C5.19632 36.7971 13.2037 44.8045 23 44.8045C32.7963 44.8045 40.8037 36.7971 40.8037 27.0008C40.8037 17.2045 32.7963 9.19705 23 9.19705Z" fill="#EDF5FB"/>
<path d="M34.1593 22.7408V21.0371C34.1593 19.8445 33.2223 18.8223 31.9445 18.8223H14.0556C12.863 18.8223 11.8408 19.7593 11.8408 21.0371V22.7408H34.1593Z" fill="#0061AE"/>
<path d="M11.8408 25.041V32.9632C11.8408 34.1558 12.7779 35.1781 14.0556 35.1781H31.9445C33.1371 35.1781 34.1593 34.241 34.1593 32.9632V25.041H11.8408ZM29.3038 32.3669C28.7927 32.3669 28.2816 32.1114 27.8556 31.7706C27.5149 32.1114 27.0038 32.3669 26.4075 32.3669C25.3001 32.3669 24.363 31.4299 24.363 30.3225C24.363 29.2151 25.3001 28.2781 26.4075 28.2781C26.9186 28.2781 27.4297 28.5336 27.8556 28.8743C28.1964 28.5336 28.7075 28.2781 29.3038 28.2781C30.4112 28.2781 31.3482 29.2151 31.3482 30.3225C31.3482 31.5151 30.4112 32.3669 29.3038 32.3669Z" fill="#0061AE"/>
</g>
<defs>
<clipPath id="clip0_201_3231">
<rect width="46" height="54" fill="white"/>
</clipPath>
</defs>
</svg>
