<svg width="54" height="54" viewBox="0 0 54 54" fill="none" xmlns="http://www.w3.org/2000/svg">
<g clip-path="url(#clip0_201_3645)">
<path d="M27.0001 53.9996C12.1001 53.9996 0.100098 41.8996 0.100098 26.9996C0.100098 12.0996 12.1001 0.0996094 27.0001 0.0996094C41.9001 0.0996094 54.0001 12.0996 54.0001 26.9996C54.0001 41.8996 41.9001 53.9996 27.0001 53.9996ZM27.0001 6.09961C15.5001 6.09961 6.1001 15.4996 6.1001 26.9996C6.1001 38.4996 15.5001 47.8996 27.0001 47.8996C38.5001 47.8996 47.9001 38.4996 47.9001 26.9996C47.9001 15.4996 38.5001 6.09961 27.0001 6.09961Z" fill="#EDF5FB"/>
<path d="M42.9999 21.9992L34.2999 13.2992C33.4999 12.4992 32.1999 12.4992 31.4999 13.2992L23.5999 21.1992L22.7999 20.3992C21.9999 19.5992 20.6999 19.5992 19.9999 20.3992L10.9999 29.1992C10.1999 29.9992 10.1999 31.2992 10.9999 31.9992L19.6999 40.6992C20.4999 41.4992 21.7999 41.4992 22.4999 40.6992L30.3999 32.7992L31.1999 33.5992C31.9999 34.3992 33.2999 34.3992 33.9999 33.5992L42.7999 24.7992C43.7999 23.9992 43.7999 22.6992 42.9999 21.9992ZM13.8999 31.8992C13.6999 32.0992 13.3999 32.0992 13.1999 31.8992L12.7999 31.4992C12.1999 30.8992 12.1999 29.9992 12.7999 29.3992L13.0999 29.0992C13.2999 28.8992 13.5999 28.8992 13.7999 29.0992C13.9999 29.2992 13.9999 29.5992 13.7999 29.7992L13.4999 30.0992C13.2999 30.2992 13.2999 30.6992 13.4999 30.8992L13.8999 31.2992C14.0999 31.3992 14.0999 31.6992 13.8999 31.8992ZM22.5999 38.4992L22.1999 38.8992C21.5999 39.4992 20.6999 39.4992 20.0999 38.8992L19.7999 38.5992C19.5999 38.3992 19.5999 38.0992 19.7999 37.8992C19.9999 37.6992 20.2999 37.6992 20.4999 37.8992L20.7999 38.1992C20.9999 38.3992 21.3999 38.3992 21.5999 38.1992L21.9999 37.7992C22.1999 37.5992 22.4999 37.5992 22.6999 37.7992C22.7999 37.9992 22.7999 38.2992 22.5999 38.4992ZM22.4999 28.6992C21.0999 27.2992 21.0999 24.9992 22.4999 23.5992L27.5999 28.6992C26.1999 30.0992 23.8999 30.0992 22.4999 28.6992ZM29.3999 25.3992C30.7999 26.7992 30.7999 29.0992 29.3999 30.4992L24.2999 25.3992C25.6999 23.9992 27.9999 23.9992 29.3999 25.3992ZM33.7999 16.1992C33.5999 16.3992 33.2999 16.3992 33.0999 16.1992L32.7999 15.8992C32.5999 15.6992 32.1999 15.6992 31.9999 15.8992L31.5999 16.2992C31.3999 16.4992 31.0999 16.4992 30.8999 16.2992C30.6999 16.0992 30.6999 15.7992 30.8999 15.5992L31.2999 15.1992C31.8999 14.5992 32.7999 14.5992 33.3999 15.1992L33.6999 15.4992C33.9999 15.7992 33.9999 15.9992 33.7999 16.1992ZM40.7999 24.5992L40.3999 24.9992C40.1999 25.1992 39.8999 25.1992 39.6999 24.9992C39.4999 24.7992 39.4999 24.4992 39.6999 24.2992L39.9999 23.9992C40.1999 23.7992 40.1999 23.3992 39.9999 23.1992L39.5999 22.7992C39.3999 22.5992 39.3999 22.2992 39.5999 22.0992C39.7999 21.8992 40.0999 21.8992 40.2999 22.0992L40.6999 22.4992C41.3999 23.0992 41.3999 24.0992 40.7999 24.5992Z" fill="#0061AE"/>
</g>
<defs>
<clipPath id="clip0_201_3645">
<rect width="54" height="54" fill="white"/>
</clipPath>
</defs>
</svg>
