<svg width="154" height="51" viewBox="0 0 154 51" fill="none" xmlns="http://www.w3.org/2000/svg">
<g clip-path="url(#clip0_201_3827)">
<path d="M43 40.9258H47.7107V41.7771H43.979V45.3101H47.5404V46.1615H43.979V50.8297H43V40.9258Z" fill="#153F8F"/>
<path d="M51.2726 41.7771H48.3496V40.9258H55.1746V41.7771H52.2516V50.8296H51.2726V41.7771Z" fill="#153F8F"/>
<path d="M56.2532 49.5672C56.8349 49.9361 57.516 50.149 58.4383 50.149C59.6586 50.149 60.6659 49.5247 60.6659 48.12C60.6659 46.1761 56.1255 45.9348 56.1255 43.3383C56.1255 41.7492 57.516 40.7559 59.2612 40.7559C59.7437 40.7559 60.524 40.8268 61.2051 41.0822L61.049 41.9762C60.6092 41.7349 59.914 41.6073 59.2471 41.6073C58.2255 41.6073 57.1045 42.0329 57.1045 43.3099C57.1045 45.2963 61.645 45.3106 61.645 48.205C61.645 50.2058 59.9282 51.0003 58.3957 51.0003C57.4308 51.0003 56.6789 50.8017 56.1539 50.5747L56.2532 49.5672Z" fill="#153F8F"/>
<path d="M63.6177 40.9258H68.4703V41.7771H64.5967V45.3101H68.2717V46.1615H64.5967V49.9783H68.6406V50.8297H63.6177V40.9258Z" fill="#153F8F"/>
<path d="M74.5438 41.9048H74.5154L70.7127 47.6939H74.5438V41.9048ZM69.8188 47.5804L74.2741 40.9258H75.5228V47.6939H76.9842V48.5452H75.5228V50.8297H74.5438V48.5452H69.8188V47.5804Z" fill="#153F8F"/>
<path d="M85.3845 46.318H83.0859V45.4667H86.3635V50.3902C85.3562 50.8301 84.3772 51.0003 83.2845 51.0003C80.1631 51.0003 78.29 48.9429 78.29 45.8781C78.29 42.8701 80.2197 40.7559 83.2845 40.7559C84.0366 40.7559 85.271 40.8836 85.9379 41.2242L85.8243 42.1322C85.0581 41.7066 84.15 41.6073 83.2845 41.6073C80.7164 41.6073 79.2691 43.4234 79.2691 45.8781C79.2691 48.3754 80.6739 50.1491 83.2845 50.1491C83.8946 50.1491 84.9162 50.0781 85.3845 49.7943V46.318Z" fill="#153F8F"/>
<path d="M91.5713 50.2345C93.1321 50.2345 93.9692 48.8866 93.9692 47.2123C93.9692 45.538 93.1321 44.19 91.5713 44.19C90.0105 44.19 89.1733 45.538 89.1733 47.2123C89.1733 48.8866 90.0105 50.2345 91.5713 50.2345ZM91.5713 43.4238C93.9124 43.4238 94.9482 45.24 94.9482 47.2123C94.9482 49.1845 93.9124 51.0007 91.5713 51.0007C89.2301 51.0007 88.1943 49.1845 88.1943 47.2123C88.1943 45.24 89.2301 43.4238 91.5713 43.4238Z" fill="#153F8F"/>
<path d="M99.4609 50.2345C101.022 50.2345 101.859 48.8866 101.859 47.2123C101.859 45.538 101.022 44.19 99.4609 44.19C97.9001 44.19 97.063 45.538 97.063 47.2123C97.063 48.8866 97.9001 50.2345 99.4609 50.2345ZM99.4609 43.4238C101.802 43.4238 102.838 45.24 102.838 47.2123C102.838 49.1845 101.802 51.0007 99.4609 51.0007C97.1197 51.0007 96.084 49.1845 96.084 47.2123C96.084 45.24 97.1197 43.4238 99.4609 43.4238Z" fill="#153F8F"/>
<path d="M107.223 50.2332C108.812 50.2332 109.365 48.5305 109.365 47.211C109.365 45.8914 108.812 44.1887 107.223 44.1887C105.52 44.1887 105.08 45.8062 105.08 47.211C105.08 48.6156 105.52 50.2332 107.223 50.2332ZM110.259 50.8292H109.365V49.6799H109.337C108.854 50.602 108.117 50.9994 107.081 50.9994C105.094 50.9994 104.101 49.3535 104.101 47.211C104.101 45.0117 104.952 43.4225 107.081 43.4225C108.5 43.4225 109.209 44.4583 109.337 44.8131H109.365V40.1875H110.259V50.8292Z" fill="#153F8F"/>
<path d="M60.5828 10.4448C56.3622 19.4958 60.2781 30.2546 69.3291 34.4751C78.3801 38.6956 89.1388 34.7798 93.3593 25.7288C97.5798 16.6778 93.6639 5.9191 84.613 1.69854C82.1409 0.545737 79.5417 0 76.9829 0C70.173 0.000178832 63.6506 3.86599 60.5828 10.4448Z" fill="url(#paint0_radial_201_3827)"/>
<path d="M72.9971 20.746L72.4206 19.5204L71.3765 18.7424L72.3682 16.6156L72.9871 16.1416L72.4825 15.2301L74.0156 14.1703L73.8077 13.3418L76.2089 12.5352L78.5204 13.1067L78.976 13.8261L80.5149 13.7517L81.9174 16.3596L81.2302 16.7885L81.8062 17.4019L80.4274 20.3586L79.5481 19.7082L79.5398 19.7182L79.5655 20.9318L76.9339 21.7924L76.3929 20.877L76.9525 20.5462L77.2281 21.0122L78.9052 20.4637L78.8848 19.4882L79.4423 18.8211L80.1745 19.3629L81.0309 17.5261L80.2144 16.6564L81.0561 16.1308L80.1367 14.4209L78.6292 14.4936L78.1109 13.6751L76.2365 13.2117L74.5846 13.7666L74.7559 14.4489L73.3363 15.4302L73.8274 16.317L72.8901 17.0348L72.1894 18.5374L72.9396 19.0964L73.3679 20.0068L74.3613 19.8042L74.4913 20.4412L72.9971 20.746Z" fill="#94C11F"/>
<path d="M73.6348 22.3688L75.495 23.2363L76.2242 20.006L78.305 17.9541L77.8435 17.4551L76.2087 18.445L75.8 17.7255L75.058 18.0406L75.3589 19.7348L73.6348 22.3688Z" fill="#94C11F"/>
<path d="M88.2979 5.34128L88.6529 5.76595L88.4955 5.8339L88.4877 6.52384L89.1052 7.09234L89.6604 7.82841L90.2655 7.98674L90.035 7.63152L89.6422 7.52637L89.2368 6.99828L88.7938 6.59471L88.7836 6.09667L89.0166 5.98686L88.6584 5.5647L89.0132 5.4636L88.8267 5.20125L89.3201 5.29341L90.0872 5.76481L90.4597 6.14853L90.6166 6.21595C90.4366 6.0088 90.2519 5.80505 90.0618 5.60559L89.1856 5.0694L88.4744 4.93164L88.6896 5.24048L88.2979 5.34128Z" fill="#94C11F"/>
<path d="M92.2496 8.41126L91.97 8.17188L91.9454 8.40196L92.2892 8.93751L91.7057 8.89006L91.4234 8.56786L91.272 8.63225L91.8385 9.2876L92.7663 9.34989L92.3129 8.65895L92.3131 8.65531L92.4957 8.81292C92.4153 8.67808 92.3335 8.54408 92.2496 8.41126Z" fill="#94C11F"/>
<path d="M90.4215 8.89082L91.6501 9.88155L90.9256 8.12334L91.225 7.52836L90.8954 7.21219L90.4798 7.34744L90.1247 6.94114L89.8931 6.9375L90.4609 7.80358L90.4215 8.89082Z" fill="#94C11F"/>
<path d="M59.9078 13.0502L60.3685 12.791L60.388 12.4314L60.0807 12.617L60.0483 12.1584L59.9445 11.998C59.9035 12.1122 59.8638 12.2266 59.8252 12.3412L59.8724 12.4213L59.9078 13.0502Z" fill="#94C11F"/>
<path d="M62.151 8.49657L62.3119 8.79593L62.9876 8.34909L63.38 9.11849L62.9156 9.66929L63.3058 10.0491L62.7451 11.5094L62.4097 11.2438L62.1018 11.7789L62.0402 12.4603L61.2719 12.9766L61.2046 12.6846L60.9653 12.9397L61.0865 13.5275L62.328 12.7464L62.3984 11.8546L62.4033 11.8464L62.8223 12.2195L63.7622 9.77158L63.449 9.50101L63.8635 9.02216L63.2007 7.85742L62.4951 8.34832L62.3465 8.09914L61.7471 8.32632C61.6653 8.45424 61.585 8.58342 61.5062 8.71391L62.151 8.49657Z" fill="#94C11F"/>
<path d="M60.5335 10.6472L60.5212 10.5801C60.4815 10.6672 60.4416 10.7543 60.4033 10.8416L60.5335 10.6472Z" fill="#94C11F"/>
<path d="M59.9233 13.9812L60.419 14.545L60.9818 12.3991L61.9545 10.8661L61.799 10.6406L61.1083 11.4631L61.0265 11.108L60.7585 11.3772L60.709 12.3094L59.9233 13.9812Z" fill="#94C11F"/>
<path d="M78.7653 28.8825C78.5105 28.9481 78.1462 29.2956 78.3701 29.5238C78.5938 29.752 78.7093 30.3011 78.6189 30.4653C78.5286 30.6296 79.0748 30.8155 79.1395 30.5292C79.2042 30.2429 78.9623 29.965 79.0119 29.7406C79.0616 29.516 79.203 28.7702 78.7653 28.8825Z" fill="#F59C00"/>
<path d="M80.9646 27.9121C80.5663 27.9731 80.3033 28.4154 80.3908 28.759C80.4783 29.1024 80.2682 29.376 80.1741 29.6072C80.08 29.8385 80.5916 30.1872 80.691 29.9446C80.7903 29.7019 80.6463 29.3321 80.8083 29.1325C80.9702 28.9328 81.2028 28.6698 81.257 28.4061C81.3112 28.1425 81.1419 27.8848 80.9646 27.9121Z" fill="#F59C00"/>
<path d="M82.6262 27.6241C82.2801 27.5475 82.0069 28.1259 81.9832 28.3539C81.9593 28.582 81.8985 29.214 81.7178 29.3361C81.537 29.4582 81.3608 29.954 81.62 30.0472C81.8792 30.1406 82.1594 29.7759 82.1296 29.6038C82.0997 29.4316 82.2896 28.8047 82.5059 28.6717C82.7224 28.5388 82.9753 27.7014 82.6262 27.6241Z" fill="#F59C00"/>
<path d="M83.8963 28.4127C83.6355 28.2782 83.2388 28.8491 83.1824 29.2356C83.126 29.6221 82.9392 29.7276 82.7283 29.7669C82.5173 29.806 82.4052 30.194 82.6087 30.2889C82.8121 30.3837 82.989 30.1223 83.0802 29.9859C83.1713 29.8496 83.5772 29.3922 83.77 29.3032C83.9628 29.2143 84.1735 28.5558 83.8963 28.4127Z" fill="#F59C00"/>
<path d="M84.3611 31.546C84.1173 31.3995 83.8843 31.6539 83.7095 31.7926C83.5348 31.9312 83.1526 31.8361 83.2507 32.1568C83.3489 32.4774 83.6185 32.3417 83.6878 32.2227C83.7571 32.1036 84.3492 32.1321 84.4456 31.9844C84.5419 31.8367 84.5653 31.6687 84.3611 31.546Z" fill="#F59C00"/>
<path d="M82.2758 30.8542C81.9538 30.63 81.7884 30.9699 81.315 30.628C81.127 30.4922 79.5381 31.2372 79.483 31.0602C79.428 30.8831 78.8058 30.9783 78.6613 31.4062C78.5167 31.8341 78.7273 33.0055 79.0858 33.0626C79.4445 33.1198 79.9934 32.9079 79.9376 32.648C79.8819 32.3881 79.9075 31.891 80.0309 31.7147C80.1544 31.5384 80.7954 31.3144 80.9477 31.5781C81.0998 31.8416 80.9175 32.1714 80.7489 32.254C80.5802 32.3367 80.1351 32.0303 80.0405 32.1215C79.946 32.2127 79.9957 32.954 80.3052 33.1607C80.6147 33.3675 81.3719 33.2054 81.5123 33.016C81.6527 32.8264 82.2332 32.893 82.4595 32.7027C82.6858 32.5124 82.7294 32.2713 82.4447 32.1592C82.1599 32.047 81.8201 32.0675 81.8739 31.8931C81.9278 31.7186 82.4329 31.2698 82.2758 30.8542Z" fill="#F59C00"/>
<path d="M81.3038 1.41604C81.1173 1.41413 80.8873 1.54557 81.0918 1.69811C81.2965 1.85072 81.4637 2.15723 81.4178 2.23103C81.3719 2.30489 81.8181 2.48122 81.8268 2.33929C81.8357 2.19735 81.61 2.01596 81.616 1.90449C81.6221 1.79301 81.624 1.41931 81.3038 1.41604Z" fill="#F59C00"/>
<path d="M82.5871 1.33009C82.284 1.36836 82.2091 1.55357 82.387 1.68721C82.565 1.82086 82.4802 1.9371 82.4763 2.03242C82.4723 2.12774 82.995 2.24863 82.9998 2.1486C83.0045 2.04857 82.7726 1.9064 82.8413 1.82128C82.91 1.73615 83.0163 1.62331 82.9779 1.51649C82.9394 1.40967 82.7221 1.31304 82.5871 1.33009Z" fill="#F59C00"/>
<path d="M83.6383 1.57126C83.401 1.59105 83.3924 1.81209 83.4414 1.88839C83.4905 1.96481 83.6295 2.17577 83.5509 2.23819C83.4724 2.30066 83.5013 2.48265 83.6891 2.47937C83.8769 2.47615 83.9496 2.32289 83.8828 2.27145C83.816 2.21989 83.7588 1.99402 83.8566 1.9235C83.9545 1.85298 83.8778 1.55129 83.6383 1.57126Z" fill="#F59C00"/>
<path d="M84.8458 2.08453C84.6108 2.02987 84.463 2.25526 84.5246 2.40875C84.5863 2.56225 84.4725 2.60338 84.3225 2.61811C84.1724 2.63277 84.192 2.78663 84.3726 2.82525C84.5532 2.86388 84.6172 2.76064 84.6497 2.70675C84.6822 2.65292 84.8677 2.47278 84.9905 2.4382C85.1133 2.40369 85.0956 2.14265 84.8458 2.08453Z" fill="#F59C00"/>
<path d="M86.6738 4.50103C86.4387 4.37621 86.286 4.4726 86.1621 4.51641C86.0382 4.56022 85.6941 4.43814 85.8368 4.63152C85.9795 4.8249 86.1851 4.8001 86.2225 4.7477C86.2598 4.6953 86.7711 4.81941 86.8264 4.75634C86.8817 4.69322 86.8709 4.60559 86.6738 4.50103Z" fill="#F59C00"/>
<path d="M83.7079 2.92963C83.7079 2.92963 84.6997 2.77488 84.4201 3.73842C84.8004 3.98849 85.5306 4.37858 85.3869 4.70811C85.2431 5.0377 83.9158 5.01367 83.7383 4.84164C83.5607 4.6696 82.9261 4.33405 83.1144 4.04506C83.3733 3.83857 83.717 3.77085 83.7223 3.59482C83.7276 3.41885 82.9442 3.07889 82.8039 3.27346C82.7711 3.42886 83.2299 3.59321 83.1881 3.68281C83.1463 3.7724 82.805 4.07922 82.9255 4.22467C82.9299 4.38532 82.1343 4.3694 81.87 3.97937C81.6056 3.5894 81.4318 2.8991 81.6475 2.73422C81.8632 2.56928 83.567 2.27486 83.7079 2.92963Z" fill="#F59C00"/>
<path d="M66.9283 30.9276C66.8029 30.7527 66.1887 30.738 66.4566 31.1346C66.7245 31.5312 66.9606 32.4953 67.2128 32.5093C67.465 32.5235 67.2236 32.0425 67.1326 31.7379C67.0418 31.4334 66.9283 30.9276 66.9283 30.9276Z" fill="#F59C00"/>
<path d="M67.8976 30.4863C67.6092 30.4874 67.6151 31.0366 67.7682 31.291C67.9213 31.5454 67.7033 32.0129 67.9024 32.1964C68.1015 32.3798 68.3416 32.3365 68.287 32.0652C68.2324 31.7939 68.1791 31.381 68.2527 31.1953C68.3263 31.0097 68.3383 30.4848 67.8976 30.4863Z" fill="#F59C00"/>
<path d="M69.0846 30.7424C68.7589 30.7558 68.7937 31.4218 68.912 31.7228C69.0304 32.0238 68.7319 32.7196 69.0456 32.6295C69.3592 32.5394 69.1275 31.9268 69.279 31.7128C69.4305 31.4989 69.4671 30.7267 69.0846 30.7424Z" fill="#F59C00"/>
<path d="M70.6184 31.7083C70.3129 31.591 70.01 32.1148 70.0738 32.3663C70.1377 32.6179 69.6577 32.7947 69.8333 33.0385C70.009 33.2824 70.2668 33.1179 70.3538 32.848C70.4409 32.5781 70.7093 32.6127 70.7461 32.4229C70.7829 32.233 70.8749 31.8067 70.6184 31.7083Z" fill="#F59C00"/>
<path d="M71.6551 34.7747C71.2803 34.6905 71.1374 35.219 71.5213 35.2557C71.9053 35.2925 72.3763 35.4733 72.4393 35.2698C72.5024 35.0663 72.5035 34.7866 72.2043 34.8454C71.9052 34.9043 71.6551 34.7747 71.6551 34.7747Z" fill="#F59C00"/>
<path d="M69.8818 34.2923C69.6427 34.0973 70.0675 33.6862 69.8811 33.4311C69.6947 33.1759 69.5263 33.4597 69.0608 33.1262C68.5953 32.7927 67.5787 32.6421 67.3766 32.937C67.1908 33.2079 67.4269 33.4357 67.4665 33.4709C67.902 33.7392 68.3519 33.9914 68.8164 34.2258C68.5965 34.0049 68.4154 33.6787 68.5651 33.6066C68.7153 33.5343 69.1772 33.9309 69.2072 34.1996C69.2266 34.3741 69.1324 34.3713 69.0638 34.3479C69.152 34.3907 69.2398 34.4341 69.3291 34.4757C69.8003 34.6954 70.2763 34.8918 70.7557 35.0679C70.8753 34.7513 70.1206 34.4871 69.8818 34.2923Z" fill="#F59C00"/>
<path d="M74.6558 7.90333L75.1721 7.7019L74.6452 6.75886L74.6046 6.43696C74.893 6.35911 75.0946 6.1584 75.0755 5.94029C75.053 5.68152 74.7298 5.49839 74.3538 5.5313C73.9779 5.5642 73.6915 5.80062 73.7142 6.05939C73.7223 6.15244 73.7703 6.23506 73.8446 6.30201L73.6467 6.31029L72.9304 5.58507L72.1748 4.1782L72.1646 3.93099C72.6105 3.85833 72.9393 3.61267 72.9163 3.34931C72.8912 3.0627 72.461 2.86629 71.9554 2.91052C71.4498 2.95475 71.0602 3.22288 71.0853 3.50949C71.0927 3.59455 71.1392 3.6702 71.2095 3.73547L68.6325 4.7715L68.8189 5.28362L70.224 4.71422L67.5708 7.55902L68.1115 7.96783L69.7086 6.29378L69.1065 8.16842L69.876 8.30546L70.6918 5.93588L71.5799 4.87028L72.0151 5.90661L72.4985 5.92789L73.3414 6.74622L71.4912 8.89048L71.9043 9.17154L72.9926 8.11429L72.6646 9.4377L73.2715 9.48593L73.6491 7.91018L74.2355 7.16314L74.6558 7.90333Z" fill="#793282"/>
<path d="M66.727 26.0775L65.8933 24.7703L65.8635 24.5281C65.9725 24.4051 66.0462 24.222 66.0527 24.0126C66.0646 23.6322 65.8543 23.3169 65.5831 23.3085C65.3119 23.3 65.0825 23.6017 65.0706 23.9821L65.0708 23.9862L64.255 22.8401L63.5367 20.9452L63.3816 20.3003C63.6379 20.1633 63.8263 19.8225 63.8388 19.4171C63.8555 18.8816 63.5596 18.4378 63.1778 18.426C62.7961 18.4141 62.4731 18.8386 62.4564 19.3741C62.4525 19.5016 62.4667 19.6235 62.4951 19.736L61.4535 20.3096L61.3989 21.1812L62.1693 20.9248L61.9439 22.3602L61.2124 23.9288L61.7338 24.4052L62.3592 23.064L62.4747 24.911L63.0969 25.4636L62.9601 22.557L63.2024 21.6933L63.6369 22.9499L64.8851 24.4314L64.9612 25.4874L64.2646 26.3871L64.6574 26.7015L65.1705 26.0077L65.2267 27.2002L65.6938 27.418L65.7362 25.2948L66.3487 26.2948L66.727 26.0775Z" fill="#793282"/>
<path d="M93.4233 16.2021L94.1288 15.9188L94.1077 16.7351L93.103 19.192L93.4951 19.6955L94.1763 18.2346L94.0219 19.9412L94.3788 20.0202L94.7426 16.8951L95.0562 18.1161C95.0575 16.6838 94.8883 15.264 94.5584 13.8863C94.5365 13.8796 94.5142 13.8762 94.4915 13.8771C94.3025 13.8849 94.1606 14.1639 94.1744 14.5003C94.1803 14.6451 94.2153 14.7751 94.2669 14.8777L93.2527 15.5495L93.4233 16.2021Z" fill="#793282"/>
<path d="M82.8743 34.2744C80.5325 33.9941 78.0727 33.4437 75.5774 32.6166C76.9381 30.6972 78.3054 28.495 79.6253 26.0977C82.2764 27.1362 84.8392 27.9836 87.2078 28.6056C85.8803 30.7242 84.4165 32.6276 82.8743 34.2744ZM75.3367 32.5349C73.884 32.0434 72.4202 31.4594 70.9615 30.7792C69.4506 30.0747 68.0148 29.3001 66.6635 28.4708C67.2587 26.1869 68.0698 23.7121 69.0635 21.1464C70.7669 22.0851 72.5653 22.9992 74.4296 23.8686C76.1002 24.6476 77.7638 25.3617 79.3969 26.007C78.0725 28.4105 76.7008 30.6165 75.3367 32.5349ZM60.4893 23.7692C60.7658 21.5138 61.2916 19.1531 62.0737 16.759C64.0484 18.1929 66.3425 19.6358 68.8484 21.0265C67.8563 23.585 67.0451 26.0543 66.4468 28.3365C64.206 26.9422 62.2042 25.397 60.4893 23.7692ZM63.9537 12.0047C64.6516 10.5081 65.419 9.08573 66.2406 7.74598C68.6163 8.33488 71.2088 9.16597 73.9006 10.1971C72.9667 11.8939 72.0565 13.6854 71.1903 15.5431C70.3655 17.3119 69.611 19.0733 68.9369 20.7969C66.4241 19.401 64.1274 17.9531 62.1541 16.5154C62.6537 15.0178 63.2525 13.5084 63.9537 12.0047ZM70.7214 1.80769C73.0884 2.07642 75.5785 2.62203 78.1067 3.45229C76.7349 5.36669 75.3543 7.57508 74.0202 9.98192C71.3364 8.95262 68.7491 8.12016 66.3753 7.52769C67.7047 5.39011 69.1732 3.46982 70.7214 1.80769ZM78.3484 3.53265C79.8364 4.03147 81.3364 4.62781 82.831 5.32478C84.2737 5.99749 85.6473 6.73439 86.9447 7.52143C86.3657 9.79844 85.5641 12.2751 84.5802 14.8449C83.0414 14.0119 81.4309 13.1997 79.7666 12.4236C77.9085 11.5572 76.0584 10.7694 74.2502 10.0697C75.5887 7.6574 76.9735 5.44531 78.3484 3.53265ZM82.1197 20.6396C81.2864 22.4267 80.4126 24.1537 79.5162 25.7921C77.8782 25.1456 76.2091 24.4294 74.5327 23.6476C72.6622 22.7755 70.8589 21.8582 69.1516 20.9165C69.8269 19.1882 70.5836 17.4209 71.4113 15.6461C72.2804 13.7823 73.1938 11.9856 74.1307 10.285C75.9437 10.9857 77.7993 11.7753 79.6636 12.6445C81.3337 13.4234 82.9495 14.2384 84.4923 15.0744C83.7884 16.8967 82.9946 18.7634 82.1197 20.6396ZM93.172 12.2097C92.9001 14.4486 92.3818 16.7919 91.6113 19.169C89.6071 17.7505 87.3038 16.3283 84.7965 14.9616C85.7788 12.3991 86.5798 9.92857 87.1621 7.65323C89.4198 9.04168 91.4395 10.5834 93.172 12.2097ZM89.7028 24.0117C88.9844 25.5523 88.1928 27.0152 87.3437 28.3892C84.9727 27.7703 82.4038 26.9234 79.7446 25.8828C80.6386 24.2476 81.5097 22.5247 82.3407 20.7426C83.2132 18.8716 84.0055 17.0095 84.7087 15.191C87.2226 16.5626 89.5294 17.9898 91.5326 19.4119C91.0272 20.9387 90.4179 22.4782 89.7028 24.0117ZM84.6928 34.4373C84.1914 34.4067 83.6839 34.3641 83.1698 34.3074C84.6954 32.663 86.1422 30.7711 87.4544 28.6699C88.5014 28.9394 89.5113 29.1666 90.4696 29.3427C90.6652 29.3786 90.8567 29.4115 91.0463 29.443C91.1047 29.3704 91.1635 29.2982 91.221 29.2246C90.9894 29.1872 90.7541 29.1471 90.5136 29.1029C89.5831 28.932 88.604 28.7129 87.5891 28.4532C88.4289 27.0896 89.2124 25.6404 89.9238 24.1147C90.6319 22.5962 91.236 21.0717 91.7393 19.5588C92.5898 20.1689 93.3864 20.7776 94.1148 21.38C94.3034 21.5359 94.4852 21.6904 94.6628 21.8438C94.6822 21.7524 94.6997 21.6609 94.7178 21.5695C94.5717 21.4445 94.4235 21.319 94.2702 21.1923C93.52 20.5718 92.6976 19.9448 91.8191 19.3166C92.5861 16.9624 93.1066 14.6395 93.3873 12.4148C93.759 12.7702 94.1158 13.1297 94.4597 13.492C94.4171 13.3305 94.3719 13.1697 94.3249 13.0094C94.0334 12.7104 93.7341 12.4134 93.4238 12.1196C93.4735 11.6951 93.5126 11.2752 93.5447 10.8586C93.478 10.7056 93.4095 10.5534 93.3386 10.4021C93.307 10.9007 93.2635 11.4053 93.2062 11.916C91.4746 10.3055 89.4654 8.78053 87.2242 7.40686C87.4422 6.53684 87.6292 5.69484 87.7803 4.88962C87.8549 4.49196 87.9197 4.10771 87.9758 3.73562C87.9021 3.67917 87.8287 3.62236 87.7539 3.56692C87.6941 3.97734 87.6235 4.40296 87.5406 4.84461C87.3948 5.62235 87.2144 6.43527 87.0057 7.27405C85.72 6.4969 84.3606 5.769 82.9341 5.1038C81.4554 4.41429 79.9714 3.82331 78.4984 3.32693C79.0104 2.62233 79.5208 1.95672 80.0264 1.34064C80.2932 1.01553 80.5564 0.706799 80.8153 0.414766C80.724 0.394797 80.6326 0.375961 80.541 0.357422C80.3099 0.620961 80.0757 0.896241 79.8379 1.18601C79.3145 1.82379 78.7861 2.51318 78.2559 3.24508C75.7503 2.41798 73.2795 1.86867 70.9254 1.59005C71.188 1.31328 71.4533 1.04623 71.7199 0.784473C71.5533 0.835142 71.3872 0.887477 71.2221 0.942795C71.023 1.14387 70.8248 1.34792 70.628 1.55727C70.3564 1.52764 70.0868 1.5026 69.8185 1.48019C69.6656 1.546 69.5137 1.6139 69.3626 1.68388C69.7141 1.70844 70.0679 1.73735 70.4257 1.77461C68.8931 3.43548 67.4407 5.34582 66.1258 7.46778C65.2985 7.26588 64.4957 7.09086 63.7267 6.94965C63.424 6.89403 63.1289 6.84402 62.8407 6.79901C62.7824 6.87215 62.7244 6.94547 62.6671 7.01969C62.9964 7.0694 63.3343 7.12538 63.6826 7.18934C64.4236 7.32543 65.1969 7.49359 65.9925 7.68637C65.1811 9.01414 64.4229 10.4217 63.7328 11.9017C63.0393 13.3888 62.446 14.8816 61.949 16.3636C61.2891 15.8775 60.6626 15.3927 60.0814 14.9121C59.8085 14.6864 59.5484 14.4636 59.2987 14.2432C59.2786 14.3348 59.2597 14.4265 59.2412 14.5181C59.461 14.7099 59.6889 14.9038 59.9261 15.1C60.5292 15.5988 61.1802 16.1019 61.8675 16.6065C61.0881 18.9793 60.5594 21.3213 60.274 23.5639C60.0132 23.3119 59.7617 23.0574 59.5149 22.8019C59.5585 22.9626 59.6041 23.1227 59.652 23.2822C59.8436 23.4753 60.038 23.6677 60.2375 23.8587C60.2034 24.147 60.1747 24.4331 60.1487 24.7179C60.2125 24.88 60.2794 25.0411 60.3479 25.2014C60.3769 24.8258 60.4108 24.4478 60.4542 24.0656C62.1676 25.6766 64.159 27.2041 66.382 28.5827C66.1313 29.5584 65.9188 30.5 65.7506 31.3962C65.7016 31.6576 65.657 31.9128 65.616 32.1632C65.6888 32.2218 65.7612 32.2807 65.835 32.3383C65.8814 32.0465 65.9327 31.7479 65.9903 31.4413C66.1534 30.5721 66.3578 29.6605 66.599 28.7158C67.9398 29.536 69.3623 30.3026 70.8584 31.0002C72.3024 31.6735 73.7515 32.2528 75.1905 32.7419C74.6254 33.5284 74.0621 34.2658 73.5045 34.9452C73.2889 35.208 73.0759 35.4587 72.8653 35.6999C72.9556 35.721 73.046 35.7414 73.1363 35.761C73.3198 35.5488 73.5054 35.3285 73.693 35.0998C74.2679 34.3994 74.8488 33.6368 75.4313 32.8235C77.9036 33.647 80.3427 34.1996 82.6709 34.4892C82.314 34.8635 81.9527 35.2229 81.5885 35.5693C81.7503 35.5265 81.9113 35.4811 82.0718 35.4338C82.3726 35.1398 82.6715 34.838 82.9671 34.5251C83.3945 34.5744 83.8171 34.6131 84.2363 34.6445C84.3893 34.5774 84.5416 34.5086 84.6928 34.4373Z" fill="#D8E7BB"/>
<path d="M82.9303 34.4603C80.5793 34.1843 78.1108 33.6364 75.6075 32.8096C77.0346 30.8212 78.4717 28.515 79.8561 25.9967C82.5292 27.0353 85.1066 27.8794 87.4749 28.4898C86.0896 30.7314 84.5523 32.7375 82.9303 34.4603ZM75.3666 32.728C73.9052 32.2354 72.4329 31.6489 70.9661 30.9648C69.4992 30.2808 68.1035 29.53 66.7867 28.7272C67.3891 26.3549 68.2324 23.7659 69.2731 21.0799C70.8977 21.9656 72.6074 22.8293 74.3754 23.6537C76.1434 24.4782 77.9038 25.2327 79.6266 25.9078C78.238 28.4315 76.7966 30.7418 75.3666 32.728ZM60.598 24.0466C60.8753 21.6967 61.4238 19.2296 62.2505 16.7275C64.2404 18.1492 66.5437 19.5811 69.0575 20.9613C68.0183 23.6405 67.1753 26.2239 66.5695 28.595C64.327 27.2089 62.3207 25.6702 60.598 24.0466ZM64.0963 12.0841C64.7807 10.6165 65.5318 9.22026 66.3348 7.90274C68.7039 8.50982 71.2869 9.35408 73.9667 10.394C73.0815 12.0155 72.2188 13.7224 71.3956 15.4878C70.5724 17.2532 69.8194 19.0113 69.1462 20.7317C66.6269 19.3474 64.3199 17.9114 62.332 16.4867C62.8251 15.0247 63.412 13.5518 64.0963 12.0841ZM71.0114 1.71498C73.3625 1.99109 75.8309 2.53892 78.3342 3.36577C76.9071 5.35409 75.4699 7.66037 74.0856 10.1786C71.4125 9.14008 68.835 8.29605 66.4668 7.68552C67.8521 5.44392 69.3895 3.43784 71.0114 1.71498ZM78.575 3.44726C80.0364 3.93994 81.5086 4.52645 82.9756 5.21043C84.4425 5.89446 85.8381 6.64532 87.1549 7.44809C86.5526 9.82036 85.7093 12.4093 84.6685 15.0954C83.0439 14.2096 81.3344 13.346 79.5663 12.5216C77.7983 11.6972 76.0378 10.9426 74.315 10.2675C75.7037 7.7437 77.1449 5.43355 78.575 3.44726ZM82.3252 20.5843C81.4993 22.3555 80.6338 24.0676 79.7457 25.6929C78.0183 25.0167 76.2522 24.2599 74.4784 23.4328C72.7046 22.6056 70.9896 21.7392 69.3612 20.8505C70.0354 19.1256 70.7907 17.362 71.6166 15.5909C72.4425 13.8197 73.308 12.1076 74.1959 10.4824C75.9234 11.1586 77.6895 11.9154 79.4633 12.7426C81.2371 13.5697 82.952 14.4361 84.5805 15.3248C83.9063 17.0497 83.151 18.8132 82.3252 20.5843ZM93.3437 12.1287C93.0665 14.4787 92.518 16.9458 91.6912 19.4479C89.7013 18.0261 87.398 16.5942 84.8841 15.214C85.9234 12.5348 86.7663 9.9515 87.3722 7.58025C89.6146 8.96644 91.6211 10.5052 93.3437 12.1287ZM89.8455 24.0911C89.1611 25.5587 88.41 26.9551 87.607 28.2726C85.2377 27.6656 82.6548 26.8213 79.9749 25.7812C80.8601 24.1597 81.7228 22.4528 82.5461 20.6873C83.3693 18.922 84.1223 17.1639 84.7955 15.4436C87.3148 16.828 89.6218 18.2639 91.6098 19.6886C91.1166 21.1506 90.5298 22.6235 89.8455 24.0911ZM84.3578 34.5926C83.9836 34.5658 83.607 34.5338 83.226 34.4926C84.8312 32.7714 86.351 30.7769 87.7208 28.5529C88.6082 28.777 89.4663 28.9687 90.2866 29.1239C90.5912 29.1814 90.8879 29.2331 91.1776 29.28C91.2348 29.2071 91.291 29.1332 91.3473 29.0593C91.0182 29.0078 90.6803 28.95 90.3319 28.8842C89.5389 28.7343 88.7099 28.5492 87.8538 28.3344C88.6471 27.0284 89.3894 25.646 90.0664 24.1941C90.7434 22.7424 91.3252 21.2852 91.8158 19.8379C92.5306 20.3558 93.2053 20.8719 93.8298 21.383C94.1042 21.6075 94.3656 21.8292 94.6167 22.0482C94.6371 21.9576 94.6575 21.867 94.6765 21.7764C94.4545 21.5845 94.2242 21.3906 93.9843 21.1943C93.3382 20.6654 92.6397 20.1314 91.8977 19.5956C92.7208 17.1168 93.2718 14.6705 93.5585 12.3345C93.835 12.5998 94.1016 12.8679 94.3628 13.1373C94.3157 12.9722 94.2655 12.8081 94.2138 12.6445C94.0112 12.4412 93.8055 12.2385 93.5942 12.0377C93.627 11.7482 93.6545 11.4612 93.6793 11.1754C93.6137 11.0169 93.5467 10.8592 93.4767 10.7026C93.4496 11.0763 93.4175 11.4525 93.3761 11.833C91.6548 10.2259 89.6594 8.70451 87.434 7.33358C87.65 6.47006 87.8357 5.63402 87.9857 4.83435C88.0476 4.50434 88.1024 4.18405 88.1516 3.87157C88.0787 3.8144 88.0047 3.75837 87.9309 3.70222C87.8773 4.05368 87.8162 4.41564 87.7461 4.78934C87.6012 5.56142 87.4222 6.36831 87.2156 7.20053C85.9105 6.40771 84.5292 5.66591 83.0786 4.98951C81.6279 4.31305 80.1719 3.73173 78.7257 3.24167C79.2304 2.54834 79.7334 1.89262 80.2317 1.28537C80.4729 0.991425 80.711 0.711969 80.9458 0.444973C80.8552 0.424527 80.7647 0.403841 80.6741 0.384766C80.4664 0.623328 80.2562 0.871191 80.0432 1.13074C79.5271 1.75969 79.006 2.43931 78.4833 3.15976C76.0028 2.3363 73.5547 1.78567 71.2172 1.50002C71.4821 1.22378 71.7496 0.957267 72.0185 0.696292C71.8537 0.743325 71.6897 0.793456 71.5262 0.845078C71.3231 1.0477 71.1209 1.25335 70.9202 1.46455C70.6304 1.43183 70.3431 1.40447 70.0569 1.37991C69.8984 1.44548 69.7404 1.5126 69.5837 1.58264C69.958 1.60953 70.3348 1.64148 70.7158 1.68273C69.1105 3.40393 67.5907 5.39844 66.2209 7.62245C65.3336 7.39838 64.4756 7.20667 63.6552 7.05162C63.3506 6.99404 63.0538 6.94224 62.764 6.89538C62.7068 6.96823 62.6505 7.04215 62.5943 7.116C62.9235 7.16751 63.2613 7.22539 63.6099 7.29126C64.4027 7.44106 65.2318 7.62621 66.0879 7.84093C65.2946 9.14694 64.5524 10.5293 63.8754 11.981C63.1984 13.4329 62.6165 14.8901 62.126 16.3374C61.4111 15.8195 60.7364 15.3034 60.112 14.7924C59.8375 14.5678 59.5761 14.3461 59.325 14.127C59.3046 14.2176 59.2841 14.3082 59.2651 14.3988C59.4872 14.5907 59.7176 14.7848 59.9576 14.9812C60.6037 15.5099 61.3021 16.044 62.0441 16.5797C61.2209 19.0586 60.6699 21.5049 60.3833 23.8409C60.1068 23.5755 59.8401 23.3075 59.579 23.0381C59.6261 23.2031 59.6762 23.3673 59.7279 23.5309C59.9306 23.7343 60.1362 23.9368 60.3476 24.1377C60.3147 24.4272 60.2872 24.7142 60.2625 25C60.3281 25.1584 60.3951 25.3162 60.4651 25.4728C60.4921 25.0991 60.5243 24.7229 60.5657 24.3425C62.287 25.9495 64.2823 27.4709 66.5076 28.8417C66.2916 29.7053 66.106 30.5413 65.956 31.341C65.8941 31.671 65.8393 31.9911 65.7901 32.3035C65.863 32.3607 65.9369 32.4168 66.0109 32.473C66.0643 32.1216 66.1255 31.7597 66.1956 31.386C66.3404 30.6139 66.5194 29.807 66.7262 28.9748C68.0311 29.7676 69.4124 30.5094 70.863 31.1858C72.3137 31.8622 73.7698 32.4436 75.2159 32.9337C74.7113 33.627 74.2083 34.2827 73.7099 34.8899C73.4687 35.1839 73.2308 35.4633 72.996 35.7302C73.0865 35.7507 73.177 35.7713 73.2676 35.7904C73.4753 35.5519 73.6854 35.3041 73.8984 35.0446C74.4146 34.4157 74.9356 33.7361 75.4583 33.0155C77.9389 33.8391 80.387 34.3896 82.7245 34.6752C82.4597 34.9515 82.1922 35.2179 81.9233 35.4788C82.0883 35.4318 82.2523 35.3817 82.4158 35.33C82.6187 35.1274 82.8209 34.9219 83.0215 34.7107C83.3113 34.7435 83.5986 34.7708 83.8846 34.7953C84.0432 34.7298 84.2011 34.6627 84.3578 34.5926Z" fill="#0B331F"/>
</g>
<defs>
<radialGradient id="paint0_radial_201_3827" cx="0" cy="0" r="1" gradientUnits="userSpaceOnUse" gradientTransform="translate(74.1139 10.2986) rotate(70.7784) scale(22.5679 22.5679)">
<stop stop-color="#D8E7BB"/>
<stop offset="0.7" stop-color="#006634"/>
<stop offset="1" stop-color="#004B24"/>
</radialGradient>
<clipPath id="clip0_201_3827">
<rect width="154" height="51" fill="white"/>
</clipPath>
</defs>
</svg>
