<svg width="54" height="54" viewBox="0 0 54 54" fill="none" xmlns="http://www.w3.org/2000/svg">
<g clip-path="url(#clip0_201_3656)">
<path d="M27.0001 53.9996C12.1001 53.9996 0.100098 41.8996 0.100098 26.9996C0.100098 12.0996 12.1001 0.0996094 27.0001 0.0996094C41.9001 0.0996094 54.0001 12.0996 54.0001 26.9996C54.0001 41.8996 41.9001 53.9996 27.0001 53.9996ZM27.0001 6.09961C15.5001 6.09961 6.1001 15.4996 6.1001 26.9996C6.1001 38.4996 15.5001 47.8996 27.0001 47.8996C38.5001 47.8996 47.9001 38.4996 47.9001 26.9996C47.9001 15.4996 38.5001 6.09961 27.0001 6.09961Z" fill="#EDF5FB"/>
<path d="M32.4001 19.4004H21.6001V36.4004H32.4001V19.4004Z" fill="#0061AE"/>
<path d="M20.8002 22.7988H12.2002V36.3988H20.8002V22.7988Z" fill="#0061AE"/>
<path d="M41.8002 26.6992H33.2002V36.3992H41.8002V26.6992Z" fill="#0061AE"/>
<path d="M27.1001 9.59961L28.4001 12.1996L31.3001 12.5996L29.2001 14.6996L29.7001 17.5996L27.1001 16.1996L24.5001 17.5996L25.0001 14.6996L22.9001 12.5996L25.8001 12.1996L27.1001 9.59961Z" fill="#0061AE"/>
</g>
<defs>
<clipPath id="clip0_201_3656">
<rect width="54" height="54" fill="white"/>
</clipPath>
</defs>
</svg>
