<svg width="54" height="54" viewBox="0 0 54 54" fill="none" xmlns="http://www.w3.org/2000/svg">
<g clip-path="url(#clip0_201_3672)">
<path d="M27.0001 53.9996C12.1001 53.9996 0.100098 41.8996 0.100098 26.9996C0.100098 12.0996 12.1001 0.0996094 27.0001 0.0996094C41.9001 0.0996094 54.0001 12.0996 54.0001 26.9996C54.0001 41.8996 41.9001 53.9996 27.0001 53.9996ZM27.0001 6.09961C15.5001 6.09961 6.1001 15.4996 6.1001 26.9996C6.1001 38.4996 15.5001 47.8996 27.0001 47.8996C38.5001 47.8996 47.9001 38.4996 47.9001 26.9996C47.9001 15.4996 38.5001 6.09961 27.0001 6.09961Z" fill="#EDF5FB"/>
<path d="M21.7002 39.1012C35.8002 39.1012 37.9002 32.6012 37.9002 26.2012H41.9002C42.2002 26.2012 42.4002 26.0012 42.4002 25.7012C42.4002 25.6012 42.3002 25.4012 42.2002 25.3012L35.2002 17.6012C35.0002 17.4012 34.7002 17.4012 34.5002 17.6012L27.5002 25.3012C27.3002 25.5012 27.3002 25.8012 27.5002 26.0012C27.6002 26.1012 27.7002 26.2012 27.9002 26.2012H31.9002C31.9002 32.2012 31.0002 37.0012 21.7002 39.1012Z" fill="#0061AE"/>
<path d="M32.3001 14.9004C18.2001 14.9004 16.1001 21.4004 16.1001 27.8004H12.1001C11.8001 27.8004 11.6001 28.0004 11.6001 28.3004C11.6001 28.4004 11.7001 28.6004 11.8001 28.7004L18.8001 36.4004C19.0001 36.6004 19.3001 36.6004 19.5001 36.4004L26.5001 28.7004C26.7001 28.5004 26.7001 28.2004 26.5001 28.0004C26.4001 27.9004 26.3001 27.8004 26.1001 27.8004H22.1001C22.1001 21.8004 23.0001 17.0004 32.3001 14.9004Z" fill="#0061AE"/>
</g>
<defs>
<clipPath id="clip0_201_3672">
<rect width="54" height="54" fill="white"/>
</clipPath>
</defs>
</svg>
