<svg width="46" height="54" viewBox="0 0 46 54" fill="none" xmlns="http://www.w3.org/2000/svg">
<g clip-path="url(#clip0_201_3602)">
<path d="M34.8407 35.5176C33.0518 33.7288 30.411 33.388 29.0481 34.8362L25.2999 39.0102C19.1666 36.1139 14.1407 31.1732 11.2444 24.9547L15.4185 21.2065C16.8666 19.9288 16.611 17.288 14.737 15.4139L9.54067 10.2176C7.58142 8.25838 4.59993 8.1732 3.57771 10.0473C1.61845 13.4547 0.851785 17.7991 1.53327 22.6547C3.32216 34.9213 14.4814 46.4213 26.8333 48.7213C32.0296 49.6584 36.7148 48.8917 40.3777 46.8473C42.337 45.7399 42.1666 42.7584 40.1222 40.7991L34.8407 35.5176Z" stroke="#0662AD" stroke-width="1.7037" stroke-miterlimit="10" stroke-linecap="round"/>
<path d="M25.9814 16.4375C29.9851 16.4375 33.137 19.6745 33.137 23.5931" stroke="#0662AD" stroke-width="1.7037" stroke-miterlimit="10" stroke-linecap="round"/>
<path d="M25.9814 10.8145C33.0518 10.8145 38.8444 16.5219 38.8444 23.6774" stroke="#0662AD" stroke-width="1.7037" stroke-miterlimit="10" stroke-linecap="round"/>
<path d="M25.9814 4.85156C36.374 4.85156 44.7222 13.2849 44.7222 23.5923" stroke="#0662AD" stroke-width="1.7037" stroke-miterlimit="10" stroke-linecap="round"/>
</g>
<defs>
<clipPath id="clip0_201_3602">
<rect width="46" height="54" fill="white"/>
</clipPath>
</defs>
</svg>
