<svg width="46" height="54" viewBox="0 0 46 54" fill="none" xmlns="http://www.w3.org/2000/svg">
<g clip-path="url(#clip0_201_3617)">
<path d="M0.851807 45.4002V27.6816H45.1481V45.4002" stroke="#0662AD" stroke-width="1.7037" stroke-miterlimit="10" stroke-linecap="round"/>
<path d="M0.851807 34.8359H45.1481" stroke="#0662AD" stroke-width="1.7037" stroke-miterlimit="10" stroke-linecap="round"/>
<path d="M18.0592 22.9102H13.2888V27.6805H18.0592V22.9102Z" stroke="#0662AD" stroke-width="1.7037" stroke-miterlimit="10" stroke-linecap="round"/>
<path fill-rule="evenodd" clip-rule="evenodd" d="M23.8518 22.9107H7.58147C6.21851 22.9107 5.19629 21.8033 5.19629 20.5255V10.9848C5.19629 9.62183 6.3037 8.59961 7.58147 8.59961H23.8518C25.2148 8.59961 26.237 9.70702 26.237 10.9848V20.4404C26.3222 21.8033 25.2148 22.9107 23.8518 22.9107Z" stroke="#0662AD" stroke-width="1.7037" stroke-miterlimit="10" stroke-linecap="round"/>
<path d="M28.3667 27.6805V23.8472C28.3667 22.1435 29.8148 20.6953 31.5186 20.6953H39.3556C41.0593 20.6953 42.5074 22.1435 42.5074 23.8472V27.6805" stroke="#0662AD" stroke-width="1.7037" stroke-miterlimit="10" stroke-linecap="round"/>
<path d="M35.4371 19.758C38.1187 19.758 40.2927 17.5841 40.2927 14.9024C40.2927 12.2208 38.1187 10.0469 35.4371 10.0469C32.7554 10.0469 30.5815 12.2208 30.5815 14.9024C30.5815 17.5841 32.7554 19.758 35.4371 19.758Z" stroke="#0662AD" stroke-width="1.7037" stroke-miterlimit="10" stroke-linecap="round"/>
<path d="M35.437 27.6819V23.5078" stroke="#0662AD" stroke-width="1.7037" stroke-miterlimit="10" stroke-linecap="round"/>
<path d="M38.3334 20.6953L35.4371 23.5064L32.626 20.6953" stroke="#0662AD" stroke-width="1.7037" stroke-miterlimit="10" stroke-linecap="round"/>
</g>
<defs>
<clipPath id="clip0_201_3617">
<rect width="46" height="54" fill="white"/>
</clipPath>
</defs>
</svg>
