<svg width="154" height="51" viewBox="0 0 154 51" fill="none" xmlns="http://www.w3.org/2000/svg">
<g clip-path="url(#clip0_201_3692)">
<mask id="mask0_201_3692" style="mask-type:luminance" maskUnits="userSpaceOnUse" x="0" y="10" width="154" height="30">
<path d="M154 10H0V39.2972H154V10Z" fill="white"/>
</mask>
<g mask="url(#mask0_201_3692)">
<path d="M15.1295 23.7152L8.16929 32.3594L4.96808 28.4402L0.219238 34.2955V37.9198L4.59842 32.6099L8.05511 37.0992C8.12905 37.0096 15.3661 28.1905 15.3661 28.1905L22.8274 39.0789H25.7098L22.1636 34.2044L25.3615 30.3435L31.3467 39.0789H33.1752V17.0039L20.9446 31.4878L15.1295 23.7152Z" fill="#CCAE75"/>
<path d="M0.219238 10.2188V31.5273L4.96397 25.6768L8.16108 29.5919L15.1706 20.8828L21.0103 28.6908L33.1752 14.2906V10.2188H0.219238ZM6.61345 14.169H4.27312V15.4513H6.61345V16.5858H4.27312V18.1498H6.61345V19.2843H2.93826V13.0436H6.61345V14.169ZM13.0767 18.5803C12.5419 19.1602 11.851 19.4502 11.005 19.4502C10.0356 19.4502 9.23637 19.1414 8.60877 18.5229C7.98035 17.9051 7.66656 17.1198 7.66656 16.1677C7.66656 15.2247 7.982 14.4442 8.61288 13.8281C9.24375 13.2112 10.0414 12.9024 11.005 12.9024C11.5134 12.9024 11.9792 13.0091 12.4031 13.2227C12.8261 13.4355 13.2048 13.7535 13.5367 14.1774L12.6372 14.8426C12.4129 14.5633 12.1772 14.3629 11.9299 14.2389C11.6827 14.1156 11.3968 14.054 11.0731 14.054C10.4562 14.054 9.96335 14.2454 9.5937 14.6291C9.22404 15.0127 9.03921 15.5262 9.03921 16.1677C9.03921 16.7986 9.22487 17.3078 9.59534 17.6964C9.96665 18.0841 10.4505 18.278 11.0477 18.278C11.4847 18.278 11.8404 18.1754 12.1131 17.9692C12.3858 17.763 12.5222 17.4936 12.5222 17.1609V17.0926H11.0222V15.9935H13.8653C13.8709 16.0296 13.8743 16.0699 13.876 16.1126C13.8781 16.1553 13.8785 16.2203 13.8785 16.309C13.8785 17.2439 13.6106 18.0011 13.0767 18.5803ZM17.9193 19.2941L16.8965 18.0537L15.9042 19.2941H14.5776L16.8933 16.4487L19.2139 19.2941H17.9193ZM16.8933 15.9023L14.5751 13.0757H15.8697L16.8916 14.2947L17.8872 13.0757H19.2155L16.8933 15.9023Z" fill="#CCAE75"/>
<path d="M153.541 27.5475H151.982V34.7278H153.541V27.5475ZM150.357 34.0476C150.68 33.6591 150.847 33.1687 150.847 32.5789V27.559H149.288V32.1443C149.288 32.868 149.02 33.236 148.497 33.236H145.993C146.115 32.8902 146.182 32.523 146.182 32.1115V29.6849H144.612V32.1673C144.612 32.8795 144.345 33.236 143.821 33.236H137.264V32.2224C137.264 30.7421 136.217 29.6734 134.792 29.6734C133.312 29.6734 132.265 30.6862 132.265 32.1895C132.265 33.6698 133.334 34.727 134.792 34.727C135.315 34.727 135.627 34.7048 135.75 34.6605C135.627 35.0942 135.271 35.3168 134.67 35.3168H134.537V36.5638H134.703C136.217 36.5638 137.063 35.9518 137.242 34.727H148.82C149.477 34.727 149.989 34.5052 150.357 34.0476ZM135.705 33.236H134.804C134.224 33.236 133.846 32.7571 133.846 32.1222C133.846 31.5323 134.158 31.0756 134.748 31.0756C135.315 31.0756 135.705 31.4987 135.705 32.1558V33.236ZM130.439 35.9181C130.962 35.4622 131.219 34.727 131.219 33.7035V29.6849H129.649V33.8365C129.649 34.8165 129.137 35.3061 128.112 35.3061V36.5638C129.181 36.5638 129.96 36.3527 130.439 35.9181ZM126.943 34.727C126.977 34.382 126.999 34.037 126.999 33.7035C126.999 31.1873 125.93 29.6627 123.937 29.6627C122.69 29.6627 121.388 30.4193 120.397 31.6991V30.2188H118.839V32.1673C118.839 32.9683 118.56 33.236 118.048 33.236H103.174C102.417 33.236 102.038 32.8352 102.038 32.1V28.594C100.057 28.594 99.0661 28.594 99.0661 28.6047C97.5965 28.6047 96.7611 29.6734 96.7611 31.3319C96.7611 32.868 97.6187 34.0263 98.9544 34.0263C99.7224 34.0263 100.257 33.7922 100.536 33.3584C100.891 34.2711 101.515 34.727 102.405 34.727H126.943ZM100.435 31.2095C100.435 32.1222 100.035 32.735 99.3774 32.735C98.7539 32.735 98.3087 32.0893 98.3087 31.3097C98.3087 30.4415 98.7761 29.7408 99.4111 29.7408H100.435V31.2095ZM125.373 33.0356L125.362 33.236H120.798C121.655 31.7665 122.679 31.0206 123.826 31.0206C124.806 31.0206 125.373 31.8889 125.373 33.0356ZM100.101 27.559H101.482V26.2676H100.101V27.559ZM98.008 27.559H99.3889V26.2676H98.008V27.559ZM92.0525 34.727H93.6108V27.5475H92.0525V34.727ZM90.4268 34.0476C90.7497 33.6591 90.9164 33.1687 90.9164 32.5789V27.559H89.3581V32.1443C89.3581 32.868 89.0903 33.236 88.567 33.236H86.6966C86.6966 31.5997 85.7166 30.6312 84.0917 30.6312C82.4776 30.6312 81.5641 31.6326 81.5641 33.236H79.393C79.2484 30.954 78.1797 29.6627 76.3536 29.6627C75.1075 29.6627 73.8153 30.4078 72.8353 31.6547V30.2188H71.2779V32.1673C71.2779 32.9683 70.9986 33.236 70.4868 33.236H63.6178V29.6849H62.048V33.8365C62.048 34.8165 61.5362 35.3061 60.5118 35.3061V36.5638C62.2813 36.5638 63.2843 35.9518 63.5397 34.727H82.0209C82.4883 35.362 83.1898 35.6848 84.1361 35.6848C85.0602 35.6848 85.7618 35.362 86.2185 34.727H88.8907C89.547 34.727 90.0588 34.5052 90.4268 34.0476ZM77.7789 33.0356L77.7681 33.236H73.2033C74.0609 31.7665 75.0844 31.0206 76.2312 31.0206C77.2112 31.0206 77.7789 31.8889 77.7789 33.0356ZM85.1489 33.2024C85.1489 33.9483 84.7711 34.4157 84.1361 34.4157C83.4789 34.4157 83.101 33.8809 83.101 33.135C83.101 32.4121 83.4789 31.8774 84.0474 31.8774H84.159C84.8154 31.8774 85.1489 32.3226 85.1489 33.2024ZM59.0973 34.0476C59.4201 33.6591 59.5877 33.1687 59.5877 32.5789V29.6849H58.0293V32.1443C58.0293 32.868 57.7616 33.236 57.2383 33.236H42.5309C41.7744 33.236 41.3957 32.8352 41.3957 32.1V28.594C39.4143 28.594 38.4237 28.594 38.4237 28.6047C36.9541 28.6047 36.1187 29.6734 36.1187 31.3319C36.1187 32.868 36.9763 34.0263 38.3119 34.0263C39.08 34.0263 39.6148 33.7922 39.8933 33.3584C40.2489 34.2711 40.8724 34.727 41.7629 34.727H57.5726C58.2183 34.727 58.7301 34.5051 59.0973 34.0476ZM39.7922 31.2095C39.7922 32.1222 39.3922 32.735 38.735 32.735C38.1115 32.735 37.6663 32.0893 37.6663 31.3097C37.6663 30.4415 38.1337 29.7408 38.7679 29.7408H39.7922V31.2095ZM39.4587 27.559H40.8396V26.2676H39.4587V27.559ZM37.3656 27.559H38.7457V26.2676H37.3656V27.559ZM57.3829 35.2839H56.0028V36.5753H57.3829V35.2839ZM59.4874 35.2839H58.0959V36.5753H59.4874V35.2839ZM146.025 35.2839H144.645V36.5753H146.025V35.2839Z" fill="#211E1E"/>
<path d="M153.781 18.5428V18.3596C153.781 17.9291 153.72 17.5422 153.598 17.1989C153.476 16.8547 153.299 16.5639 153.068 16.3265C152.837 16.0891 152.553 15.9075 152.219 15.7818C151.886 15.657 151.509 15.5937 151.092 15.5937C150.668 15.5937 150.287 15.657 149.95 15.7818C149.613 15.9075 149.325 16.0858 149.088 16.3166C148.849 16.5483 148.666 16.8292 148.538 17.1603C148.41 17.4913 148.346 17.8618 148.346 18.2733C148.346 18.6717 148.413 19.0315 148.548 19.3519C148.683 19.6739 148.874 19.9499 149.121 20.1807C149.369 20.4124 149.666 20.5907 150.013 20.7155C150.359 20.8412 150.742 20.9036 151.159 20.9036C152.521 20.9036 153.373 20.3385 153.713 19.2073H152.027C151.834 19.5162 151.549 19.6706 151.169 19.6706C150.462 19.6706 150.109 19.2944 150.109 18.5428H153.781ZM152.153 17.5307H150.157C150.202 17.2744 150.31 17.0748 150.48 16.9335C150.65 16.7922 150.87 16.7216 151.141 16.7216C151.398 16.7216 151.615 16.7955 151.796 16.9434C151.975 17.0913 152.094 17.2868 152.153 17.5307ZM147.304 21.1254C147.337 20.9069 147.353 20.6597 147.353 20.3836V15.7769H145.609V16.2977C145.21 15.8607 144.718 15.6422 144.134 15.6422C143.774 15.6422 143.442 15.7112 143.137 15.85C142.832 15.988 142.568 16.177 142.346 16.4177C142.124 16.6592 141.949 16.9417 141.821 17.2662C141.693 17.5907 141.628 17.9423 141.628 18.321C141.628 18.6939 141.687 19.0324 141.807 19.3379C141.925 19.6427 142.092 19.9047 142.307 20.1232C142.523 20.3418 142.778 20.5118 143.074 20.6342C143.37 20.7558 143.694 20.8174 144.047 20.8174C144.208 20.8174 144.355 20.8059 144.491 20.7837C144.626 20.7607 144.754 20.7237 144.876 20.6728C144.999 20.621 145.118 20.5553 145.238 20.4748C145.357 20.3943 145.48 20.2933 145.609 20.1717V20.6432C145.609 21.0096 145.51 21.2955 145.315 21.5016C145.118 21.707 144.838 21.8097 144.471 21.8097C144.041 21.8097 143.765 21.6454 143.642 21.3185H141.677C141.728 21.5879 141.831 21.8368 141.985 22.0652C142.139 22.2927 142.337 22.4923 142.578 22.6624C142.818 22.8324 143.099 22.9663 143.421 23.0624C143.743 23.1585 144.096 23.207 144.481 23.207C144.822 23.207 145.138 23.1684 145.43 23.0912C145.723 23.0139 145.984 22.908 146.216 22.7733C146.448 22.6385 146.645 22.4792 146.808 22.296C146.972 22.1128 147.092 21.9157 147.17 21.7037C147.228 21.5362 147.272 21.3439 147.304 21.1254ZM145.695 18.2347C145.695 18.3883 145.665 18.5345 145.604 18.6734C145.542 18.8114 145.463 18.9313 145.363 19.034C145.263 19.1375 145.145 19.2172 145.007 19.2747C144.868 19.333 144.722 19.3618 144.568 19.3618C144.407 19.3618 144.258 19.333 144.12 19.2747C143.982 19.2172 143.862 19.1375 143.763 19.034C143.664 18.9313 143.585 18.8114 143.526 18.6734C143.469 18.5345 143.44 18.3859 143.44 18.2249C143.44 18.0704 143.471 17.9258 143.532 17.7911C143.593 17.6564 143.674 17.5389 143.778 17.4395C143.881 17.3401 143.999 17.2596 144.134 17.1989C144.269 17.1381 144.414 17.1069 144.568 17.1069C144.715 17.1069 144.858 17.1356 144.997 17.1939C145.135 17.2514 145.255 17.3319 145.358 17.4346C145.461 17.5373 145.542 17.6564 145.604 17.7911C145.665 17.9258 145.695 18.0737 145.695 18.2347ZM138.891 20.7204H140.636V17.5792C140.636 17.3155 140.61 17.0814 140.559 16.876C140.507 16.6698 140.411 16.4842 140.269 16.3166C140.096 16.1113 139.886 15.9527 139.639 15.8402C139.391 15.7276 139.094 15.671 138.746 15.671C138.419 15.671 138.134 15.7211 137.89 15.8205C137.645 15.9207 137.404 16.1145 137.167 16.4037V15.7769H135.422V20.7204H137.167V18.0803C137.167 17.7525 137.245 17.5003 137.403 17.3237C137.56 17.1471 137.786 17.0592 138.082 17.0592C138.191 17.0592 138.294 17.0748 138.391 17.1069C138.487 17.1389 138.573 17.1939 138.65 17.2711C138.741 17.3607 138.803 17.4814 138.838 17.6326C138.874 17.7829 138.891 17.9809 138.891 18.2249V20.7204ZM132.483 20.7204H134.237V15.7769H132.483V16.269C132.078 15.8385 131.567 15.6233 130.951 15.6233C130.584 15.6233 130.25 15.6923 129.948 15.8303C129.646 15.9683 129.386 16.1564 129.167 16.3938C128.949 16.6321 128.779 16.9097 128.656 17.2276C128.535 17.5455 128.473 17.8815 128.473 18.2347C128.473 18.6134 128.537 18.9642 128.661 19.2854C128.786 19.6057 128.961 19.8858 129.186 20.1232C129.411 20.3606 129.675 20.5463 129.977 20.6777C130.279 20.8092 130.61 20.8749 130.97 20.8749C131.605 20.8749 132.11 20.6399 132.483 20.1717V20.7204ZM132.54 18.2536C132.54 18.408 132.51 18.5526 132.449 18.6873C132.388 18.8221 132.308 18.9412 132.208 19.0439C132.108 19.1465 131.989 19.227 131.851 19.2854C131.713 19.3429 131.567 19.3716 131.413 19.3716C131.252 19.3716 131.103 19.3429 130.965 19.2854C130.827 19.227 130.708 19.1465 130.608 19.0439C130.508 18.9412 130.43 18.8212 130.372 18.6824C130.314 18.5444 130.285 18.3949 130.285 18.2347C130.285 18.0803 130.314 17.9373 130.372 17.8059C130.43 17.6745 130.508 17.557 130.608 17.4543C130.708 17.3508 130.827 17.2711 130.965 17.2128C131.103 17.1553 131.252 17.1266 131.413 17.1266C131.567 17.1266 131.713 17.1553 131.851 17.2128C131.989 17.2711 132.108 17.3508 132.208 17.4543C132.308 17.557 132.388 17.6769 132.449 17.815C132.51 17.9538 132.54 18.0992 132.54 18.2536ZM125.736 20.7204H127.481V17.5792C127.481 16.9951 127.322 16.5302 127.004 16.1868C126.686 15.8435 126.215 15.671 125.592 15.671C125.264 15.671 124.978 15.7211 124.734 15.8205C124.49 15.9207 124.249 16.1145 124.011 16.4037V12.7227H122.267V20.7204H124.011V18.0803C124.011 17.7525 124.09 17.5003 124.248 17.3237C124.405 17.1471 124.631 17.0592 124.927 17.0592C125.146 17.0592 125.332 17.1266 125.486 17.2613C125.576 17.3451 125.64 17.4634 125.679 17.6178C125.717 17.7722 125.736 17.9743 125.736 18.2249V20.7204ZM120.051 20.8749C120.436 20.8749 120.844 20.7821 121.275 20.5956V19.1112C120.991 19.3363 120.687 19.4488 120.359 19.4488C120.192 19.4488 120.034 19.4201 119.887 19.3618C119.739 19.3043 119.612 19.2221 119.506 19.1161C119.4 19.0102 119.317 18.8853 119.256 18.7407C119.194 18.5962 119.164 18.4368 119.164 18.2635C119.164 18.0836 119.194 17.9217 119.256 17.7763C119.317 17.6326 119.402 17.5069 119.511 17.4009C119.62 17.295 119.747 17.2128 119.892 17.1553C120.036 17.0978 120.192 17.0682 120.359 17.0682C120.667 17.0682 120.973 17.1709 121.275 17.3771V15.8927C120.915 15.7128 120.522 15.6233 120.099 15.6233C119.713 15.6233 119.352 15.689 119.015 15.8205C118.677 15.9527 118.387 16.1351 118.143 16.37C117.898 16.6049 117.706 16.8842 117.564 17.2087C117.423 17.5324 117.352 17.8913 117.352 18.2824C117.352 18.675 117.426 19.0291 117.573 19.3478C117.721 19.6657 117.919 19.9384 118.166 20.1668C118.414 20.3943 118.7 20.5701 119.024 20.6917C119.349 20.8141 119.69 20.8749 120.051 20.8749ZM116.947 20.7204L114.471 18.0417L116.523 15.7769H114.249L113.381 16.7988L112.534 15.7769H110.259L112.263 18.0417L109.797 20.7204H112.1L113.372 19.2558L114.634 20.7204H116.947ZM105.064 20.7204H109.199V19.1211H106.954V17.8683H109.074V16.269H106.954V15.0549H109.199V13.4547H105.064V20.7204ZM98.6947 20.7204H100.439V17.5792C100.439 17.3155 100.413 17.0814 100.361 16.876C100.31 16.6698 100.214 16.4842 100.072 16.3166C99.8989 16.1113 99.6886 15.9527 99.4414 15.8402C99.1941 15.7276 98.8968 15.671 98.5501 15.671C98.2223 15.671 97.9365 15.7211 97.6925 15.8205C97.4477 15.9207 97.207 16.1145 96.9696 16.4037V15.7769H95.2249V20.7204H96.9696V18.0803C96.9696 17.7525 97.0477 17.5003 97.2054 17.3237C97.3631 17.1471 97.589 17.0592 97.8847 17.0592C97.994 17.0592 98.0967 17.0748 98.1936 17.1069C98.2897 17.1389 98.376 17.1939 98.4532 17.2711C98.5435 17.3607 98.606 17.4814 98.6413 17.6326C98.6766 17.7829 98.6947 17.9809 98.6947 18.2249V20.7204ZM92.2857 20.7204H94.0395V15.7769H92.2857V16.269C91.8807 15.8385 91.3706 15.6233 90.7528 15.6233C90.3873 15.6233 90.053 15.6923 89.7507 15.8303C89.4484 15.9683 89.1888 16.1564 88.9703 16.3938C88.7518 16.6321 88.5817 16.9097 88.4593 17.2276C88.3377 17.5455 88.2762 17.8815 88.2762 18.2347C88.2762 18.6134 88.3394 18.9642 88.4643 19.2854C88.59 19.6057 88.7649 19.8858 88.9892 20.1232C89.2143 20.3606 89.4779 20.5463 89.7802 20.6777C90.0817 20.8092 90.4119 20.8749 90.7726 20.8749C91.4084 20.8749 91.9127 20.6399 92.2857 20.1717V20.7204ZM92.3432 18.2536C92.3432 18.408 92.3128 18.5526 92.252 18.6873C92.1904 18.8221 92.1107 18.9412 92.0113 19.0439C91.9111 19.1465 91.7928 19.227 91.654 19.2854C91.516 19.3429 91.3706 19.3716 91.2161 19.3716C91.0551 19.3716 90.9056 19.3429 90.7676 19.2854C90.6296 19.227 90.5105 19.1465 90.4111 19.0439C90.3117 18.9412 90.2329 18.8212 90.1745 18.6824C90.117 18.5444 90.0883 18.3949 90.0883 18.2347C90.0883 18.0803 90.117 17.9373 90.1745 17.8059C90.2329 17.6745 90.3117 17.557 90.4111 17.4543C90.5105 17.3508 90.6296 17.2711 90.7676 17.2128C90.9056 17.1553 91.0551 17.1266 91.2161 17.1266C91.3706 17.1266 91.516 17.1553 91.654 17.2128C91.7928 17.2711 91.9111 17.3508 92.0113 17.4543C92.1107 17.557 92.1904 17.6769 92.252 17.815C92.3128 17.9538 92.3432 18.0992 92.3432 18.2536ZM87.3027 14.2597C87.3545 14.1406 87.3799 14.0141 87.3799 13.8794C87.3799 13.7438 87.3545 13.6173 87.3027 13.4982C87.2518 13.3791 87.1811 13.2756 87.0908 13.1852C87.0012 13.0949 86.8969 13.025 86.7778 12.9733C86.6587 12.9215 86.5322 12.8961 86.3975 12.8961C86.2619 12.8961 86.1354 12.9215 86.0163 12.9733C85.8972 13.025 85.7929 13.0949 85.7034 13.1852C85.613 13.2756 85.5423 13.3791 85.4914 13.4982C85.4397 13.6173 85.4142 13.7438 85.4142 13.8794C85.4142 14.0141 85.4397 14.1406 85.4914 14.2597C85.5423 14.3788 85.613 14.4831 85.7034 14.5727C85.7929 14.663 85.8972 14.7337 86.0163 14.7846C86.1354 14.8364 86.2619 14.8618 86.3975 14.8618C86.5322 14.8618 86.6587 14.8364 86.7778 14.7846C86.8969 14.7337 87.0012 14.663 87.0908 14.5727C87.1811 14.4831 87.2518 14.3788 87.3027 14.2597ZM83.8822 17.2325H84.8745V15.7769H83.8822V14.2934H82.1374V15.7769H81.5591V17.2325H82.1374V20.7204H83.8822V17.2325ZM80.7549 19.2854C80.8798 18.9699 80.943 18.6298 80.943 18.2635C80.943 17.8971 80.8798 17.5537 80.7549 17.2325C80.6292 16.9114 80.4543 16.6321 80.2292 16.3938C80.0049 16.1564 79.7396 15.9683 79.434 15.8303C79.1292 15.6923 78.7998 15.6233 78.4466 15.6233C77.8034 15.6233 77.2957 15.8574 76.9236 16.3265V15.7769H75.1797V23.1873H76.9236V20.2391C77.3352 20.6629 77.8486 20.8749 78.4655 20.8749C78.8187 20.8749 79.1465 20.8075 79.4488 20.6728C79.7511 20.5373 80.0123 20.3516 80.2341 20.1134C80.4559 19.876 80.6292 19.6 80.7549 19.2854ZM79.121 18.2635C79.121 18.4113 79.0906 18.5526 79.0298 18.6873C78.9682 18.8221 78.8877 18.9412 78.7883 19.0439C78.6889 19.1465 78.5715 19.227 78.4367 19.2854C78.302 19.3429 78.1575 19.3716 78.003 19.3716C77.8486 19.3716 77.7024 19.3412 77.5652 19.2796C77.4263 19.2188 77.3056 19.1391 77.2029 19.0389C77.1002 18.9395 77.0197 18.8221 76.9622 18.6873C76.9047 18.5526 76.8752 18.408 76.8752 18.2536C76.8752 18.0992 76.9064 17.9538 76.9672 17.815C77.028 17.6769 77.1084 17.557 77.2079 17.4543C77.3072 17.3508 77.4247 17.2711 77.5603 17.2128C77.695 17.1553 77.8387 17.1266 77.9932 17.1266C78.1542 17.1266 78.3037 17.157 78.4417 17.2178C78.5797 17.2794 78.7004 17.3607 78.8031 17.4634C78.9058 17.5661 78.9847 17.6868 79.0389 17.8248C79.0939 17.9628 79.121 18.109 79.121 18.2635ZM70.6116 23.1873L74.5825 15.7769H72.5773L71.2958 18.3119L69.9758 15.7769H67.9517L70.3421 20.046L68.6548 23.1873H70.6116ZM67.3151 21.1254C67.3471 20.9069 67.3635 20.6597 67.3635 20.3836V15.7769H65.6196V16.2977C65.2212 15.8607 64.7291 15.6422 64.1442 15.6422C63.7844 15.6422 63.4526 15.7112 63.147 15.85C62.8422 15.988 62.5785 16.177 62.3567 16.4177C62.1349 16.6592 61.96 16.9417 61.831 17.2662C61.7029 17.5907 61.6388 17.9423 61.6388 18.321C61.6388 18.6939 61.6979 19.0324 61.817 19.3379C61.9362 19.6427 62.1029 19.9047 62.3181 20.1232C62.5333 20.3418 62.7888 20.5118 63.0846 20.6342C63.3803 20.7558 63.7048 20.8174 64.058 20.8174C64.2182 20.8174 64.366 20.8059 64.5016 20.7837C64.6363 20.7607 64.7644 20.7237 64.8868 20.6728C65.0084 20.621 65.1292 20.5553 65.2483 20.4748C65.3666 20.3943 65.4906 20.2933 65.6196 20.1717V20.6432C65.6196 21.0096 65.521 21.2955 65.3255 21.5016C65.1292 21.707 64.8482 21.8097 64.4819 21.8097C64.0514 21.8097 63.7754 21.6454 63.653 21.3185H61.6873C61.7382 21.5879 61.8409 21.8368 61.9953 22.0652C62.1497 22.2927 62.3469 22.4923 62.5884 22.6624C62.8291 22.8324 63.11 22.9663 63.4312 23.0624C63.7532 23.1585 64.1065 23.207 64.4917 23.207C64.8318 23.207 65.1489 23.1684 65.4405 23.0912C65.7329 23.0139 65.995 22.908 66.2266 22.7733C66.4575 22.6385 66.6554 22.4792 66.8189 22.296C66.9832 22.1128 67.1031 21.9157 67.1803 21.7037C67.2386 21.5362 67.283 21.3439 67.3151 21.1254ZM65.7058 18.2347C65.7058 18.3883 65.6754 18.5345 65.6146 18.6734C65.553 18.8114 65.4734 18.9313 65.3731 19.034C65.2737 19.1375 65.1546 19.2172 65.0166 19.2747C64.8786 19.333 64.7324 19.3618 64.578 19.3618C64.4178 19.3618 64.2683 19.333 64.1303 19.2747C63.9914 19.2172 63.8732 19.1375 63.7738 19.034C63.6736 18.9313 63.5955 18.8114 63.5372 18.6734C63.4797 18.5345 63.4509 18.3859 63.4509 18.2249C63.4509 18.0704 63.4813 17.9258 63.5429 17.7911C63.6037 17.6564 63.685 17.5389 63.7885 17.4395C63.8912 17.3401 64.0095 17.2596 64.1442 17.1989C64.2798 17.1381 64.4243 17.1069 64.578 17.1069C64.7258 17.1069 64.8688 17.1356 65.0076 17.1939C65.1456 17.2514 65.2655 17.3319 65.3682 17.4346C65.4717 17.5373 65.553 17.6564 65.6146 17.7911C65.6754 17.9258 65.7058 18.0737 65.7058 18.2347ZM56.5022 20.7204H60.6366V19.1211H58.3916V17.8683H60.5118V16.269H58.3916V15.0549H60.6366V13.4547H56.5022V20.7204ZM48.3977 18.5428H52.0696V18.3596C52.0696 17.9291 52.008 17.5422 51.8865 17.1989C51.7641 16.8547 51.5874 16.5639 51.3558 16.3265C51.125 16.0891 50.8424 15.9075 50.5081 15.7818C50.1737 15.657 49.7983 15.5937 49.3802 15.5937C48.9563 15.5937 48.576 15.657 48.2384 15.7818C47.9016 15.9075 47.6132 16.0858 47.3758 16.3166C47.1384 16.5483 46.9553 16.8292 46.8263 17.1603C46.6981 17.4913 46.6341 17.8618 46.6341 18.2733C46.6341 18.6717 46.7014 19.0315 46.8361 19.3519C46.9717 19.6739 47.1623 19.9499 47.4095 20.1807C47.6568 20.4124 47.9542 20.5907 48.3008 20.7155C48.6483 20.8412 49.0303 20.9036 49.4484 20.9036C50.8103 20.9036 51.6614 20.3385 52.0023 19.2073H50.315C50.1228 19.5162 49.8369 19.6706 49.4574 19.6706C48.751 19.6706 48.3977 19.2944 48.3977 18.5428ZM48.4462 17.5307C48.4906 17.2744 48.5982 17.0748 48.7682 16.9335C48.9383 16.7922 49.1592 16.7216 49.4287 16.7216C49.6858 16.7216 49.9043 16.7955 50.0842 16.9434C50.2633 17.0913 50.3832 17.2868 50.4407 17.5307H48.4462ZM43.897 20.7204H45.6418V17.5792C45.6418 16.9951 45.4824 16.5302 45.1645 16.1868C44.8457 15.8435 44.3751 15.671 43.7524 15.671C43.4246 15.671 43.1388 15.7211 42.8948 15.8205C42.6508 15.9207 42.4093 16.1145 42.1719 16.4037V12.7227H40.4271V20.7204H42.1719V18.0803C42.1719 17.7525 42.2508 17.5003 42.4077 17.3237C42.5654 17.1471 42.7921 17.0592 43.087 17.0592C43.3055 17.0592 43.492 17.1266 43.6464 17.2613C43.736 17.3451 43.8009 17.4634 43.8395 17.6178C43.8773 17.7722 43.897 17.9743 43.897 18.2249V20.7204ZM38.201 15.0549H39.7527V13.4547H34.7607V15.0549H36.3125V20.7204H38.201V15.0549ZM87.274 15.7769H85.53V20.7204H87.274V15.7769Z" fill="#211E1E"/>
</g>
</g>
<defs>
<clipPath id="clip0_201_3692">
<rect width="154" height="51" fill="white"/>
</clipPath>
</defs>
</svg>
