<svg width="46" height="54" viewBox="0 0 46 54" fill="none" xmlns="http://www.w3.org/2000/svg">
<g clip-path="url(#clip0_201_3242)">
<path d="M29.9851 16.2676H16.0999C15.1629 16.2676 14.3962 17.0342 14.3962 17.9713V36.5417C14.3962 37.4787 15.1629 38.2454 16.0999 38.2454H29.9851C30.9222 38.2454 31.6888 37.4787 31.6888 36.5417V17.9713C31.6888 17.0342 30.837 16.2676 29.9851 16.2676ZM28.537 32.3676H17.5481V30.6639H28.6222L28.537 32.3676ZM28.537 27.7676H17.5481V26.0639H28.6222L28.537 27.7676ZM28.537 23.1676H17.5481V21.4639H28.6222L28.537 23.1676Z" fill="#0662AD"/>
<g opacity="0.1">
<path d="M23 50C16.8667 50 11.0741 47.6148 6.72963 43.2704C2.47037 38.9259 0 33.1333 0 27C0 20.8667 2.38519 15.0741 6.72963 10.7296C11.0741 6.47037 16.8667 4 23 4C29.1333 4 34.9259 6.38519 39.2704 10.7296C48.2148 19.6741 48.2148 34.2407 39.2704 43.1852C34.9259 47.5296 29.1333 50 23 50ZM23 9.28148C18.2296 9.28148 13.8 11.1556 10.4778 14.4778C7.07037 17.8 5.1963 22.2296 5.1963 27C5.1963 31.7704 7.07037 36.2 10.3926 39.5222C13.7148 42.8444 18.2296 44.7185 22.9148 44.7185C27.6852 44.7185 32.1148 42.8444 35.437 39.5222C42.337 32.6222 42.337 21.2926 35.437 14.3926C32.2 11.0704 27.7704 9.28148 23 9.28148Z" fill="#0061AE"/>
</g>
</g>
<defs>
<clipPath id="clip0_201_3242">
<rect width="46" height="54" fill="white"/>
</clipPath>
</defs>
</svg>
