<svg width="46" height="54" viewBox="0 0 46 54" fill="none" xmlns="http://www.w3.org/2000/svg">
<g clip-path="url(#clip0_201_3588)">
<path d="M23 49.1479C35.232 49.1479 45.1481 39.2318 45.1481 26.9997C45.1481 14.7676 35.232 4.85156 23 4.85156C10.7679 4.85156 0.851807 14.7676 0.851807 26.9997C0.851807 39.2318 10.7679 49.1479 23 49.1479Z" stroke="#0662AD" stroke-width="1.7037" stroke-miterlimit="10" stroke-linecap="round"/>
<path d="M23 49.1479C28.6927 49.1479 33.3074 39.2318 33.3074 26.9997C33.3074 14.7676 28.6927 4.85156 23 4.85156C17.3074 4.85156 12.6926 14.7676 12.6926 26.9997C12.6926 39.2318 17.3074 49.1479 23 49.1479Z" stroke="#0662AD" stroke-width="1.7037" stroke-miterlimit="10" stroke-linecap="round"/>
<path d="M2.04443 19.7598H43.9555" stroke="#0662AD" stroke-width="1.7037" stroke-miterlimit="10" stroke-linecap="round"/>
<path d="M2.12964 34.4102H43.8704" stroke="#0662AD" stroke-width="1.7037" stroke-miterlimit="10" stroke-linecap="round"/>
</g>
<defs>
<clipPath id="clip0_201_3588">
<rect width="46" height="54" fill="white"/>
</clipPath>
</defs>
</svg>
