<svg width="154" height="51" viewBox="0 0 154 51" fill="none" xmlns="http://www.w3.org/2000/svg">
<g clip-path="url(#clip0_201_3705)">
<mask id="mask0_201_3705" style="mask-type:luminance" maskUnits="userSpaceOnUse" x="0" y="0" width="154" height="51">
<path d="M154 0H0V51H154V0Z" fill="white"/>
</mask>
<g mask="url(#mask0_201_3705)">
<path d="M75.3712 0.67591C70.3006 0.994255 65.3363 2.91848 61.3634 6.10901C56.6752 9.87256 53.5096 15.1217 52.3978 20.9722C52.0933 22.5922 52.0083 23.618 52.0083 25.6059C52.0083 28.1102 52.1995 29.6737 52.7802 31.9021C54.579 38.8066 59.3592 44.7066 65.7187 47.8972C70.3714 50.2246 75.4491 51.0594 80.5409 50.3237C88.5504 49.1705 95.5685 44.1548 99.2369 36.9532C100.625 34.2225 101.432 31.5696 101.836 28.4003C101.963 27.4028 101.963 23.809 101.836 22.8116C101.255 18.2274 99.6547 14.2092 97.0061 10.6791C92.5375 4.72244 85.8452 1.1216 78.381 0.668836C77.085 0.591018 76.7096 0.591018 75.3712 0.67591ZM80.116 1.40457C82.4034 1.72999 84.5209 2.31008 86.518 3.15901C89.5915 4.46068 92.5941 6.57591 94.8532 9.01656C100.257 14.8671 102.452 22.6842 100.894 30.5226C100.682 31.5979 100.179 33.2887 99.7609 34.364C97.8843 39.1674 94.6054 43.1998 90.2784 46.0366C87.2403 48.0245 83.7915 49.2979 80.0806 49.8002C78.9333 49.9558 76.221 50.0195 74.9675 49.9134C68.9905 49.4111 63.4879 46.7723 59.3167 42.4146C52.8369 35.6515 50.8256 25.7828 54.1328 16.9894C54.3099 16.5154 54.7419 15.5533 55.0818 14.8529C56.3565 12.2779 57.9216 10.1202 59.9753 8.13227C63.9624 4.26968 68.8418 1.97759 74.4364 1.3409C75.5766 1.20649 79.0112 1.24893 80.116 1.40457Z" fill="#663494"/>
<path d="M75.64 3.87981C75.2576 4.0496 75.1726 4.26183 75.208 4.95511C75.2363 5.47861 75.2647 5.57765 75.4134 5.73329C75.7604 6.07993 76.4827 5.99504 76.6739 5.57765C76.7802 5.33005 76.7731 4.53065 76.6527 4.2406C76.4969 3.87274 76.0437 3.71003 75.64 3.87981ZM76.2703 4.25475C76.4473 4.41039 76.4544 5.36542 76.2774 5.56351C76.1286 5.73329 75.8666 5.72621 75.6896 5.54936C75.5692 5.42909 75.5479 5.3159 75.5479 4.85607C75.5479 4.52358 75.5833 4.2689 75.6329 4.21938C75.7533 4.09912 76.1145 4.11327 76.2703 4.25475Z" fill="#663494"/>
<path d="M77.9916 3.85138C77.8004 3.92213 77.6941 4.05654 77.6375 4.29707C77.595 4.46685 77.6092 4.48807 77.765 4.48807C77.8924 4.48807 77.9562 4.43855 77.9845 4.31122C78.0341 4.11313 78.3386 3.99994 78.5156 4.11313C78.5794 4.15558 78.636 4.28292 78.6502 4.39611C78.6785 4.65786 78.4802 4.91253 77.9278 5.30162C77.418 5.66949 77.4109 5.79683 77.9066 5.8605C78.1049 5.88172 78.4236 5.90294 78.6148 5.90294C78.8981 5.90294 78.9476 5.88172 78.9476 5.76146C78.9476 5.63412 78.8981 5.61997 78.5156 5.61997H78.0766L78.551 5.17429C78.9618 4.7852 79.0184 4.7003 79.0184 4.47393C79.0184 4.12021 78.9618 4.00702 78.7281 3.88675C78.5086 3.77357 78.2182 3.75942 77.9916 3.85138Z" fill="#663494"/>
<path d="M73.3102 4.12785C73.1189 4.24104 72.9277 4.57353 72.9277 4.77869C72.9277 4.81406 73.0056 4.84236 73.0977 4.84236C73.2252 4.84236 73.2747 4.79284 73.3031 4.6372C73.381 4.26226 73.82 4.17737 73.9971 4.49572C74.1104 4.71502 73.9688 5.02629 73.5297 5.54979C72.949 6.22893 72.9773 6.25723 74.0042 6.08744C74.6132 5.9884 74.6486 5.97425 74.592 5.81862C74.5566 5.73373 74.4857 5.72665 74.252 5.7691C73.6855 5.87521 73.6784 5.86814 73.99 5.45783C74.3653 4.95555 74.4574 4.68672 74.3441 4.41082C74.1812 4.02173 73.7067 3.88732 73.3102 4.12785Z" fill="#663494"/>
<path d="M80.3923 4.14266C80.0665 4.23463 79.9532 4.41149 79.8258 5.01988C79.7195 5.52923 79.7195 5.5929 79.8258 5.81221C80.0099 6.2013 80.5269 6.35693 80.9234 6.15177C81.1501 6.03859 81.2421 5.8405 81.3625 5.21796C81.4263 4.86425 81.4263 4.72983 81.3554 4.56005C81.2209 4.22756 80.7676 4.03655 80.3923 4.14266ZM80.9589 4.53175C81.0934 4.65909 81.1005 4.8218 81.0013 5.3453C80.8951 5.9254 80.5339 6.1447 80.2153 5.82636C80.0878 5.69902 80.0736 5.62827 80.1161 5.28163C80.1728 4.82887 80.2648 4.55298 80.3852 4.47516C80.5269 4.38319 80.8455 4.41149 80.9589 4.53175Z" fill="#663494"/>
<path d="M83.3309 5.80522C83.2672 5.88304 83.2601 5.94671 83.3167 6.0316C83.4159 6.18724 83.6213 6.18724 83.7204 6.02453C83.7841 5.91841 83.77 5.87596 83.6638 5.79107C83.4867 5.66373 83.4442 5.66373 83.3309 5.80522Z" fill="#663494"/>
<path d="M69.9608 5.92545C69.8334 6.08816 69.9467 6.27209 70.1591 6.2438C70.3008 6.22965 70.3433 6.1872 70.3433 6.04572C70.3433 5.84056 70.1025 5.76274 69.9608 5.92545Z" fill="#663494"/>
<path d="M84.7119 6.36418C84.6411 6.54104 84.7403 6.68253 84.9244 6.68253C85.1156 6.68253 85.2218 6.4986 85.1014 6.35711C84.9952 6.2227 84.7615 6.22977 84.7119 6.36418Z" fill="#663494"/>
<path d="M68.5869 6.44147C68.516 6.51929 68.5231 6.7386 68.6081 6.78812C68.7497 6.87301 68.9693 6.74567 68.948 6.59004C68.9268 6.4344 68.6931 6.34243 68.5869 6.44147Z" fill="#663494"/>
<path d="M86.1142 6.98524C86.0009 7.11965 86.1708 7.33896 86.355 7.30359C86.5533 7.26822 86.5391 6.93572 86.3408 6.90742C86.2629 6.89327 86.1567 6.92865 86.1142 6.98524Z" fill="#663494"/>
<path d="M67.1986 7.12857C67.0712 7.29128 67.1845 7.47521 67.3969 7.44692C67.5386 7.43277 67.581 7.39032 67.581 7.24883C67.581 7.04368 67.3403 6.96586 67.1986 7.12857Z" fill="#663494"/>
<path d="M87.4599 7.68603C87.3324 7.81337 87.3536 7.94071 87.5236 8.03268C87.729 8.13879 87.9414 7.94778 87.8281 7.75677C87.729 7.60114 87.5732 7.57284 87.4599 7.68603Z" fill="#663494"/>
<path d="M65.931 7.82873C65.8248 7.93485 65.8177 8.14708 65.9168 8.20367C65.9593 8.22489 66.0514 8.22489 66.1293 8.20367C66.2992 8.14708 66.3205 7.84995 66.1576 7.78628C66.016 7.72969 66.0301 7.72969 65.931 7.82873Z" fill="#663494"/>
<path d="M88.678 8.55589C88.6284 8.67615 88.763 8.87423 88.8975 8.87423C88.9471 8.87423 89.025 8.82471 89.0746 8.76812C89.1454 8.68323 89.1454 8.64078 89.0746 8.55589C88.9613 8.42148 88.7276 8.42148 88.678 8.55589Z" fill="#663494"/>
<path d="M64.6563 8.67669C64.5289 8.80403 64.5501 8.93137 64.7059 9.01626C64.8121 9.06578 64.8688 9.05871 64.9538 8.97381C65.0175 8.91722 65.0671 8.8394 65.0671 8.81111C65.0671 8.73329 64.9042 8.5918 64.8192 8.5918C64.7767 8.5918 64.7059 8.62717 64.6563 8.67669Z" fill="#663494"/>
<path d="M89.8816 9.47581C89.832 9.59607 89.9666 9.79416 90.1011 9.79416C90.1507 9.79416 90.2286 9.74464 90.2782 9.68805C90.349 9.60315 90.349 9.5607 90.2782 9.47581C90.1649 9.3414 89.9312 9.3414 89.8816 9.47581Z" fill="#663494"/>
<path d="M63.4808 9.62572C63.3462 9.76013 63.3604 9.85917 63.5304 9.96529C63.7003 10.0714 63.927 9.84503 63.8207 9.67524C63.7145 9.50546 63.6154 9.49131 63.4808 9.62572Z" fill="#663494"/>
<path d="M91.0152 10.4657C90.9586 10.6001 91.1073 10.7841 91.2701 10.7841C91.433 10.7841 91.5109 10.586 91.4047 10.4587C91.2985 10.3243 91.0648 10.3313 91.0152 10.4657Z" fill="#663494"/>
<path d="M62.3121 10.7007C62.2554 10.8068 62.2625 10.8634 62.3404 10.9271C62.4962 11.0544 62.7441 10.9483 62.7157 10.7644C62.6874 10.5592 62.4112 10.5168 62.3121 10.7007Z" fill="#663494"/>
<path d="M92.0773 11.5768C92.0135 11.7749 92.2189 11.9446 92.4101 11.8385C92.5659 11.7607 92.5801 11.6263 92.4597 11.506C92.3251 11.3716 92.1339 11.407 92.0773 11.5768Z" fill="#663494"/>
<path d="M61.3278 11.7194C61.2145 11.8326 61.2216 12.0377 61.342 12.0801C61.4907 12.1367 61.689 11.967 61.6536 11.8043C61.6252 11.6415 61.4482 11.5991 61.3278 11.7194Z" fill="#663494"/>
<path d="M74.3442 13.1894V13.8261H76.9645H79.5848V13.1894V12.5527H76.9645H74.3442V13.1894Z" fill="#663494"/>
<path d="M93.1323 12.6024C92.8986 12.6944 93.1394 13.0835 93.3802 12.9986C93.5005 12.9491 93.4864 12.6449 93.3518 12.5954C93.2881 12.5741 93.2385 12.5529 93.2314 12.56C93.2244 12.56 93.1748 12.5812 93.1323 12.6024Z" fill="#663494"/>
<path d="M60.2941 12.9433C60.2375 13.099 60.3224 13.2617 60.4641 13.2617C60.627 13.2617 60.7757 13.0777 60.719 12.9433C60.6695 12.8089 60.3508 12.8018 60.2941 12.9433Z" fill="#663494"/>
<path d="M94.0529 13.8054C93.9042 13.862 93.9467 14.1662 94.1025 14.2157C94.2795 14.2723 94.3858 14.2086 94.3858 14.0388C94.3858 13.8903 94.1875 13.7559 94.0529 13.8054Z" fill="#663494"/>
<path d="M59.4867 14.1241C59.3734 14.2373 59.3805 14.3575 59.508 14.4637C59.6496 14.5839 59.8408 14.4283 59.8125 14.2231C59.7842 14.0534 59.6142 13.9968 59.4867 14.1241Z" fill="#663494"/>
<path d="M74.3442 15.0996V15.7363H76.9645H79.5848V15.0996V14.4629H76.9645H74.3442V15.0996Z" fill="#663494"/>
<path d="M94.7682 15.1993C94.6974 15.3832 94.7966 15.5389 94.9665 15.5106C95.0869 15.4964 95.1294 15.4398 95.1294 15.3125C95.1294 15.1851 95.0869 15.1286 94.9665 15.1144C94.8745 15.1003 94.7895 15.1356 94.7682 15.1993Z" fill="#663494"/>
<path d="M58.6937 15.4184C58.5591 15.5811 58.637 15.7721 58.8353 15.7721C58.9698 15.7721 59.0194 15.7297 59.0336 15.6023C59.069 15.3547 58.8495 15.2274 58.6937 15.4184Z" fill="#663494"/>
<path d="M95.5193 16.4791C95.3848 16.6419 95.4627 16.8329 95.661 16.8329C95.7743 16.8329 95.8451 16.7904 95.8593 16.7055C95.8876 16.5782 95.7601 16.373 95.661 16.373C95.6326 16.373 95.5689 16.4225 95.5193 16.4791Z" fill="#663494"/>
<path d="M57.9781 16.7701C57.8719 16.8975 57.9639 17.1026 58.148 17.138C58.3038 17.1734 58.4455 16.8904 58.3322 16.756C58.2259 16.6286 58.0985 16.6286 57.9781 16.7701Z" fill="#663494"/>
<path d="M96.0929 17.8797C95.9158 18.099 96.1849 18.3466 96.4186 18.1768C96.5178 18.099 96.5319 18.0495 96.4682 17.9505C96.3691 17.7877 96.1991 17.7524 96.0929 17.8797Z" fill="#663494"/>
<path d="M57.3837 18.2194C57.32 18.4104 57.4829 18.5873 57.6599 18.5236C57.837 18.4529 57.7803 18.1133 57.582 18.085C57.4758 18.0709 57.4191 18.1062 57.3837 18.2194Z" fill="#663494"/>
<path d="M96.5812 19.3374C96.5317 19.4435 96.5387 19.5072 96.6237 19.5921C96.7583 19.7194 96.8574 19.7053 96.9637 19.5426C97.0132 19.4577 97.0062 19.394 96.9424 19.3162C96.8149 19.1606 96.6733 19.1747 96.5812 19.3374Z" fill="#663494"/>
<path d="M56.9228 19.5925C56.8165 19.7198 56.8732 19.8967 57.0361 19.9603C57.206 20.024 57.3618 19.7906 57.2698 19.6208C57.1848 19.4581 57.0432 19.451 56.9228 19.5925Z" fill="#663494"/>
<path d="M65.8467 22.9179V25.1463H66.2362H66.6257V22.9179V20.6895H66.2362H65.8467V22.9179Z" fill="#663494"/>
<path d="M79.5845 22.9179V25.1463H79.9386C80.2714 25.1463 80.2927 25.1321 80.2927 24.9624V24.7855L80.5264 24.9624C81.1354 25.4293 82.1198 25.2807 82.5376 24.6511C83.1466 23.7597 82.7642 22.4793 81.8011 22.2034C81.362 22.076 81.0008 22.1255 80.6326 22.359L80.3635 22.5288V21.6091V20.6895H79.974H79.5845V22.9179ZM81.6382 22.9179C81.8932 23.0523 82.0631 23.3565 82.0631 23.696C82.0631 24.2054 81.7019 24.5803 81.2133 24.5803C80.7247 24.5803 80.3635 24.2054 80.3635 23.696C80.3635 23.0098 81.0292 22.5995 81.6382 22.9179Z" fill="#663494"/>
<path d="M96.9635 20.7872C96.8927 20.9712 96.9919 21.1268 97.1618 21.0985C97.2822 21.0843 97.3247 21.0277 97.3247 20.9004C97.3247 20.7731 97.2822 20.7165 97.1618 20.7023C97.0698 20.6882 96.9848 20.7235 96.9635 20.7872Z" fill="#663494"/>
<path d="M62.1423 20.81C62.114 20.8312 62.0928 21.8216 62.0928 23.003V25.1465H63.2117C64.2952 25.1465 64.3448 25.1395 64.713 24.9485C65.1592 24.7221 65.3504 24.425 65.3504 23.9368C65.3504 23.5407 65.1379 23.194 64.7768 22.9889L64.5218 22.8474L64.7839 22.6634C64.9751 22.529 65.0671 22.3946 65.1167 22.1824C65.2867 21.5386 64.9184 20.9868 64.2244 20.8383C63.8278 20.7534 62.2202 20.7322 62.1423 20.81ZM64.1748 21.6164C64.4014 21.7933 64.4298 22.1753 64.2244 22.3805C64.0686 22.5361 63.6224 22.621 63.1905 22.5856L62.9072 22.5644L62.8859 22.0126L62.8647 21.4679H63.4242C63.8845 21.4679 64.019 21.4962 64.1748 21.6164ZM64.3944 23.4487C64.5856 23.6256 64.6281 23.9227 64.4935 24.1703C64.3731 24.3896 63.9907 24.5099 63.4029 24.5099H62.8718V23.8661V23.2223L63.5445 23.2506C64.1252 23.2718 64.2386 23.3001 64.3944 23.4487Z" fill="#663494"/>
<path d="M56.5475 21.0139C56.4625 21.0988 56.4908 21.304 56.6041 21.3959C56.7458 21.5162 56.937 21.3605 56.9086 21.1554C56.8874 21.0068 56.6466 20.9149 56.5475 21.0139Z" fill="#663494"/>
<path d="M68.233 22.2021C67.1211 22.5134 66.7458 24.0202 67.5885 24.8055C68.1763 25.3573 69.3023 25.3714 69.8689 24.8409C70.2584 24.4801 70.4425 23.8575 70.3079 23.3199C70.1026 22.4426 69.1678 21.9404 68.233 22.2021ZM69.1748 22.9166C69.7414 23.2067 69.7343 24.1334 69.1748 24.4659C68.7924 24.6852 68.2542 24.565 68.0134 24.19C67.8435 23.9283 67.8505 23.4048 68.0276 23.1713C68.2896 22.8105 68.7712 22.7044 69.1748 22.9166Z" fill="#663494"/>
<path d="M71.738 22.2306C71.0653 22.4711 70.7183 22.9592 70.7183 23.6596C70.7183 24.367 71.0724 24.9047 71.6885 25.1452C71.8089 25.1947 72.0992 25.2301 72.3471 25.2301C72.9844 25.223 73.4518 24.9542 73.728 24.4307C73.9051 24.0982 73.9263 23.985 73.9051 23.5747C73.8838 23.1856 73.8413 23.0441 73.6714 22.7965C73.2677 22.2306 72.4391 21.983 71.738 22.2306ZM72.8924 23.0441C73.1827 23.3342 73.2606 23.6808 73.1119 24.0345C72.7791 24.841 71.5752 24.6854 71.4619 23.8223C71.384 23.2493 71.7664 22.8178 72.3542 22.8107C72.6091 22.8107 72.7012 22.8531 72.8924 23.0441Z" fill="#663494"/>
<path d="M75.6407 22.1822C75.5203 22.2176 75.3503 22.3308 75.2724 22.4298L75.1308 22.6067L75.1095 22.4086C75.0883 22.2246 75.06 22.2105 74.7555 22.1893L74.4155 22.168V23.6537V25.1463H74.7696H75.1237V24.262C75.1237 23.3212 75.1945 23.0311 75.4707 22.8826C75.7044 22.7623 76.0302 22.7977 76.186 22.9674C76.3134 23.1089 76.3276 23.215 76.3276 24.1347V25.1463H76.7171H77.1066V24.1559C77.1066 23.1938 77.1137 23.1514 77.2837 22.9887C77.5032 22.7623 77.8927 22.7481 78.0981 22.9533C78.2255 23.0806 78.2397 23.1867 78.2397 24.1206V25.1463H78.6292H79.0187V24.1347C79.0187 23.5829 78.9833 23.0099 78.9408 22.8543C78.8416 22.5005 78.615 22.2742 78.2468 22.1751C77.8502 22.069 77.4961 22.1468 77.1987 22.4086C76.9721 22.6067 76.9437 22.6137 76.88 22.5005C76.7879 22.3449 76.278 22.1044 76.0443 22.1115C75.9452 22.1115 75.7681 22.1468 75.6407 22.1822Z" fill="#663494"/>
<path d="M84.2727 22.2039C83.5292 22.4444 83.1609 22.9962 83.2105 23.8027C83.2317 24.2059 83.2742 24.3474 83.4442 24.5879C83.9682 25.3307 85.1934 25.4581 85.8732 24.8426C85.9582 24.7648 86.029 24.6799 86.029 24.6587C86.029 24.6374 85.9157 24.5455 85.7883 24.4535L85.5404 24.2837L85.2713 24.4677C84.8251 24.7718 84.294 24.694 84.0461 24.2837C83.9682 24.1564 83.9045 24.029 83.9045 23.9937C83.9045 23.9654 84.4144 23.9442 85.0376 23.9442H86.1707V23.6329C86.1707 23.0457 85.8874 22.501 85.4554 22.2817C85.1721 22.1331 84.6127 22.0978 84.2727 22.2039ZM85.2146 22.8972C85.3067 22.9891 85.3988 23.1306 85.4271 23.2155C85.4696 23.3782 85.4696 23.3782 84.6906 23.3782C84.2586 23.3782 83.9045 23.3641 83.9045 23.3428C83.9045 23.2084 84.1524 22.8689 84.3152 22.7769C84.5773 22.6283 85.0163 22.6849 85.2146 22.8972Z" fill="#663494"/>
<path d="M87.9625 22.182C87.8421 22.2174 87.6721 22.3306 87.5942 22.4296L87.4526 22.6065L87.4313 22.4084C87.4101 22.2244 87.3888 22.2103 87.0418 22.1891L86.6665 22.1678V23.6535V25.1461H87.056H87.4455V24.2265C87.4455 23.3139 87.4455 23.3068 87.6509 23.0804C87.8279 22.8823 87.8987 22.8541 88.2174 22.8541H88.5786V22.5216C88.5786 22.0971 88.4653 22.0334 87.9625 22.182Z" fill="#663494"/>
<path d="M89.6125 22.2096C88.961 22.443 88.6494 22.9029 88.6494 23.6527C88.6494 24.5441 89.1451 25.1242 89.9666 25.1949C90.3136 25.2232 90.4411 25.202 90.7244 25.0535L91.0572 24.8837V25.1879C91.0572 25.4284 91.0147 25.5487 90.8519 25.7255C90.6536 25.9448 90.6182 25.959 90.1508 25.959C89.7258 25.959 89.6196 25.9307 89.3859 25.7609L89.1097 25.5699L88.9893 25.7255C88.7132 26.0863 88.6848 26.1995 88.8335 26.3127C89.3009 26.6664 90.4694 26.7584 91.0218 26.4896C91.7158 26.15 91.8362 25.7467 91.8362 23.7164V22.1742H91.4821C91.1351 22.1742 91.128 22.1742 91.128 22.3935V22.6128L90.9156 22.4289C90.6961 22.252 90.2924 22.1035 90.0304 22.1035C89.9525 22.1105 89.7613 22.153 89.6125 22.2096ZM90.7031 22.917C91.1139 23.1292 91.2484 23.7093 90.9864 24.1338C90.8164 24.4238 90.6252 24.5229 90.2428 24.5229C89.5488 24.5229 89.1735 23.9003 89.4709 23.2637C89.5346 23.1292 89.6692 22.9736 89.7754 22.917C90.0162 22.7826 90.4482 22.7826 90.7031 22.917Z" fill="#663494"/>
<path d="M97.2542 22.2466C97.233 22.289 97.233 22.381 97.2542 22.4659C97.325 22.6852 97.6012 22.6144 97.6296 22.3668C97.6508 22.2041 97.6296 22.1758 97.4738 22.1758C97.3746 22.1758 97.2755 22.2112 97.2542 22.2466Z" fill="#663494"/>
<path d="M56.3 22.5417C56.1867 22.6549 56.1937 22.7752 56.3141 22.8742C56.4699 23.0015 56.6541 22.8884 56.6257 22.6761C56.6045 22.478 56.4345 22.4073 56.3 22.5417Z" fill="#663494"/>
<path d="M97.4596 23.7599C97.3888 23.9439 97.488 24.0995 97.6579 24.0712C97.7783 24.0571 97.8208 24.0005 97.8208 23.8731C97.8208 23.7458 97.7783 23.6892 97.6579 23.675C97.5659 23.6609 97.4809 23.6963 97.4596 23.7599Z" fill="#663494"/>
<path d="M56.1584 24.0285C56.0239 24.1629 56.0593 24.3539 56.2222 24.4034C56.4134 24.4671 56.5196 24.361 56.4842 24.1487C56.4629 23.9577 56.293 23.8941 56.1584 24.0285Z" fill="#663494"/>
<path d="M97.5516 25.3303C97.4596 25.4222 97.5021 25.7193 97.6154 25.7618C97.7853 25.8255 97.9765 25.5991 97.8845 25.4434C97.7995 25.309 97.6295 25.2524 97.5516 25.3303Z" fill="#663494"/>
<path d="M56.1085 25.5495C56.0448 25.6061 56.0093 25.7051 56.0306 25.7617C56.0518 25.8183 56.0731 25.882 56.0731 25.8961C56.0731 25.981 56.4201 25.9103 56.4555 25.8183C56.5546 25.5636 56.2926 25.3585 56.1085 25.5495Z" fill="#663494"/>
<path d="M97.4596 27.0138C97.3888 27.1977 97.488 27.3534 97.6579 27.3251C97.7783 27.3109 97.8208 27.2543 97.8208 27.127C97.8208 26.9996 97.7783 26.9431 97.6579 26.9289C97.5659 26.9148 97.4809 26.9501 97.4596 27.0138Z" fill="#663494"/>
<path d="M56.1087 27.1335C56.0733 27.2467 56.0945 27.3175 56.1795 27.3811C56.3565 27.5156 56.5123 27.4236 56.484 27.2043C56.4557 26.9567 56.1795 26.9071 56.1087 27.1335Z" fill="#663494"/>
<path d="M97.3389 28.4502C97.2468 28.5422 97.2893 28.811 97.4097 28.8534C97.5726 28.9171 97.7425 28.7332 97.6788 28.5492C97.6363 28.4077 97.438 28.3512 97.3389 28.4502Z" fill="#663494"/>
<path d="M56.3354 28.5138C56.2434 28.6128 56.2859 28.8816 56.4063 28.9241C56.5833 28.9948 56.7674 28.7826 56.6683 28.627C56.5833 28.4926 56.4133 28.436 56.3354 28.5138Z" fill="#663494"/>
<path d="M71.1576 29.8792V30.4381L70.938 30.3319C70.6264 30.1763 70.2511 30.2541 70.0103 30.5229C69.8403 30.6998 69.812 30.7988 69.812 31.1313C69.812 31.4851 69.8333 31.5487 70.0528 31.768C70.2511 31.9661 70.3431 32.0086 70.6052 32.0086C70.7751 32.0086 70.9876 31.959 71.0726 31.8954C71.2142 31.7963 71.2284 31.7963 71.2284 31.8954C71.2284 31.9661 71.2921 32.0086 71.4054 32.0086H71.5825V30.6644V29.3203H71.37H71.1576V29.8792ZM70.9097 30.6361C70.9663 30.6644 71.0726 30.7776 71.1292 30.8908C71.3134 31.2445 71.0867 31.6548 70.7114 31.6548C70.4069 31.6548 70.2369 31.478 70.2369 31.1455C70.2369 30.7281 70.5414 30.4946 70.9097 30.6361Z" fill="#663494"/>
<path d="M86.3267 30.6432L86.3479 31.9732L86.5462 31.9944L86.7374 32.0156V30.6715V29.3203H86.525H86.3125L86.3267 30.6432Z" fill="#663494"/>
<path d="M63.5803 29.4547C63.2616 29.5183 63.0917 29.6174 62.865 29.865C62.2843 30.4875 62.4826 31.5133 63.2616 31.9236C63.5236 32.058 64.3168 32.0722 64.6284 31.9448L64.855 31.8529V31.2232V30.5936H64.3522C63.8777 30.5936 63.8565 30.6007 63.8777 30.7493C63.8919 30.8837 63.9486 30.919 64.1681 30.9332C64.4301 30.9544 64.4301 30.9615 64.4301 31.2657C64.4301 31.5628 64.423 31.577 64.1823 31.6265C63.6794 31.7184 63.3183 31.5487 63.0917 31.1101C62.8934 30.728 63.1129 30.1055 63.5095 29.9074C63.7503 29.7872 64.0689 29.7942 64.3168 29.9216C64.5009 30.0206 64.5363 30.0206 64.6567 29.9145C64.8267 29.7518 64.8196 29.6952 64.593 29.582C64.331 29.4476 63.8919 29.3981 63.5803 29.4547Z" fill="#663494"/>
<path d="M77.3896 30.7343V32.0077H78.2395H79.0893V31.7954V31.5832H78.4519H77.8146V31.2295V30.8758H78.3811C78.9406 30.8758 78.9476 30.8758 78.9476 30.6989C78.9476 30.5221 78.9406 30.5221 78.3811 30.5221H77.8146V30.2037V29.8854H78.4165H79.0185V29.6731V29.4609H78.2041H77.3896V30.7343Z" fill="#663494"/>
<path d="M87.4458 29.5681C87.3183 29.7167 87.4245 29.9572 87.6157 29.9572C87.8494 29.9572 87.9698 29.7945 87.8707 29.6105C87.7857 29.4408 87.5732 29.4195 87.4458 29.5681Z" fill="#663494"/>
<path d="M88.5787 30.0621C88.5787 30.2601 88.5504 30.3097 88.437 30.3097C88.3308 30.3097 88.2954 30.3592 88.2954 30.4865C88.2954 30.6139 88.3308 30.6634 88.437 30.6634C88.5645 30.6634 88.5787 30.7129 88.5787 31.194C88.5787 31.6326 88.5999 31.7458 88.7274 31.8731C88.9186 32.0641 89.3931 32.0429 89.3931 31.8307C89.3931 31.7458 89.3294 31.6821 89.216 31.6538C89.0532 31.6184 89.039 31.576 89.0178 31.1444C88.9965 30.6775 88.9965 30.6705 89.1948 30.6492C89.3364 30.6351 89.4002 30.5856 89.4143 30.4653C89.4356 30.3309 89.4073 30.3097 89.2231 30.3097C89.0178 30.3097 89.0036 30.2884 89.0036 30.0621C89.0036 29.8357 88.9894 29.8145 88.7911 29.8145C88.5928 29.8145 88.5787 29.8357 88.5787 30.0621Z" fill="#663494"/>
<path d="M97.056 29.9279C96.964 30.0199 97.0065 30.2958 97.1198 30.3383C97.2756 30.4019 97.4455 30.2463 97.4172 30.0694C97.3959 29.9209 97.1552 29.8289 97.056 29.9279Z" fill="#663494"/>
<path d="M56.6182 29.9982C56.5261 30.0973 56.5686 30.3661 56.689 30.4086C56.866 30.4793 57.0502 30.2671 56.951 30.1114C56.866 29.977 56.6961 29.9204 56.6182 29.9982Z" fill="#663494"/>
<path d="M65.9456 30.3101C65.8677 30.3384 65.7119 30.4728 65.6056 30.6002C65.4286 30.8053 65.4074 30.8761 65.4357 31.2227C65.464 31.541 65.5065 31.6401 65.6977 31.8099C66.0022 32.0787 66.5829 32.0928 66.8804 31.8382C67.0787 31.6755 67.0787 31.6755 66.9299 31.5976C66.8166 31.534 66.7317 31.541 66.5759 31.6189C66.4696 31.6755 66.3138 31.7038 66.2359 31.6825C66.073 31.633 65.8464 31.4491 65.8464 31.3571C65.8464 31.3288 66.1368 31.3005 66.4838 31.3005H67.1212V31.0671C67.1212 30.4728 66.5192 30.0767 65.9456 30.3101ZM66.6113 30.678C66.8025 30.869 66.7033 30.9468 66.2713 30.9468C66.0376 30.9468 65.8464 30.9256 65.8464 30.8973C65.8464 30.6568 66.4201 30.487 66.6113 30.678Z" fill="#663494"/>
<path d="M68.2677 30.3518C68.1827 30.4084 68.1119 30.4225 68.1119 30.3871C68.1119 30.3447 68.0199 30.3093 67.8995 30.3093H67.687V31.1582V32.0072H67.8995H68.1119V31.42C68.1119 30.9319 68.1332 30.8045 68.2394 30.7126C68.4023 30.564 68.5652 30.5569 68.7068 30.7055C68.7918 30.7904 68.8201 30.9602 68.8201 31.4129V32.0072H69.0326H69.245V31.328C69.245 30.6772 69.2379 30.6418 69.0396 30.4437C68.8059 30.2103 68.5156 30.1749 68.2677 30.3518Z" fill="#663494"/>
<path d="M72.5881 30.3808C72.0287 30.7204 72.0428 31.6683 72.6165 31.923C73.098 32.1494 73.9762 31.9018 73.7 31.6188C73.6008 31.5198 73.5654 31.5198 73.3317 31.6188C73.0343 31.7391 72.7723 31.6754 72.6448 31.449C72.574 31.3075 72.5952 31.3075 73.2255 31.2863L73.8841 31.2651L73.8699 31.0529C73.8133 30.3454 73.1901 30.02 72.5881 30.3808ZM73.4096 30.784L73.5088 30.9467H73.0414C72.5527 30.9467 72.5386 30.9326 72.7369 30.6779C72.8502 30.5294 73.2822 30.6001 73.4096 30.784Z" fill="#663494"/>
<path d="M75.0243 30.3883C74.8756 30.5086 74.8402 30.5157 74.8402 30.4237C74.8402 30.3459 74.7765 30.3105 74.6277 30.3105H74.4082L74.4294 31.1382L74.4507 31.973L74.6348 31.9942C74.826 32.0154 74.826 32.0154 74.8473 31.4495C74.8756 30.834 74.9535 30.6855 75.2651 30.643C75.3926 30.6218 75.4492 30.5652 75.4634 30.4308C75.4917 30.1903 75.3005 30.169 75.0243 30.3883Z" fill="#663494"/>
<path d="M79.9952 30.3524C79.7332 30.4939 79.5845 30.7981 79.5845 31.2013C79.5845 31.4772 79.6199 31.5621 79.8253 31.7673C80.0235 31.9653 80.1156 32.0078 80.3776 32.0078C80.5476 32.0078 80.7601 31.9583 80.845 31.8946L81.0008 31.7885V32.3261V32.8638L81.1991 32.8426L81.3903 32.8213L81.4116 31.5621L81.4257 30.3099H81.2133C81.0646 30.3099 81.0008 30.3453 81.0008 30.4231C81.0008 30.5151 80.9654 30.508 80.8167 30.3878C80.5972 30.218 80.2643 30.2038 79.9952 30.3524ZM80.7884 30.7344C81.1425 31.0881 80.9725 31.5975 80.4839 31.6399C80.1864 31.6682 80.0094 31.4701 80.0094 31.1093C80.0094 30.6637 80.4839 30.4302 80.7884 30.7344Z" fill="#663494"/>
<path d="M84.493 30.3461C84.2381 30.4523 84.2027 30.5301 84.3585 30.6574C84.4364 30.7211 84.5001 30.7211 84.6063 30.6716C84.8117 30.5584 85.0808 30.5796 85.2083 30.7069C85.3712 30.8696 85.3004 30.9262 84.8896 30.9616C84.2239 31.0253 83.9194 31.4639 84.2877 31.8318C84.4859 32.0298 84.8613 32.0723 85.1304 31.9308C85.2437 31.8671 85.2862 31.8671 85.3074 31.9308C85.3216 31.9732 85.4137 32.0086 85.5057 32.0086C85.6757 32.0086 85.6757 32.0015 85.6757 31.3295C85.6757 30.6786 85.6686 30.6433 85.4703 30.4452C85.2295 30.2117 84.8825 30.1764 84.493 30.3461ZM85.3216 31.2658C85.3216 31.4073 85.1233 31.669 84.9888 31.6973C84.6559 31.7822 84.401 31.5063 84.6488 31.3295C84.7692 31.2375 85.3216 31.188 85.3216 31.2658Z" fill="#663494"/>
<path d="M82.0635 31.0038C82.0635 31.6405 82.0776 31.7112 82.2264 31.8527C82.4247 32.0367 82.8071 32.0579 83.0408 31.8952C83.1824 31.7961 83.1966 31.7961 83.1966 31.9022C83.1966 31.9871 83.2461 32.0084 83.3949 31.9942L83.5861 31.973L83.6073 31.1382L83.6286 30.3105H83.409H83.1966V30.7845C83.1966 31.4212 83.0903 31.6193 82.7717 31.6193H82.5238L82.5026 30.9614L82.4813 30.3105H82.2759H82.0635V31.0038Z" fill="#663494"/>
<path d="M87.4458 31.1594V32.0084H87.6582H87.8707V31.1594V30.3105H87.6582H87.4458V31.1594Z" fill="#663494"/>
<path d="M89.6411 30.3317C89.6411 30.353 89.7969 30.742 89.9952 31.1948C90.3351 31.9871 90.3422 32.0296 90.2431 32.2276C90.1368 32.4257 90.066 32.4611 89.8748 32.4399C89.8182 32.4328 89.7827 32.5106 89.7827 32.6521C89.7827 32.8714 89.7898 32.8714 90.0448 32.836C90.1864 32.8077 90.3635 32.737 90.4272 32.6662C90.498 32.5955 90.7459 32.0437 90.9796 31.4424C91.3761 30.4166 91.3903 30.3459 91.2628 30.3247C91.0079 30.2822 90.9512 30.353 90.7742 30.9047C90.6821 31.2019 90.5901 31.4424 90.5617 31.4424C90.5334 31.4424 90.4201 31.1948 90.3068 30.8906C90.1156 30.3742 90.0873 30.3459 89.8677 30.3247C89.7473 30.3105 89.6411 30.3176 89.6411 30.3317Z" fill="#663494"/>
<path d="M75.6899 31.1242C75.6899 31.294 75.7112 31.3011 76.1148 31.3011C76.5185 31.3011 76.5398 31.294 76.5398 31.1242C76.5398 30.9544 76.5185 30.9473 76.1148 30.9473C75.7112 30.9473 75.6899 30.9544 75.6899 31.1242Z" fill="#663494"/>
<path d="M96.6237 31.4776C96.567 31.6332 96.652 31.7959 96.7937 31.7959C96.9565 31.7959 97.0911 31.6262 97.0344 31.4847C96.9778 31.3432 96.6804 31.3361 96.6237 31.4776Z" fill="#663494"/>
<path d="M56.9513 31.5411C56.8805 31.7251 56.9797 31.8807 57.1496 31.8524C57.27 31.8383 57.3125 31.7817 57.3125 31.6543C57.3125 31.527 57.27 31.4704 57.1496 31.4562C57.0576 31.4421 56.9726 31.4775 56.9513 31.5411Z" fill="#663494"/>
<path d="M96.1703 32.8712C96.057 32.9844 96.0641 33.0339 96.1916 33.1683C96.312 33.2886 96.4748 33.2532 96.5386 33.0975C96.6377 32.8499 96.3615 32.6802 96.1703 32.8712Z" fill="#663494"/>
<path d="M57.4472 32.957C57.3764 33.1409 57.4755 33.2824 57.6667 33.2824C57.8296 33.2824 57.8509 33.2541 57.8296 33.0843C57.8084 32.865 57.518 32.766 57.4472 32.957Z" fill="#663494"/>
<path d="M76.8936 33.7066V34.2796L76.6811 34.1664C76.3978 34.0178 76.1783 34.032 75.895 34.223C75.2931 34.6262 75.4347 35.6308 76.1146 35.8359C76.3483 35.9067 76.4262 35.8996 76.674 35.7793C76.9006 35.6662 76.9644 35.6591 76.9644 35.7298C76.9644 35.7864 77.0352 35.8289 77.1414 35.8289H77.3185V34.4847V33.1406H77.106H76.8936V33.7066ZM76.7307 34.5696C76.9644 34.7889 76.9573 35.2063 76.7094 35.3973C76.6032 35.4822 76.4828 35.5459 76.4332 35.5459C76.3837 35.5459 76.2633 35.4822 76.1571 35.3973C76.0154 35.2841 75.9729 35.1922 75.9729 34.9729C75.9729 34.4777 76.3908 34.2513 76.7307 34.5696Z" fill="#663494"/>
<path d="M72.2905 34.5896V35.8277H72.503H72.7154V34.5896V33.3516H72.503H72.2905V34.5896Z" fill="#663494"/>
<path d="M74.1315 34.1091C74.0749 34.1303 73.9686 34.194 73.9049 34.2577C73.7916 34.3567 73.7774 34.3496 73.7774 34.2506C73.7774 34.1728 73.7208 34.1303 73.6004 34.1303H73.4233V34.9792V35.8282H73.6358H73.8412L73.8624 35.2127C73.8837 34.6255 73.8907 34.5901 74.0749 34.4911C74.2448 34.3921 74.2732 34.3921 74.4077 34.5123C74.5352 34.6255 74.5564 34.7316 74.5564 35.241V35.8282H74.776H74.9955L74.9672 35.1136C74.9459 34.4345 74.9388 34.3921 74.7476 34.2294C74.5564 34.0666 74.3581 34.0242 74.1315 34.1091Z" fill="#663494"/>
<path d="M78.3809 34.1794C77.9064 34.427 77.7577 35.099 78.0835 35.5376C78.3526 35.8984 79.0324 35.9762 79.3936 35.6791C79.5353 35.5659 79.5423 35.5447 79.4361 35.4386C79.3299 35.3325 79.3016 35.3325 79.0679 35.4457C78.7704 35.5872 78.5155 35.5164 78.3809 35.2617C78.3101 35.1273 78.3243 35.1202 78.9475 35.1202H79.5848V34.8373C79.5848 34.243 78.9404 33.8893 78.3809 34.1794ZM79.0749 34.4977C79.1245 34.5472 79.1599 34.6392 79.1599 34.7099C79.1599 34.816 79.0962 34.8373 78.735 34.8373C78.2818 34.8373 78.2251 34.7807 78.4517 34.5543C78.6075 34.3987 78.9404 34.3633 79.0749 34.4977Z" fill="#663494"/>
<path d="M80.0098 34.1734C80.0098 34.1946 80.1373 34.3785 80.2931 34.5695L80.5763 34.9232L80.2152 35.376L79.854 35.8288H80.1302C80.3639 35.8217 80.4276 35.7863 80.6047 35.5316L80.8101 35.2345L80.9729 35.4255C81.065 35.5316 81.1641 35.666 81.1996 35.7297C81.242 35.8075 81.3412 35.8288 81.5182 35.8146L81.7803 35.7934L81.4616 35.4043C81.2916 35.1921 81.15 34.9798 81.1429 34.9374C81.1429 34.8949 81.2562 34.711 81.3908 34.5341C81.5253 34.3573 81.6386 34.1946 81.6386 34.1734C81.6386 34.1521 81.5253 34.1309 81.3908 34.1309C81.2562 34.1309 81.1429 34.1521 81.1429 34.1804C81.1429 34.2158 81.065 34.329 80.98 34.4422L80.8101 34.6473L80.6543 34.3927C80.5197 34.1734 80.456 34.1309 80.2506 34.1309C80.116 34.1309 80.0098 34.1521 80.0098 34.1734Z" fill="#663494"/>
<path d="M58.0843 34.3004C57.9427 34.4065 57.9852 34.6046 58.1693 34.6753C58.3109 34.7319 58.5021 34.5409 58.4455 34.3994C58.3817 34.2367 58.233 34.1943 58.0843 34.3004Z" fill="#663494"/>
<path d="M95.547 34.3074C95.4762 34.4842 95.5754 34.6399 95.7453 34.6116C95.8657 34.5974 95.9153 34.5337 95.9295 34.3923C95.9507 34.2295 95.9295 34.2012 95.7666 34.2012C95.6674 34.2012 95.5683 34.2508 95.547 34.3074Z" fill="#663494"/>
<path d="M94.9171 35.5957C94.8533 35.6523 94.8179 35.7513 94.8392 35.8079C94.8604 35.8645 94.8817 35.9282 94.8817 35.9423C94.8817 36.0131 95.1579 35.9636 95.2287 35.8716C95.4057 35.6594 95.1154 35.3976 94.9171 35.5957Z" fill="#663494"/>
<path d="M58.7714 35.6435C58.6368 35.8062 58.743 36.0397 58.9484 36.0397C59.1467 36.0397 59.2458 35.8628 59.1396 35.693C59.0405 35.5374 58.8776 35.5162 58.7714 35.6435Z" fill="#663494"/>
<path d="M94.1235 36.8682C93.996 36.9177 94.0102 37.137 94.1376 37.2431C94.2793 37.3634 94.4705 37.2077 94.4422 37.0026C94.4209 36.854 94.2864 36.7975 94.1235 36.8682Z" fill="#663494"/>
<path d="M59.5222 36.9879C59.423 37.2355 59.6851 37.4619 59.8763 37.3062C59.9329 37.2567 59.9683 37.1506 59.9542 37.0728C59.9258 36.8888 59.5859 36.8252 59.5222 36.9879Z" fill="#663494"/>
<path d="M93.2243 38.1283C93.1393 38.2132 93.1322 38.2769 93.1818 38.383C93.2739 38.5457 93.4155 38.5599 93.543 38.4042C93.6067 38.3264 93.6138 38.2627 93.5642 38.1778C93.458 38.0151 93.3589 38.001 93.2243 38.1283Z" fill="#663494"/>
<path d="M60.4215 38.1921C60.3507 38.376 60.4286 38.5529 60.5773 38.5741C60.7897 38.6024 60.9172 38.4256 60.8181 38.2416C60.7331 38.0718 60.4781 38.0435 60.4215 38.1921Z" fill="#663494"/>
<path d="M61.4199 39.3379C61.2924 39.4652 61.3066 39.5713 61.4695 39.6704C61.6182 39.7694 61.8094 39.6845 61.8094 39.5147C61.8094 39.3025 61.5686 39.1964 61.4199 39.3379Z" fill="#663494"/>
<path d="M92.2189 39.3224C92.1481 39.5063 92.2472 39.6619 92.4172 39.6336C92.5376 39.6195 92.5801 39.5629 92.5801 39.4356C92.5801 39.3082 92.5376 39.2516 92.4172 39.2375C92.3251 39.2233 92.2402 39.2587 92.2189 39.3224Z" fill="#663494"/>
<path d="M91.2131 40.3697C91.0998 40.4829 91.1068 40.6031 91.2272 40.7022C91.4255 40.8649 91.7088 40.5819 91.5459 40.3838C91.4468 40.2636 91.3264 40.2565 91.2131 40.3697Z" fill="#663494"/>
<path d="M62.4261 40.4552C62.3694 40.5967 62.4332 40.7594 62.5606 40.8089C62.7448 40.8797 62.8793 40.7735 62.8581 40.5755C62.8439 40.434 62.7943 40.3845 62.6527 40.3703C62.5323 40.3562 62.4473 40.3915 62.4261 40.4552Z" fill="#663494"/>
<path d="M90.1016 41.3738C89.9599 41.4799 89.9953 41.678 90.1724 41.7417C90.2999 41.7912 90.4911 41.6568 90.4911 41.5153C90.4911 41.3596 90.2432 41.2677 90.1016 41.3738Z" fill="#663494"/>
<path d="M63.5729 41.4602C63.4525 41.6087 63.5729 41.8068 63.7995 41.8068C63.927 41.8068 63.9766 41.7644 63.9907 41.637C64.0332 41.3682 63.7499 41.2479 63.5729 41.4602Z" fill="#663494"/>
<path d="M88.8975 42.2937C88.7558 42.3998 88.7912 42.5979 88.9683 42.6616C89.0958 42.7111 89.287 42.5767 89.287 42.4352C89.287 42.2795 89.0391 42.1876 88.8975 42.2937Z" fill="#663494"/>
<path d="M64.7978 42.35C64.6844 42.4632 64.6915 42.5835 64.819 42.6896C64.9677 42.8169 65.2085 42.7108 65.2085 42.5127C65.2085 42.2864 64.9606 42.1873 64.7978 42.35Z" fill="#663494"/>
<path d="M87.623 43.1577C87.4955 43.2921 87.5097 43.3912 87.6726 43.4973C87.7576 43.5468 87.8213 43.5398 87.8992 43.4761C88.0479 43.3558 88.0479 43.1436 87.8992 43.087C87.7505 43.0304 87.7576 43.0304 87.623 43.1577Z" fill="#663494"/>
<path d="M66.0371 43.1642C65.9308 43.2633 65.9946 43.4755 66.1575 43.5533C66.377 43.6523 66.554 43.5816 66.554 43.4047C66.554 43.1996 66.1716 43.0227 66.0371 43.1642Z" fill="#663494"/>
<path d="M86.5253 43.8585C86.412 43.9929 86.4828 44.1769 86.6528 44.1769C86.8298 44.1769 86.9644 44.0142 86.9077 43.8656C86.8511 43.7241 86.6386 43.717 86.5253 43.8585Z" fill="#663494"/>
<path d="M67.5737 44.0693C67.5029 44.2462 67.6021 44.3877 67.7862 44.3877C67.9774 44.3877 68.0837 44.2037 67.9633 44.0623C67.857 43.9278 67.6233 43.9349 67.5737 44.0693Z" fill="#663494"/>
<path d="M85.1793 44.4944C85.0589 44.6429 85.1439 44.8127 85.3493 44.8127C85.5476 44.8127 85.6113 44.6925 85.5193 44.5085C85.4414 44.36 85.2997 44.3529 85.1793 44.4944Z" fill="#663494"/>
<path d="M68.9339 44.7134C68.8702 44.8691 69.0189 45.0388 69.2031 45.0105C69.3093 44.9964 69.3518 44.9398 69.3518 44.8125C69.3518 44.671 69.3093 44.6285 69.1676 44.6144C69.0402 44.6002 68.9623 44.6356 68.9339 44.7134Z" fill="#663494"/>
<path d="M83.7633 45.0607C83.6429 45.2093 83.7279 45.379 83.9333 45.379C84.1245 45.379 84.2307 45.1951 84.1103 45.0536C84.0041 44.9263 83.8766 44.9263 83.7633 45.0607Z" fill="#663494"/>
<path d="M70.3857 45.1877C70.2086 45.407 70.5273 45.69 70.7256 45.4848C70.8106 45.3999 70.8177 45.3504 70.761 45.2514C70.6548 45.0958 70.4919 45.0675 70.3857 45.1877Z" fill="#663494"/>
<path d="M82.361 45.4635C82.1627 45.6616 82.3398 45.9304 82.5947 45.8314C82.7364 45.7748 82.7293 45.4777 82.5877 45.4211C82.446 45.3645 82.4602 45.3645 82.361 45.4635Z" fill="#663494"/>
<path d="M71.8447 45.5697C71.7456 45.6617 71.7951 45.8739 71.9297 45.9447C72.128 46.0437 72.3192 45.8527 72.22 45.6546C72.1492 45.5202 71.9368 45.4707 71.8447 45.5697Z" fill="#663494"/>
<path d="M80.8527 45.8454C80.7323 45.9869 80.8598 46.1991 81.0439 46.1708C81.2281 46.1354 81.2918 46.0152 81.2068 45.8595C81.1218 45.7039 80.9802 45.6968 80.8527 45.8454Z" fill="#663494"/>
<path d="M73.3314 45.9225C73.2323 46.0145 73.2889 46.2196 73.4235 46.2621C73.6147 46.3257 73.7068 46.255 73.7068 46.0428C73.7068 45.9154 73.6714 45.873 73.5439 45.873C73.4518 45.873 73.3527 45.8942 73.3314 45.9225Z" fill="#663494"/>
<path d="M74.8326 46.1276C74.7264 46.2549 74.8184 46.4601 75.0025 46.4954C75.1796 46.5308 75.2858 46.262 75.1513 46.1276C75.0167 45.9861 74.953 45.9861 74.8326 46.1276Z" fill="#663494"/>
<path d="M79.3298 46.1217C79.2589 46.2986 79.3581 46.4542 79.528 46.4259C79.6484 46.4118 79.698 46.3481 79.7122 46.2066C79.7334 46.0439 79.7122 46.0156 79.5493 46.0156C79.4501 46.0156 79.351 46.0651 79.3298 46.1217Z" fill="#663494"/>
<path d="M77.9062 46.1364C77.7787 46.186 77.7929 46.4902 77.9204 46.5397C78.1753 46.6387 78.3524 46.3699 78.1541 46.1718C78.062 46.0799 78.0408 46.0799 77.9062 46.1364Z" fill="#663494"/>
<path d="M76.2848 46.2622C76.214 46.439 76.4406 46.6371 76.5964 46.5381C76.6602 46.4956 76.7168 46.3966 76.7168 46.3258C76.7168 46.149 76.3486 46.0924 76.2848 46.2622Z" fill="#663494"/>
</g>
</g>
<defs>
<clipPath id="clip0_201_3705">
<rect width="154" height="51" fill="white"/>
</clipPath>
</defs>
</svg>
